<?xml version="1.0" encoding="UTF-8" standalone="no"?><svg xmlns="http://www.w3.org/2000/svg" xmlns:xlink="http://www.w3.org/1999/xlink" contentScriptType="text/ecmascript" fill="#000000" width="425.2" zoomAndPan="magnify" contentStyleType="text/css" viewBox="0.0 45.0 425.2 380.2" height="380.2" preserveAspectRatio="xMidYMid meet" version="1"><defs><clipPath id="a"><path d="M 0 0 L 425.199219 0 L 425.199219 425.199219 L 0 425.199219 Z M 0 0"/></clipPath><clipPath id="b"><path d="M 0 301 L 425.199219 301 L 425.199219 425.199219 L 0 425.199219 Z M 0 301"/></clipPath></defs><g><g clip-path="url(#a)"/><g clip-path="url(#b)"><path fill="#71d0d8" d="M 0.00390625 425.199219 L 425.199219 425.199219 L 425.199219 301 L 0.00390625 301 Z M 0.00390625 425.199219"/></g><g><path fill="#2d4e56" d="M 203.347656 345.070312 C 119.484375 345.070312 51.496094 338.71875 51.496094 330.886719 C 51.496094 323.054688 119.484375 316.703125 203.347656 316.703125 C 287.210938 316.703125 355.195312 323.054688 355.195312 330.886719 C 355.195312 338.71875 287.210938 345.070312 203.347656 345.070312"/></g><g><path fill="#b4e5dc" d="M 241.527344 136.367188 C 241.527344 186.820312 200.625 227.722656 150.167969 227.722656 C 99.714844 227.722656 58.808594 186.820312 58.808594 136.367188 C 58.808594 85.910156 99.714844 45.007812 150.167969 45.007812 C 200.625 45.007812 241.527344 85.910156 241.527344 136.367188"/></g><g><path fill="#ffffff" d="M 340.453125 327.023438 L 156.324219 327.023438 L 156.324219 120.417969 L 340.453125 120.417969 L 340.453125 327.023438"/></g><g><path fill="#4b1615" d="M 340.453125 327.023438 L 340.453125 323.980469 L 159.363281 323.980469 L 159.363281 123.460938 L 337.414062 123.460938 L 337.414062 327.023438 L 340.453125 327.023438 L 340.453125 323.980469 L 340.453125 327.023438 L 343.492188 327.023438 L 343.492188 120.417969 C 343.492188 119.617188 343.171875 118.835938 342.605469 118.269531 C 342.039062 117.703125 341.253906 117.378906 340.453125 117.378906 L 156.324219 117.378906 C 155.523438 117.378906 154.738281 117.703125 154.171875 118.269531 C 153.605469 118.835938 153.28125 119.617188 153.28125 120.417969 L 153.28125 327.023438 C 153.28125 327.824219 153.605469 328.605469 154.171875 329.171875 C 154.738281 329.738281 155.523438 330.0625 156.324219 330.0625 L 340.453125 330.0625 C 341.253906 330.0625 342.039062 329.738281 342.605469 329.171875 C 343.171875 328.605469 343.492188 327.824219 343.492188 327.023438 L 340.453125 327.023438"/></g><g><path fill="#4ac3d6" d="M 340.453125 178.503906 L 156.324219 178.503906 L 156.324219 120.417969 L 340.453125 120.417969 L 340.453125 178.503906"/></g><g><path fill="#4b1615" d="M 340.453125 178.503906 L 340.453125 175.464844 L 159.363281 175.464844 L 159.363281 123.460938 L 337.414062 123.460938 L 337.414062 178.503906 L 340.453125 178.503906 L 340.453125 175.464844 L 340.453125 178.503906 L 343.492188 178.503906 L 343.492188 120.417969 C 343.492188 119.617188 343.171875 118.835938 342.605469 118.269531 C 342.039062 117.703125 341.253906 117.378906 340.453125 117.378906 L 156.324219 117.378906 C 155.523438 117.378906 154.738281 117.703125 154.171875 118.269531 C 153.605469 118.835938 153.28125 119.617188 153.28125 120.417969 L 153.28125 178.503906 C 153.28125 179.304688 153.605469 180.085938 154.171875 180.652344 C 154.738281 181.21875 155.523438 181.542969 156.324219 181.542969 L 340.453125 181.542969 C 341.253906 181.542969 342.039062 181.21875 342.605469 180.652344 C 343.171875 180.085938 343.492188 179.304688 343.492188 178.503906 L 340.453125 178.503906"/></g><g><path fill="#a7a5a6" d="M 184.910156 128.554688 C 184.910156 132.871094 181.414062 136.367188 177.097656 136.367188 C 172.78125 136.367188 169.285156 132.871094 169.285156 128.554688 L 169.285156 112.28125 C 169.285156 107.960938 172.78125 104.46875 177.097656 104.46875 C 181.414062 104.46875 184.910156 107.960938 184.910156 112.28125 L 184.910156 128.554688"/></g><g><path fill="#4b1615" d="M 184.910156 128.554688 L 181.867188 128.554688 C 181.867188 129.886719 181.339844 131.058594 180.472656 131.929688 C 179.601562 132.796875 178.425781 133.324219 177.097656 133.324219 C 175.765625 133.324219 174.59375 132.796875 173.722656 131.929688 C 172.855469 131.058594 172.324219 129.886719 172.324219 128.554688 L 172.324219 112.28125 C 172.324219 110.949219 172.855469 109.777344 173.722656 108.902344 C 174.59375 108.035156 175.765625 107.511719 177.097656 107.507812 C 178.429688 107.511719 179.601562 108.039062 180.472656 108.902344 C 181.339844 109.777344 181.867188 110.949219 181.867188 112.28125 L 181.867188 128.554688 L 187.949219 128.554688 L 187.949219 112.28125 C 187.949219 109.292969 186.730469 106.558594 184.769531 104.605469 C 182.816406 102.644531 180.082031 101.425781 177.097656 101.429688 C 174.109375 101.425781 171.378906 102.644531 169.421875 104.605469 C 167.460938 106.558594 166.242188 109.292969 166.242188 112.28125 L 166.242188 128.554688 C 166.242188 131.542969 167.460938 134.273438 169.421875 136.230469 C 171.375 138.1875 174.109375 139.40625 177.097656 139.40625 C 180.082031 139.40625 182.816406 138.1875 184.769531 136.230469 C 186.730469 134.273438 187.949219 131.539062 187.949219 128.554688 L 184.910156 128.554688"/></g><g><path fill="#a7a5a6" d="M 208.671875 128.554688 C 208.671875 132.871094 205.179688 136.367188 200.859375 136.367188 C 196.542969 136.367188 193.050781 132.871094 193.050781 128.554688 L 193.050781 112.28125 C 193.050781 107.960938 196.542969 104.46875 200.859375 104.46875 C 205.179688 104.46875 208.671875 107.960938 208.671875 112.28125 L 208.671875 128.554688"/></g><g><path fill="#4b1615" d="M 208.671875 128.554688 L 205.632812 128.554688 C 205.628906 129.886719 205.101562 131.058594 204.234375 131.929688 C 203.363281 132.796875 202.191406 133.324219 200.859375 133.324219 C 199.53125 133.324219 198.359375 132.796875 197.484375 131.929688 C 196.617188 131.058594 196.09375 129.886719 196.089844 128.554688 L 196.089844 112.28125 C 196.09375 110.949219 196.617188 109.777344 197.484375 108.902344 C 198.355469 108.039062 199.53125 107.511719 200.859375 107.507812 C 202.191406 107.511719 203.363281 108.039062 204.234375 108.902344 C 205.101562 109.777344 205.628906 110.949219 205.632812 112.28125 L 205.632812 128.554688 L 211.714844 128.554688 L 211.714844 112.28125 C 211.714844 109.292969 210.496094 106.558594 208.535156 104.605469 C 206.582031 102.644531 203.847656 101.425781 200.859375 101.429688 C 197.875 101.425781 195.140625 102.644531 193.1875 104.605469 C 191.226562 106.558594 190.007812 109.292969 190.007812 112.28125 L 190.007812 128.554688 C 190.007812 131.539062 191.226562 134.273438 193.1875 136.230469 C 195.140625 138.1875 197.875 139.40625 200.859375 139.40625 C 203.847656 139.40625 206.582031 138.1875 208.535156 136.230469 C 210.496094 134.273438 211.714844 131.539062 211.714844 128.554688 L 208.671875 128.554688"/></g><g><path fill="#a7a5a6" d="M 232.4375 128.554688 C 232.4375 132.871094 228.941406 136.367188 224.625 136.367188 C 220.3125 136.367188 216.8125 132.871094 216.8125 128.554688 L 216.8125 112.28125 C 216.8125 107.960938 220.3125 104.46875 224.625 104.46875 C 228.941406 104.46875 232.4375 107.960938 232.4375 112.28125 L 232.4375 128.554688"/></g><g><path fill="#4b1615" d="M 232.4375 128.554688 L 229.398438 128.554688 C 229.394531 129.886719 228.867188 131.058594 228 131.929688 C 227.128906 132.796875 225.957031 133.324219 224.625 133.324219 C 223.296875 133.324219 222.125 132.796875 221.25 131.929688 C 220.382812 131.058594 219.855469 129.882812 219.855469 128.554688 L 219.855469 112.28125 C 219.855469 110.949219 220.382812 109.777344 221.25 108.90625 C 222.121094 108.039062 223.296875 107.511719 224.625 107.507812 C 225.957031 107.511719 227.128906 108.039062 228 108.902344 C 228.867188 109.777344 229.394531 110.949219 229.398438 112.28125 L 229.398438 128.554688 L 235.480469 128.554688 L 235.480469 112.28125 C 235.480469 109.292969 234.261719 106.558594 232.300781 104.605469 C 230.34375 102.644531 227.613281 101.425781 224.625 101.429688 C 221.640625 101.425781 218.90625 102.644531 216.953125 104.605469 C 214.992188 106.558594 213.769531 109.289062 213.773438 112.28125 L 213.773438 128.554688 C 213.769531 131.542969 214.992188 134.277344 216.953125 136.230469 C 218.90625 138.1875 221.640625 139.40625 224.625 139.40625 C 227.613281 139.40625 230.34375 138.1875 232.300781 136.230469 C 234.261719 134.273438 235.480469 131.542969 235.480469 128.554688 L 232.4375 128.554688"/></g><g><path fill="#a7a5a6" d="M 256.207031 128.554688 C 256.207031 132.871094 252.707031 136.367188 248.390625 136.367188 C 244.074219 136.367188 240.574219 132.871094 240.574219 128.554688 L 240.574219 112.28125 C 240.574219 107.960938 244.074219 104.46875 248.390625 104.46875 C 252.707031 104.46875 256.207031 107.960938 256.207031 112.28125 L 256.207031 128.554688"/></g><g><path fill="#4b1615" d="M 256.207031 128.554688 L 253.164062 128.554688 C 253.164062 129.882812 252.636719 131.054688 251.769531 131.929688 C 250.894531 132.796875 249.71875 133.324219 248.390625 133.324219 C 247.0625 133.324219 245.886719 132.796875 245.011719 131.929688 C 244.144531 131.054688 243.613281 129.882812 243.613281 128.554688 L 243.613281 112.28125 C 243.613281 110.949219 244.144531 109.777344 245.011719 108.90625 C 245.886719 108.039062 247.058594 107.511719 248.390625 107.507812 C 249.71875 107.511719 250.894531 108.039062 251.769531 108.90625 C 252.636719 109.777344 253.164062 110.949219 253.164062 112.28125 L 253.164062 128.554688 L 259.246094 128.554688 L 259.246094 112.28125 C 259.246094 109.289062 258.027344 106.558594 256.0625 104.601562 C 254.109375 102.644531 251.375 101.425781 248.390625 101.429688 C 245.402344 101.425781 242.671875 102.644531 240.714844 104.601562 C 238.753906 106.554688 237.53125 109.289062 237.53125 112.28125 L 237.53125 128.554688 C 237.53125 131.542969 238.753906 134.277344 240.714844 136.230469 C 242.671875 138.1875 245.402344 139.40625 248.390625 139.40625 C 251.375 139.40625 254.109375 138.1875 256.066406 136.230469 C 258.027344 134.277344 259.246094 131.542969 259.246094 128.554688 L 256.207031 128.554688"/></g><g><path fill="#a7a5a6" d="M 279.96875 128.554688 C 279.96875 132.871094 276.46875 136.367188 272.152344 136.367188 C 267.839844 136.367188 264.339844 132.871094 264.339844 128.554688 L 264.339844 112.28125 C 264.339844 107.960938 267.839844 104.46875 272.152344 104.46875 C 276.46875 104.46875 279.96875 107.960938 279.96875 112.28125 L 279.96875 128.554688"/></g><g><path fill="#4b1615" d="M 279.96875 128.554688 L 276.925781 128.554688 C 276.925781 129.882812 276.398438 131.054688 275.527344 131.929688 C 274.65625 132.796875 273.480469 133.324219 272.152344 133.324219 C 270.824219 133.324219 269.648438 132.796875 268.777344 131.929688 C 267.910156 131.054688 267.378906 129.882812 267.378906 128.554688 L 267.378906 112.28125 C 267.378906 110.949219 267.910156 109.777344 268.777344 108.90625 C 269.648438 108.035156 270.824219 107.511719 272.152344 107.507812 C 273.480469 107.511719 274.65625 108.039062 275.53125 108.90625 C 276.398438 109.777344 276.925781 110.949219 276.925781 112.28125 L 276.925781 128.554688 L 283.007812 128.554688 L 283.007812 112.28125 C 283.011719 109.289062 281.789062 106.558594 279.828125 104.601562 C 277.871094 102.644531 275.136719 101.425781 272.152344 101.429688 C 269.167969 101.425781 266.433594 102.644531 264.480469 104.601562 C 262.519531 106.558594 261.296875 109.289062 261.296875 112.28125 L 261.296875 128.554688 C 261.296875 131.542969 262.519531 134.277344 264.480469 136.230469 C 266.433594 138.1875 269.167969 139.40625 272.152344 139.40625 C 275.136719 139.40625 277.871094 138.1875 279.828125 136.230469 C 281.789062 134.277344 283.011719 131.542969 283.007812 128.554688 L 279.96875 128.554688"/></g><g><path fill="#a7a5a6" d="M 303.734375 128.554688 C 303.734375 132.871094 300.230469 136.367188 295.917969 136.367188 C 291.605469 136.367188 288.105469 132.871094 288.105469 128.554688 L 288.105469 112.28125 C 288.105469 107.960938 291.605469 104.46875 295.917969 104.46875 C 300.230469 104.46875 303.734375 107.960938 303.734375 112.28125 L 303.734375 128.554688"/></g><g><path fill="#4b1615" d="M 303.734375 128.554688 L 300.691406 128.554688 C 300.691406 129.882812 300.164062 131.054688 299.292969 131.929688 C 298.421875 132.796875 297.246094 133.324219 295.917969 133.324219 C 294.589844 133.324219 293.414062 132.796875 292.542969 131.929688 C 291.675781 131.054688 291.144531 129.882812 291.144531 128.554688 L 291.144531 112.28125 C 291.144531 110.949219 291.675781 109.777344 292.542969 108.90625 C 293.414062 108.035156 294.589844 107.511719 295.917969 107.507812 C 297.246094 107.511719 298.421875 108.039062 299.292969 108.90625 C 300.164062 109.777344 300.691406 110.949219 300.691406 112.28125 L 300.691406 128.554688 L 306.773438 128.554688 L 306.773438 112.28125 C 306.773438 109.289062 305.550781 106.554688 303.589844 104.601562 C 301.636719 102.644531 298.902344 101.425781 295.917969 101.429688 C 292.933594 101.425781 290.199219 102.644531 288.242188 104.601562 C 286.285156 106.558594 285.0625 109.289062 285.0625 112.28125 L 285.0625 128.554688 C 285.0625 131.542969 286.285156 134.277344 288.242188 136.230469 C 290.199219 138.1875 292.933594 139.40625 295.917969 139.40625 C 298.902344 139.40625 301.636719 138.1875 303.589844 136.230469 C 305.550781 134.277344 306.773438 131.542969 306.773438 128.554688 L 303.734375 128.554688"/></g><g><path fill="#a7a5a6" d="M 327.492188 128.554688 C 327.492188 132.871094 324 136.367188 319.683594 136.367188 C 315.367188 136.367188 311.867188 132.871094 311.867188 128.554688 L 311.867188 112.28125 C 311.867188 107.960938 315.367188 104.46875 319.683594 104.46875 C 324 104.46875 327.492188 107.960938 327.492188 112.28125 L 327.492188 128.554688"/></g><g><path fill="#4b1615" d="M 327.492188 128.554688 L 324.449219 128.554688 C 324.449219 129.886719 323.921875 131.058594 323.054688 131.929688 C 322.183594 132.796875 321.011719 133.324219 319.683594 133.324219 C 318.351562 133.324219 317.179688 132.796875 316.304688 131.929688 C 315.4375 131.058594 314.910156 129.882812 314.90625 128.554688 L 314.90625 112.28125 C 314.910156 110.949219 315.4375 109.777344 316.304688 108.90625 C 317.179688 108.039062 318.351562 107.511719 319.683594 107.507812 C 321.011719 107.511719 322.183594 108.035156 323.054688 108.902344 C 323.921875 109.773438 324.449219 110.945312 324.449219 112.28125 L 324.449219 128.554688 L 330.53125 128.554688 L 330.53125 112.28125 C 330.53125 109.292969 329.3125 106.558594 327.355469 104.605469 C 325.402344 102.644531 322.667969 101.425781 319.683594 101.429688 C 316.695312 101.425781 313.964844 102.644531 312.007812 104.601562 C 310.046875 106.558594 308.824219 109.289062 308.828125 112.28125 L 308.828125 128.554688 C 308.824219 131.542969 310.046875 134.277344 312.007812 136.230469 C 313.964844 138.1875 316.695312 139.40625 319.683594 139.40625 C 322.667969 139.40625 325.402344 138.1875 327.355469 136.230469 C 329.3125 134.273438 330.53125 131.539062 330.53125 128.554688 L 327.492188 128.554688"/></g><g><path fill="#4b1615" d="M 182.402344 294.277344 L 189.464844 294.277344 C 191.144531 294.277344 192.503906 292.914062 192.503906 291.234375 C 192.503906 289.554688 191.144531 288.195312 189.464844 288.195312 L 182.402344 288.195312 C 180.722656 288.195312 179.359375 289.554688 179.359375 291.234375 C 179.359375 292.914062 180.722656 294.277344 182.402344 294.277344 Z M 200.765625 294.277344 L 207.828125 294.277344 C 209.507812 294.277344 210.867188 292.914062 210.867188 291.234375 C 210.867188 289.554688 209.507812 288.195312 207.828125 288.195312 L 200.765625 288.195312 C 199.085938 288.195312 197.722656 289.554688 197.722656 291.234375 C 197.722656 292.914062 199.085938 294.277344 200.765625 294.277344 Z M 219.128906 294.277344 L 226.191406 294.277344 C 227.871094 294.277344 229.230469 292.914062 229.230469 291.234375 C 229.230469 289.554688 227.871094 288.195312 226.191406 288.195312 L 219.128906 288.195312 C 217.449219 288.195312 216.089844 289.554688 216.089844 291.234375 C 216.089844 292.914062 217.449219 294.277344 219.128906 294.277344 Z M 237.492188 294.277344 L 244.554688 294.277344 C 246.234375 294.277344 247.59375 292.914062 247.59375 291.234375 C 247.59375 289.554688 246.234375 288.195312 244.554688 288.195312 L 237.492188 288.195312 C 235.8125 288.195312 234.453125 289.554688 234.453125 291.234375 C 234.453125 292.914062 235.8125 294.277344 237.492188 294.277344 Z M 255.855469 294.277344 L 262.917969 294.277344 C 264.597656 294.277344 265.957031 292.914062 265.957031 291.234375 C 265.957031 289.554688 264.597656 288.195312 262.917969 288.195312 L 255.855469 288.195312 C 254.175781 288.195312 252.816406 289.554688 252.816406 291.234375 C 252.816406 292.914062 254.175781 294.277344 255.855469 294.277344 Z M 274.21875 294.277344 L 281.28125 294.277344 C 282.960938 294.277344 284.320312 292.914062 284.320312 291.234375 C 284.320312 289.554688 282.960938 288.195312 281.28125 288.195312 L 274.21875 288.195312 C 272.539062 288.195312 271.179688 289.554688 271.179688 291.234375 C 271.179688 292.914062 272.539062 294.277344 274.21875 294.277344 Z M 292.582031 294.277344 L 299.644531 294.277344 C 301.324219 294.277344 302.6875 292.914062 302.6875 291.234375 C 302.6875 289.554688 301.324219 288.195312 299.644531 288.195312 L 292.582031 288.195312 C 290.902344 288.195312 289.542969 289.554688 289.542969 291.234375 C 289.542969 292.914062 290.902344 294.277344 292.582031 294.277344 Z M 310.945312 294.277344 L 314.378906 294.277344 C 316.054688 294.277344 317.417969 292.914062 317.417969 291.234375 C 317.417969 289.554688 316.054688 288.195312 314.378906 288.195312 L 310.945312 288.195312 C 309.269531 288.195312 307.90625 289.554688 307.90625 291.234375 C 307.90625 292.914062 309.269531 294.277344 310.945312 294.277344"/></g><g><path fill="#fddd47" d="M 292.753906 267.742188 L 259.667969 236.070312 L 344.402344 147.535156 L 377.492188 179.203125 L 292.753906 267.742188"/></g><g><path fill="#4b1615" d="M 292.753906 267.742188 L 294.855469 265.546875 L 263.964844 235.976562 L 344.496094 151.832031 L 373.191406 179.296875 L 290.558594 265.640625 L 292.753906 267.742188 L 294.855469 265.546875 L 292.753906 267.742188 L 294.949219 269.84375 L 379.6875 181.304688 C 380.242188 180.726562 380.550781 179.9375 380.53125 179.136719 C 380.515625 178.335938 380.171875 177.5625 379.59375 177.007812 L 346.503906 145.335938 C 345.925781 144.785156 345.136719 144.476562 344.335938 144.492188 C 343.535156 144.511719 342.761719 144.851562 342.207031 145.433594 L 257.46875 233.96875 C 256.308594 235.179688 256.351562 237.105469 257.5625 238.265625 L 290.652344 269.9375 C 291.230469 270.492188 292.019531 270.800781 292.820312 270.78125 C 293.621094 270.765625 294.398438 270.421875 294.949219 269.84375 L 292.753906 267.742188"/></g><g><path fill="#bdbcbc" d="M 394.523438 161.40625 L 361.4375 129.734375 L 344.402344 147.535156 L 377.492188 179.203125 L 394.523438 161.40625"/></g><g><path fill="#4b1615" d="M 394.523438 161.40625 L 396.625 159.210938 L 363.539062 127.539062 C 362.960938 126.984375 362.171875 126.675781 361.371094 126.695312 C 360.570312 126.710938 359.792969 127.054688 359.238281 127.632812 L 342.207031 145.433594 C 341.046875 146.644531 341.085938 148.570312 342.300781 149.730469 L 375.390625 181.398438 C 375.96875 181.953125 376.757812 182.261719 377.558594 182.242188 C 378.359375 182.226562 379.136719 181.882812 379.6875 181.304688 L 396.722656 163.507812 C 397.882812 162.292969 397.839844 160.371094 396.625 159.210938 L 394.523438 161.40625 L 392.328125 159.304688 L 377.398438 174.90625 L 348.699219 147.4375 L 361.53125 134.03125 L 392.421875 163.601562 L 394.523438 161.40625 L 392.328125 159.304688 L 394.523438 161.40625"/></g><g><path fill="#4b1615" d="M 352.996094 155.757812 L 268.261719 244.296875 C 267.101562 245.511719 267.144531 247.4375 268.355469 248.597656 C 269.570312 249.757812 271.492188 249.714844 272.65625 248.503906 L 357.390625 159.964844 C 358.550781 158.75 358.507812 156.824219 357.296875 155.664062 C 356.082031 154.503906 354.160156 154.546875 352.996094 155.757812"/></g><g><path fill="#4b1615" d="M 364.503906 166.769531 L 279.765625 255.308594 C 278.605469 256.523438 278.648438 258.449219 279.859375 259.609375 C 281.074219 260.769531 283 260.726562 284.160156 259.515625 L 368.898438 170.976562 C 370.058594 169.761719 370.015625 167.839844 368.804688 166.675781 C 367.589844 165.515625 365.667969 165.558594 364.503906 166.769531"/></g><g><path fill="#ef2ea1" d="M 394.308594 161.632812 L 408.546875 146.757812 C 413.097656 142.007812 412.925781 134.472656 408.179688 129.933594 L 392.285156 114.71875 C 387.53125 110.175781 380.003906 110.339844 375.453125 115.085938 L 361.21875 129.964844 L 394.308594 161.632812"/></g><g><path fill="#4b1615" d="M 394.308594 161.632812 L 396.503906 163.734375 L 410.742188 148.859375 C 413.511719 145.972656 414.894531 142.234375 414.890625 138.53125 C 414.894531 134.605469 413.339844 130.660156 410.28125 127.734375 L 394.386719 112.523438 C 391.496094 109.757812 387.757812 108.371094 384.050781 108.375 C 380.128906 108.371094 376.1875 109.925781 373.257812 112.984375 L 359.023438 127.859375 C 357.863281 129.074219 357.902344 130.996094 359.117188 132.160156 L 392.207031 163.828125 C 393.417969 164.988281 395.34375 164.945312 396.503906 163.734375 L 394.308594 161.632812 L 396.410156 159.4375 L 365.519531 129.867188 L 377.648438 117.1875 C 379.398438 115.367188 381.707031 114.460938 384.050781 114.457031 C 386.265625 114.460938 388.453125 115.265625 390.1875 116.917969 L 390.183594 116.917969 L 406.078125 132.128906 C 407.898438 133.875 408.808594 136.1875 408.8125 138.53125 C 408.808594 140.742188 408 142.929688 406.351562 144.65625 L 392.113281 159.53125 L 394.308594 161.632812 L 396.410156 159.4375 L 394.308594 161.632812"/></g><g><path fill="#fab7a1" d="M 259.667969 236.070312 L 243.136719 286.84375 L 293.136719 268.105469 Z M 259.667969 236.070312"/></g><g><path fill="#4b1615" d="M 259.667969 236.070312 L 256.777344 235.128906 L 240.246094 285.902344 C 239.882812 287.011719 240.191406 288.238281 241.03125 289.042969 C 241.875 289.847656 243.113281 290.101562 244.203125 289.691406 L 294.203125 270.953125 C 295.183594 270.585938 295.902344 269.742188 296.113281 268.71875 C 296.324219 267.691406 295.996094 266.636719 295.238281 265.910156 L 261.769531 233.875 C 261.011719 233.148438 259.941406 232.867188 258.925781 233.121094 C 257.910156 233.378906 257.101562 234.132812 256.777344 235.128906 L 259.667969 236.070312 L 257.5625 238.265625 L 287.539062 266.957031 L 247.980469 281.78125 L 262.558594 237.011719 L 259.667969 236.070312 L 257.5625 238.265625 L 259.667969 236.070312"/></g><g><path fill="#4b1615" d="M 250.8125 263.269531 L 243.136719 286.84375 L 266.351562 278.144531 Z M 250.8125 263.269531"/></g><g><path fill="#ef2ea1" d="M 172.289062 207.957031 L 200.566406 207.957031 L 200.566406 317.542969 L 172.289062 317.542969 L 172.289062 207.957031"/></g><g><path fill="#4b1615" d="M 172.289062 207.957031 L 172.289062 210.046875 L 198.480469 210.046875 L 198.480469 315.453125 L 174.378906 315.453125 L 174.378906 207.957031 L 172.289062 207.957031 L 172.289062 210.046875 L 172.289062 207.957031 L 170.199219 207.957031 L 170.199219 317.542969 C 170.199219 318.09375 170.421875 318.632812 170.8125 319.019531 C 171.199219 319.410156 171.738281 319.632812 172.289062 319.632812 L 200.566406 319.632812 C 201.117188 319.632812 201.65625 319.410156 202.046875 319.019531 C 202.433594 318.628906 202.65625 318.09375 202.65625 317.542969 L 202.65625 207.957031 C 202.65625 207.40625 202.433594 206.867188 202.046875 206.480469 C 201.65625 206.089844 201.117188 205.867188 200.566406 205.867188 L 172.289062 205.867188 C 171.738281 205.867188 171.199219 206.089844 170.8125 206.480469 C 170.421875 206.867188 170.199219 207.40625 170.199219 207.957031 L 172.289062 207.957031"/></g><g><path fill="#ef2ea1" d="M 174.722656 330.886719 L 198.140625 330.886719 L 198.140625 317.542969 L 174.722656 317.542969 L 174.722656 330.886719"/></g><g><path fill="#4b1615" d="M 174.722656 330.886719 L 174.722656 332.976562 L 198.140625 332.976562 C 198.6875 332.976562 199.226562 332.753906 199.617188 332.363281 C 200.003906 331.976562 200.226562 331.4375 200.226562 330.886719 L 200.226562 317.542969 C 200.226562 316.992188 200.003906 316.453125 199.617188 316.0625 C 199.226562 315.675781 198.6875 315.453125 198.140625 315.453125 L 174.722656 315.453125 C 174.171875 315.453125 173.632812 315.675781 173.242188 316.0625 C 172.855469 316.453125 172.632812 316.992188 172.632812 317.542969 L 172.632812 330.886719 C 172.632812 331.4375 172.855469 331.976562 173.242188 332.363281 C 173.632812 332.753906 174.171875 332.976562 174.722656 332.976562 L 174.722656 330.886719 L 176.8125 330.886719 L 176.8125 319.632812 L 196.050781 319.632812 L 196.050781 328.796875 L 174.722656 328.796875 L 174.722656 330.886719 L 176.8125 330.886719 L 174.722656 330.886719"/></g><g><path fill="#ef2ea1" d="M 174.722656 207.957031 L 198.140625 207.957031 L 189.6875 183.9375 L 183.171875 183.9375 L 174.722656 207.957031"/></g><g><path fill="#4b1615" d="M 174.722656 207.957031 L 174.722656 210.046875 L 198.140625 210.046875 C 198.816406 210.046875 199.453125 209.71875 199.84375 209.164062 C 200.234375 208.609375 200.335938 207.902344 200.109375 207.261719 L 191.65625 183.246094 C 191.359375 182.40625 190.574219 181.847656 189.6875 181.847656 L 183.171875 181.847656 C 182.28125 181.847656 181.492188 182.40625 181.199219 183.246094 L 172.75 207.261719 C 172.523438 207.902344 172.625 208.613281 173.015625 209.164062 C 173.40625 209.71875 174.042969 210.046875 174.722656 210.046875 L 174.722656 207.957031 L 176.691406 208.648438 L 184.648438 186.027344 L 188.207031 186.027344 L 195.1875 205.867188 L 174.722656 205.867188 L 174.722656 207.957031 L 176.691406 208.648438 L 174.722656 207.957031"/></g><g><path fill="#bdbcbc" d="M 172.289062 224.496094 L 200.566406 224.496094 L 200.566406 301 L 172.289062 301 L 172.289062 224.496094"/></g><g><path fill="#4b1615" d="M 172.289062 224.496094 L 172.289062 226.585938 L 198.480469 226.585938 L 198.480469 298.910156 L 174.378906 298.910156 L 174.378906 224.496094 L 172.289062 224.496094 L 172.289062 226.585938 L 172.289062 224.496094 L 170.199219 224.496094 L 170.199219 301 C 170.199219 301.550781 170.421875 302.089844 170.8125 302.476562 C 171.199219 302.867188 171.738281 303.089844 172.289062 303.089844 L 200.566406 303.089844 C 201.117188 303.089844 201.65625 302.867188 202.046875 302.476562 C 202.433594 302.089844 202.65625 301.550781 202.65625 301 L 202.65625 224.496094 C 202.65625 223.945312 202.433594 223.410156 202.046875 223.019531 C 201.65625 222.632812 201.117188 222.40625 200.566406 222.40625 L 172.289062 222.40625 C 171.738281 222.40625 171.199219 222.632812 170.8125 223.019531 C 170.421875 223.410156 170.199219 223.945312 170.199219 224.496094 L 172.289062 224.496094"/></g><g><path fill="#fddd47" d="M 136.03125 207.957031 L 164.304688 207.957031 L 164.304688 317.542969 L 136.03125 317.542969 L 136.03125 207.957031"/></g><g><path fill="#4b1615" d="M 136.03125 207.957031 L 136.03125 210.046875 L 162.214844 210.046875 L 162.214844 315.453125 L 138.121094 315.453125 L 138.121094 207.957031 L 136.03125 207.957031 L 136.03125 210.046875 L 136.03125 207.957031 L 133.941406 207.957031 L 133.941406 317.542969 C 133.941406 318.09375 134.164062 318.632812 134.554688 319.019531 C 134.941406 319.410156 135.480469 319.632812 136.03125 319.632812 L 164.304688 319.632812 C 164.855469 319.632812 165.394531 319.410156 165.78125 319.019531 C 166.171875 318.628906 166.394531 318.09375 166.394531 317.542969 L 166.394531 207.957031 C 166.394531 207.40625 166.171875 206.867188 165.78125 206.480469 C 165.394531 206.089844 164.855469 205.867188 164.304688 205.867188 L 136.03125 205.867188 C 135.480469 205.867188 134.941406 206.089844 134.554688 206.480469 C 134.164062 206.867188 133.941406 207.40625 133.941406 207.957031 L 136.03125 207.957031"/></g><g><path fill="#fddd47" d="M 138.464844 330.886719 L 161.875 330.886719 L 161.875 317.542969 L 138.464844 317.542969 L 138.464844 330.886719"/></g><g><path fill="#4b1615" d="M 138.464844 330.886719 L 138.464844 332.976562 L 161.875 332.976562 C 162.425781 332.976562 162.964844 332.753906 163.351562 332.363281 C 163.742188 331.976562 163.964844 331.4375 163.964844 330.886719 L 163.964844 317.542969 C 163.964844 316.992188 163.742188 316.453125 163.351562 316.0625 C 162.964844 315.675781 162.425781 315.453125 161.875 315.453125 L 138.464844 315.453125 C 137.914062 315.453125 137.375 315.675781 136.984375 316.0625 C 136.597656 316.453125 136.371094 316.992188 136.371094 317.542969 L 136.371094 330.886719 C 136.371094 331.4375 136.597656 331.976562 136.984375 332.363281 C 137.375 332.753906 137.914062 332.976562 138.464844 332.976562 L 138.464844 330.886719 L 140.550781 330.886719 L 140.550781 319.632812 L 159.785156 319.632812 L 159.785156 328.796875 L 138.464844 328.796875 L 138.464844 330.886719 L 140.550781 330.886719 L 138.464844 330.886719"/></g><g><path fill="#fddd47" d="M 138.464844 207.957031 L 161.875 207.957031 L 153.425781 183.9375 L 146.910156 183.9375 L 138.464844 207.957031"/></g><g><path fill="#4b1615" d="M 138.464844 207.957031 L 138.464844 210.046875 L 161.875 210.046875 C 162.550781 210.046875 163.1875 209.71875 163.578125 209.164062 C 163.972656 208.609375 164.070312 207.902344 163.847656 207.261719 L 155.394531 183.246094 C 155.097656 182.40625 154.3125 181.847656 153.425781 181.847656 L 146.910156 181.847656 C 146.019531 181.847656 145.234375 182.40625 144.9375 183.246094 L 136.492188 207.261719 C 136.265625 207.902344 136.367188 208.613281 136.757812 209.164062 C 137.148438 209.71875 137.785156 210.046875 138.464844 210.046875 L 138.464844 207.957031 L 140.433594 208.648438 L 148.390625 186.027344 L 151.941406 186.027344 L 158.925781 205.867188 L 138.464844 205.867188 L 138.464844 207.957031 L 140.433594 208.648438 L 138.464844 207.957031"/></g><g><path fill="#bdbcbc" d="M 136.03125 224.496094 L 164.304688 224.496094 L 164.304688 301 L 136.03125 301 L 136.03125 224.496094"/></g><g><path fill="#4b1615" d="M 136.03125 224.496094 L 136.03125 226.585938 L 162.214844 226.585938 L 162.214844 298.910156 L 138.121094 298.910156 L 138.121094 224.496094 L 136.03125 224.496094 L 136.03125 226.585938 L 136.03125 224.496094 L 133.941406 224.496094 L 133.941406 301 C 133.941406 301.550781 134.164062 302.089844 134.554688 302.476562 C 134.941406 302.867188 135.480469 303.089844 136.03125 303.089844 L 164.304688 303.089844 C 164.855469 303.089844 165.394531 302.867188 165.78125 302.476562 C 166.171875 302.089844 166.394531 301.550781 166.394531 301 L 166.394531 224.496094 C 166.394531 223.945312 166.171875 223.410156 165.78125 223.019531 C 165.394531 222.632812 164.855469 222.40625 164.304688 222.40625 L 136.03125 222.40625 C 135.480469 222.40625 134.941406 222.632812 134.554688 223.019531 C 134.164062 223.410156 133.941406 223.945312 133.941406 224.496094 L 136.03125 224.496094"/></g><g><path fill="#4ac3d6" d="M 99.769531 207.957031 L 128.042969 207.957031 L 128.042969 317.542969 L 99.769531 317.542969 L 99.769531 207.957031"/></g><g><path fill="#4b1615" d="M 99.769531 207.957031 L 99.769531 210.046875 L 125.953125 210.046875 L 125.953125 315.453125 L 101.859375 315.453125 L 101.859375 207.957031 L 99.769531 207.957031 L 99.769531 210.046875 L 99.769531 207.957031 L 97.679688 207.957031 L 97.679688 317.542969 C 97.679688 318.09375 97.902344 318.632812 98.292969 319.019531 C 98.679688 319.410156 99.21875 319.632812 99.769531 319.632812 L 128.042969 319.632812 C 128.59375 319.632812 129.132812 319.410156 129.519531 319.019531 C 129.910156 318.628906 130.132812 318.09375 130.132812 317.542969 L 130.132812 207.957031 C 130.132812 207.40625 129.910156 206.867188 129.519531 206.480469 C 129.132812 206.089844 128.59375 205.867188 128.042969 205.867188 L 99.769531 205.867188 C 99.21875 205.867188 98.679688 206.089844 98.292969 206.480469 C 97.902344 206.867188 97.679688 207.40625 97.679688 207.957031 L 99.769531 207.957031"/></g><g><path fill="#4ac3d6" d="M 102.199219 330.886719 L 125.617188 330.886719 L 125.617188 317.542969 L 102.199219 317.542969 L 102.199219 330.886719"/></g><g><path fill="#4b1615" d="M 102.199219 330.886719 L 102.199219 332.976562 L 125.617188 332.976562 C 126.164062 332.976562 126.703125 332.753906 127.09375 332.363281 C 127.484375 331.976562 127.707031 331.4375 127.707031 330.886719 L 127.707031 317.542969 C 127.707031 316.992188 127.484375 316.453125 127.09375 316.0625 C 126.703125 315.675781 126.164062 315.453125 125.617188 315.453125 L 102.199219 315.453125 C 101.648438 315.453125 101.109375 315.675781 100.722656 316.0625 C 100.332031 316.453125 100.109375 316.992188 100.109375 317.542969 L 100.109375 330.886719 C 100.109375 331.4375 100.332031 331.976562 100.722656 332.363281 C 101.109375 332.753906 101.648438 332.976562 102.199219 332.976562 L 102.199219 330.886719 L 104.289062 330.886719 L 104.289062 319.632812 L 123.527344 319.632812 L 123.527344 328.796875 L 102.199219 328.796875 L 102.199219 330.886719 L 104.289062 330.886719 L 102.199219 330.886719"/></g><g><path fill="#4ac3d6" d="M 102.199219 207.957031 L 125.617188 207.957031 L 117.167969 183.9375 L 110.652344 183.9375 L 102.199219 207.957031"/></g><g><path fill="#4b1615" d="M 102.199219 207.957031 L 102.199219 210.046875 L 125.617188 210.046875 C 126.292969 210.046875 126.929688 209.71875 127.320312 209.164062 C 127.714844 208.609375 127.8125 207.902344 127.585938 207.261719 L 119.140625 183.246094 C 118.84375 182.40625 118.058594 181.847656 117.167969 181.847656 L 110.652344 181.847656 C 109.761719 181.847656 108.976562 182.40625 108.679688 183.246094 L 100.226562 207.261719 C 100.003906 207.902344 100.101562 208.609375 100.492188 209.164062 C 100.882812 209.71875 101.519531 210.046875 102.199219 210.046875 L 102.199219 207.957031 L 104.167969 208.648438 L 112.132812 186.027344 L 115.6875 186.027344 L 122.664062 205.867188 L 102.199219 205.867188 L 102.199219 207.957031 L 104.167969 208.648438 L 102.199219 207.957031"/></g><g><path fill="#bdbcbc" d="M 99.769531 224.496094 L 128.042969 224.496094 L 128.042969 301 L 99.769531 301 L 99.769531 224.496094"/></g><g><path fill="#4b1615" d="M 99.769531 224.496094 L 99.769531 226.585938 L 125.953125 226.585938 L 125.953125 298.910156 L 101.859375 298.910156 L 101.859375 224.496094 L 99.769531 224.496094 L 99.769531 226.585938 L 99.769531 224.496094 L 97.679688 224.496094 L 97.679688 301 C 97.679688 301.550781 97.902344 302.089844 98.292969 302.476562 C 98.679688 302.867188 99.21875 303.089844 99.769531 303.089844 L 128.042969 303.089844 C 128.59375 303.089844 129.132812 302.867188 129.519531 302.476562 C 129.910156 302.089844 130.132812 301.550781 130.132812 301 L 130.132812 224.496094 C 130.132812 223.945312 129.910156 223.410156 129.519531 223.019531 C 129.132812 222.632812 128.59375 222.40625 128.042969 222.40625 L 99.769531 222.40625 C 99.21875 222.40625 98.679688 222.632812 98.292969 223.019531 C 97.902344 223.410156 97.679688 223.945312 97.679688 224.496094 L 99.769531 224.496094"/></g><g><path fill="#64c9a7" d="M 63.511719 207.957031 L 91.785156 207.957031 L 91.785156 317.542969 L 63.511719 317.542969 L 63.511719 207.957031"/></g><g><path fill="#4b1615" d="M 63.511719 207.957031 L 63.511719 210.046875 L 89.695312 210.046875 L 89.695312 315.453125 L 65.597656 315.453125 L 65.601562 207.957031 L 63.511719 207.957031 L 63.511719 210.046875 L 63.511719 207.957031 L 61.421875 207.957031 L 61.421875 317.542969 C 61.421875 318.09375 61.644531 318.632812 62.03125 319.019531 C 62.421875 319.410156 62.960938 319.632812 63.511719 319.632812 L 91.785156 319.632812 C 92.335938 319.632812 92.875 319.410156 93.265625 319.019531 C 93.652344 318.628906 93.875 318.09375 93.875 317.542969 L 93.875 207.957031 C 93.875 207.40625 93.652344 206.867188 93.265625 206.480469 C 92.875 206.089844 92.335938 205.867188 91.785156 205.867188 L 63.511719 205.867188 C 62.960938 205.867188 62.421875 206.089844 62.03125 206.480469 C 61.644531 206.867188 61.421875 207.40625 61.421875 207.957031 L 63.511719 207.957031"/></g><g><path fill="#64c9a7" d="M 65.945312 330.886719 L 89.355469 330.886719 L 89.355469 317.542969 L 65.945312 317.542969 L 65.945312 330.886719"/></g><g><path fill="#4b1615" d="M 65.945312 330.886719 L 65.945312 332.976562 L 89.355469 332.976562 C 89.90625 332.976562 90.441406 332.753906 90.832031 332.363281 C 91.222656 331.976562 91.445312 331.4375 91.445312 330.886719 L 91.445312 317.542969 C 91.445312 316.992188 91.222656 316.453125 90.832031 316.0625 C 90.441406 315.675781 89.90625 315.453125 89.355469 315.453125 L 65.945312 315.453125 C 65.394531 315.453125 64.855469 315.675781 64.464844 316.0625 C 64.078125 316.453125 63.851562 316.992188 63.851562 317.542969 L 63.851562 330.886719 C 63.851562 331.4375 64.078125 331.976562 64.464844 332.363281 C 64.855469 332.753906 65.394531 332.976562 65.945312 332.976562 L 65.945312 330.886719 L 68.03125 330.886719 L 68.03125 319.632812 L 87.265625 319.632812 L 87.265625 328.796875 L 65.945312 328.796875 L 65.945312 330.886719 L 68.03125 330.886719 L 65.945312 330.886719"/></g><g><path fill="#64c9a7" d="M 65.945312 207.957031 L 89.355469 207.957031 L 80.90625 183.9375 L 74.390625 183.9375 L 65.945312 207.957031"/></g><g><path fill="#4b1615" d="M 65.945312 207.957031 L 65.945312 210.046875 L 89.355469 210.046875 C 90.03125 210.046875 90.667969 209.71875 91.058594 209.164062 C 91.453125 208.609375 91.550781 207.902344 91.324219 207.261719 L 82.878906 183.246094 C 82.582031 182.40625 81.796875 181.847656 80.90625 181.847656 L 74.390625 181.847656 C 73.5 181.847656 72.714844 182.40625 72.417969 183.246094 L 63.972656 207.261719 C 63.746094 207.902344 63.847656 208.613281 64.238281 209.164062 C 64.628906 209.71875 65.265625 210.046875 65.945312 210.046875 L 65.945312 207.957031 L 67.914062 208.648438 L 75.871094 186.027344 L 79.425781 186.027344 L 86.402344 205.867188 L 65.945312 205.867188 L 65.945312 207.957031 L 67.914062 208.648438 L 65.945312 207.957031"/></g><g><path fill="#bdbcbc" d="M 63.511719 224.496094 L 91.785156 224.496094 L 91.785156 301 L 63.511719 301 L 63.511719 224.496094"/></g><g><path fill="#4b1615" d="M 63.511719 224.496094 L 63.511719 226.585938 L 89.699219 226.585938 L 89.699219 298.910156 L 65.601562 298.910156 L 65.601562 224.496094 L 63.511719 224.496094 L 63.511719 226.585938 L 63.511719 224.496094 L 61.421875 224.496094 L 61.421875 301 C 61.421875 301.550781 61.644531 302.089844 62.03125 302.476562 C 62.421875 302.867188 62.960938 303.089844 63.511719 303.089844 L 91.785156 303.089844 C 92.335938 303.089844 92.875 302.867188 93.265625 302.476562 C 93.652344 302.089844 93.875 301.550781 93.875 301 L 93.875 224.496094 C 93.875 223.945312 93.652344 223.410156 93.265625 223.019531 C 92.875 222.632812 92.335938 222.40625 91.785156 222.40625 L 63.511719 222.40625 C 62.960938 222.40625 62.421875 222.632812 62.03125 223.019531 C 61.644531 223.410156 61.421875 223.945312 61.421875 224.496094 L 63.511719 224.496094"/></g></g></svg>