<?xml version="1.0" encoding="UTF-8" standalone="no"?><svg xmlns="http://www.w3.org/2000/svg" xmlns:xlink="http://www.w3.org/1999/xlink" contentScriptType="text/ecmascript" fill="#000000" width="430.5" zoomAndPan="magnify" contentStyleType="text/css" viewBox="0.0 0.0 430.5 278.6" height="278.6" preserveAspectRatio="xMidYMid meet" version="1"><defs><clipPath id="a"><path d="M 218 278 L 219 278 L 219 278.578125 L 218 278.578125 Z M 218 278"/></clipPath><clipPath id="b"><path d="M 0 84 L 430.460938 84 L 430.460938 221 L 0 221 Z M 0 84"/></clipPath></defs><g><g id="change1_2"><path d="M 132.46875 22.902344 C 132.527344 22.894531 132.566406 22.839844 132.5625 22.773438 C 132.554688 22.714844 132.503906 22.664062 132.441406 22.675781 C 132.371094 22.683594 132.328125 22.742188 132.335938 22.800781 C 132.34375 22.867188 132.402344 22.90625 132.46875 22.902344"/></g><g id="change1_3"><path d="M 146.246094 21.429688 C 146.257812 21.429688 146.269531 21.429688 146.28125 21.429688 C 146.417969 21.414062 146.519531 21.28125 146.503906 21.148438 C 146.488281 21.019531 146.375 20.921875 146.25 20.921875 C 146.238281 20.921875 146.230469 20.921875 146.222656 20.921875 C 146.152344 20.929688 146.09375 20.964844 146.050781 21.015625 C 146.007812 21.070312 145.992188 21.136719 146 21.207031 C 146.015625 21.335938 146.117188 21.429688 146.246094 21.429688"/></g><g id="change1_4"><path d="M 160.046875 20.125 C 160.066406 20.125 160.089844 20.121094 160.113281 20.121094 C 160.261719 20.101562 160.398438 20.03125 160.488281 19.914062 C 160.582031 19.796875 160.625 19.648438 160.605469 19.5 C 160.574219 19.214844 160.335938 19 160.050781 19 C 160.027344 19 160.003906 19.003906 159.984375 19.003906 C 159.675781 19.042969 159.453125 19.320312 159.488281 19.628906 C 159.519531 19.910156 159.761719 20.125 160.046875 20.125"/></g><g id="change1_5"><path d="M 173.847656 18.746094 C 173.878906 18.746094 173.90625 18.746094 173.9375 18.742188 C 174.375 18.691406 174.6875 18.296875 174.636719 17.859375 C 174.589844 17.460938 174.25 17.15625 173.84375 17.15625 C 173.8125 17.15625 173.78125 17.15625 173.753906 17.160156 C 173.320312 17.214844 173.007812 17.609375 173.058594 18.042969 C 173.105469 18.445312 173.445312 18.746094 173.847656 18.746094"/></g><g id="change1_6"><path d="M 187.644531 17.210938 C 187.675781 17.210938 187.710938 17.207031 187.746094 17.203125 C 188.222656 17.148438 188.566406 16.714844 188.511719 16.242188 C 188.457031 15.800781 188.089844 15.46875 187.648438 15.46875 C 187.613281 15.46875 187.578125 15.472656 187.542969 15.476562 C 187.3125 15.503906 187.105469 15.617188 186.960938 15.796875 C 186.816406 15.980469 186.753906 16.210938 186.777344 16.441406 C 186.828125 16.878906 187.203125 17.210938 187.644531 17.210938"/></g><g id="change1_7"><path d="M 201.445312 15.5625 C 201.476562 15.5625 201.507812 15.558594 201.542969 15.554688 C 201.996094 15.503906 202.324219 15.085938 202.273438 14.632812 C 202.226562 14.210938 201.871094 13.894531 201.445312 13.894531 C 201.414062 13.894531 201.382812 13.898438 201.34375 13.902344 C 201.125 13.925781 200.925781 14.035156 200.789062 14.210938 C 200.648438 14.386719 200.585938 14.605469 200.613281 14.828125 C 200.664062 15.246094 201.019531 15.5625 201.445312 15.5625"/></g><g id="change1_8"><path d="M 215.246094 13.792969 C 215.269531 13.792969 215.296875 13.789062 215.320312 13.789062 C 215.503906 13.765625 215.664062 13.675781 215.773438 13.535156 C 215.886719 13.394531 215.933594 13.21875 215.910156 13.039062 C 215.871094 12.691406 215.589844 12.4375 215.242188 12.4375 C 215.21875 12.4375 215.191406 12.4375 215.164062 12.441406 C 214.792969 12.484375 214.527344 12.824219 214.570312 13.195312 C 214.609375 13.535156 214.898438 13.792969 215.246094 13.792969"/></g><g id="change1_9"><path d="M 229.039062 11.875 C 229.054688 11.875 229.066406 11.871094 229.082031 11.871094 C 229.285156 11.847656 229.429688 11.664062 229.410156 11.460938 C 229.386719 11.277344 229.230469 11.136719 229.039062 11.136719 C 229.023438 11.136719 229.007812 11.136719 228.992188 11.140625 C 228.894531 11.148438 228.8125 11.195312 228.75 11.273438 C 228.691406 11.351562 228.664062 11.445312 228.675781 11.546875 C 228.695312 11.734375 228.851562 11.875 229.039062 11.875"/></g><g id="change1_10"><path d="M 242.867188 10.160156 C 243.019531 10.144531 243.125 10.007812 243.105469 9.863281 C 243.089844 9.714844 242.953125 9.605469 242.804688 9.621094 C 242.660156 9.640625 242.554688 9.773438 242.570312 9.921875 C 242.585938 10.070312 242.71875 10.179688 242.867188 10.160156"/></g><g id="change1_11"><path d="M 120.265625 38.492188 C 120.277344 38.492188 120.289062 38.492188 120.304688 38.488281 C 120.378906 38.480469 120.445312 38.441406 120.492188 38.382812 C 120.542969 38.316406 120.566406 38.242188 120.558594 38.164062 C 120.539062 38.019531 120.410156 37.902344 120.265625 37.902344 C 120.253906 37.902344 120.242188 37.90625 120.234375 37.90625 C 120.070312 37.925781 119.953125 38.066406 119.972656 38.230469 C 119.988281 38.378906 120.117188 38.492188 120.265625 38.492188"/></g><g id="change1_12"><path d="M 134.0625 37.453125 C 134.097656 37.453125 134.132812 37.453125 134.167969 37.449219 C 134.640625 37.394531 134.984375 36.960938 134.929688 36.484375 C 134.878906 36.042969 134.507812 35.710938 134.066406 35.710938 C 134.035156 35.710938 134 35.714844 133.964844 35.71875 C 133.734375 35.742188 133.527344 35.859375 133.382812 36.042969 C 133.234375 36.226562 133.171875 36.453125 133.195312 36.683594 C 133.25 37.121094 133.621094 37.453125 134.0625 37.453125"/></g><g id="change1_13"><path d="M 146.460938 35.136719 C 146.542969 35.84375 147.144531 36.378906 147.859375 36.378906 C 147.917969 36.378906 147.972656 36.378906 148.027344 36.371094 C 148.402344 36.328125 148.734375 36.140625 148.96875 35.847656 C 149.203125 35.550781 149.308594 35.183594 149.265625 34.808594 C 149.179688 34.097656 148.578125 33.5625 147.863281 33.5625 C 147.808594 33.5625 147.753906 33.566406 147.699219 33.574219 C 147.324219 33.617188 146.988281 33.804688 146.753906 34.097656 C 146.519531 34.394531 146.417969 34.761719 146.460938 35.136719"/></g><g id="change1_14"><path d="M 160.28125 32.269531 C 159.988281 32.640625 159.859375 33.097656 159.914062 33.5625 C 160.015625 34.449219 160.765625 35.117188 161.660156 35.117188 C 161.726562 35.117188 161.796875 35.113281 161.863281 35.105469 C 162.824219 34.992188 163.515625 34.117188 163.402344 33.15625 C 163.300781 32.269531 162.550781 31.605469 161.660156 31.605469 C 161.59375 31.605469 161.527344 31.609375 161.457031 31.617188 C 160.992188 31.671875 160.574219 31.902344 160.28125 32.269531"/></g><g id="change1_15"><path d="M 187.164062 30.378906 C 187.289062 31.441406 188.1875 32.242188 189.253906 32.242188 C 189.335938 32.242188 189.417969 32.238281 189.5 32.226562 C 190.058594 32.164062 190.558594 31.882812 190.90625 31.441406 C 191.253906 31 191.40625 30.449219 191.34375 29.890625 C 191.21875 28.832031 190.324219 28.03125 189.257812 28.03125 C 189.175781 28.03125 189.09375 28.035156 189.011719 28.046875 C 187.859375 28.179688 187.03125 29.226562 187.164062 30.378906"/></g><g id="change1_16"><path d="M 201.464844 27.269531 C 201.128906 27.695312 200.980469 28.222656 201.042969 28.757812 C 201.164062 29.78125 202.027344 30.554688 203.054688 30.554688 C 203.132812 30.554688 203.210938 30.550781 203.289062 30.539062 C 203.828125 30.476562 204.308594 30.210938 204.644531 29.785156 C 204.980469 29.359375 205.132812 28.828125 205.066406 28.289062 C 204.949219 27.269531 204.085938 26.5 203.0625 26.5 C 202.980469 26.5 202.902344 26.503906 202.820312 26.511719 C 202.28125 26.574219 201.800781 26.84375 201.464844 27.269531"/></g><g id="change1_17"><path d="M 214.992188 27.128906 C 215.105469 28.074219 215.90625 28.785156 216.855469 28.785156 C 216.929688 28.785156 217.003906 28.78125 217.074219 28.773438 C 218.097656 28.652344 218.832031 27.722656 218.714844 26.695312 C 218.601562 25.753906 217.804688 25.039062 216.859375 25.039062 C 216.785156 25.039062 216.710938 25.042969 216.640625 25.054688 C 215.613281 25.171875 214.875 26.105469 214.992188 27.128906"/></g><g id="change1_18"><path d="M 229.136719 25.476562 C 229.226562 26.246094 229.878906 26.828125 230.648438 26.828125 C 230.707031 26.828125 230.765625 26.824219 230.824219 26.820312 C 231.234375 26.773438 231.597656 26.570312 231.847656 26.25 C 232.101562 25.929688 232.214844 25.53125 232.167969 25.125 C 232.078125 24.355469 231.425781 23.773438 230.652344 23.773438 C 230.59375 23.773438 230.53125 23.777344 230.472656 23.785156 C 229.636719 23.882812 229.039062 24.640625 229.136719 25.476562"/></g><g id="change1_19"><path d="M 258.246094 22.601562 C 258.269531 22.601562 258.289062 22.597656 258.308594 22.597656 C 258.449219 22.578125 258.574219 22.511719 258.664062 22.398438 C 258.75 22.289062 258.785156 22.15625 258.769531 22.015625 C 258.738281 21.753906 258.515625 21.554688 258.25 21.554688 C 258.230469 21.554688 258.207031 21.558594 258.1875 21.558594 C 257.902344 21.59375 257.695312 21.851562 257.730469 22.140625 C 257.757812 22.402344 257.980469 22.601562 258.246094 22.601562"/></g><g id="change1_20"><path d="M 272.058594 20.617188 C 272.148438 20.609375 272.210938 20.535156 272.203125 20.445312 C 272.191406 20.363281 272.113281 20.304688 272.023438 20.3125 C 271.945312 20.324219 271.886719 20.398438 271.894531 20.480469 C 271.90625 20.566406 271.980469 20.628906 272.058594 20.617188"/></g><g id="change1_21"><path d="M 94.285156 55.257812 C 94.304688 55.253906 94.316406 55.234375 94.3125 55.214844 C 94.3125 55.195312 94.292969 55.175781 94.273438 55.179688 C 94.253906 55.179688 94.238281 55.203125 94.238281 55.226562 C 94.242188 55.246094 94.265625 55.257812 94.285156 55.257812"/></g><g id="change1_22"><path d="M 108.078125 54.128906 C 108.097656 54.128906 108.121094 54.125 108.140625 54.125 C 108.277344 54.105469 108.402344 54.039062 108.488281 53.929688 C 108.578125 53.820312 108.617188 53.683594 108.597656 53.542969 C 108.570312 53.28125 108.347656 53.082031 108.078125 53.082031 C 108.058594 53.082031 108.039062 53.082031 108.019531 53.085938 C 107.878906 53.101562 107.753906 53.171875 107.667969 53.28125 C 107.578125 53.390625 107.542969 53.527344 107.558594 53.664062 C 107.589844 53.929688 107.8125 54.128906 108.078125 54.128906"/></g><g id="change1_23"><path d="M 121.878906 53.285156 C 121.929688 53.285156 121.980469 53.285156 122.027344 53.277344 C 122.734375 53.195312 123.242188 52.550781 123.160156 51.84375 C 123.085938 51.191406 122.535156 50.699219 121.882812 50.699219 C 121.832031 50.699219 121.78125 50.703125 121.730469 50.710938 C 121.386719 50.75 121.074219 50.921875 120.859375 51.191406 C 120.648438 51.460938 120.550781 51.800781 120.589844 52.144531 C 120.667969 52.796875 121.222656 53.285156 121.878906 53.285156"/></g><g id="change1_24"><path d="M 134.144531 49.171875 C 133.824219 49.582031 133.679688 50.089844 133.738281 50.605469 C 133.855469 51.589844 134.6875 52.332031 135.675781 52.332031 C 135.75 52.332031 135.828125 52.328125 135.902344 52.316406 C 136.417969 52.257812 136.878906 52 137.203125 51.59375 C 137.527344 51.183594 137.671875 50.671875 137.609375 50.15625 C 137.496094 49.171875 136.664062 48.433594 135.679688 48.433594 C 135.605469 48.433594 135.527344 48.4375 135.453125 48.445312 C 134.933594 48.507812 134.46875 48.765625 134.144531 49.171875"/></g><g id="change1_25"><path d="M 147.003906 49.058594 C 147.148438 50.3125 148.210938 51.257812 149.472656 51.257812 C 149.570312 51.257812 149.667969 51.253906 149.765625 51.242188 C 150.425781 51.164062 151.015625 50.835938 151.425781 50.3125 C 151.839844 49.792969 152.023438 49.140625 151.945312 48.480469 C 151.800781 47.226562 150.738281 46.28125 149.480469 46.28125 C 149.382812 46.28125 149.285156 46.285156 149.1875 46.296875 C 147.824219 46.457031 146.84375 47.695312 147.003906 49.058594"/></g><g id="change1_26"><path d="M 162.9375 44.265625 C 162.164062 44.355469 161.472656 44.738281 160.988281 45.351562 C 160.507812 45.960938 160.292969 46.722656 160.382812 47.5 C 160.554688 48.964844 161.792969 50.070312 163.269531 50.070312 C 163.382812 50.070312 163.496094 50.0625 163.609375 50.050781 C 164.386719 49.960938 165.078125 49.574219 165.558594 48.964844 C 166.039062 48.355469 166.257812 47.59375 166.164062 46.820312 C 165.996094 45.351562 164.753906 44.246094 163.277344 44.246094 C 163.164062 44.246094 163.050781 44.25 162.9375 44.265625"/></g><g id="change1_27"><path d="M 190.484375 40.65625 C 188.679688 40.867188 187.386719 42.507812 187.59375 44.316406 C 187.789062 45.976562 189.195312 47.230469 190.867188 47.230469 C 190.992188 47.230469 191.121094 47.222656 191.25 47.210938 C 192.128906 47.105469 192.910156 46.667969 193.457031 45.980469 C 194.003906 45.289062 194.25 44.425781 194.144531 43.550781 C 193.953125 41.890625 192.542969 40.636719 190.871094 40.636719 C 190.742188 40.636719 190.609375 40.640625 190.484375 40.65625"/></g><g id="change1_28"><path d="M 204.296875 39.125 C 202.53125 39.332031 201.265625 40.933594 201.472656 42.699219 C 201.660156 44.320312 203.03125 45.539062 204.664062 45.542969 C 204.789062 45.542969 204.914062 45.535156 205.042969 45.519531 C 205.898438 45.421875 206.660156 44.992188 207.191406 44.320312 C 207.726562 43.644531 207.964844 42.804688 207.863281 41.949219 C 207.671875 40.324219 206.300781 39.101562 204.671875 39.101562 C 204.546875 39.101562 204.421875 39.109375 204.296875 39.125"/></g><g id="change1_29"><path d="M 258.660156 34.933594 C 258.410156 35.25 258.296875 35.648438 258.34375 36.054688 C 258.433594 36.820312 259.085938 37.398438 259.855469 37.398438 C 259.914062 37.398438 259.976562 37.398438 260.039062 37.390625 C 260.445312 37.34375 260.808594 37.140625 261.058594 36.820312 C 261.3125 36.5 261.425781 36.101562 261.375 35.699219 C 261.285156 34.929688 260.636719 34.351562 259.863281 34.351562 C 259.804688 34.351562 259.742188 34.355469 259.683594 34.363281 C 259.277344 34.410156 258.914062 34.613281 258.660156 34.933594"/></g><g id="change1_30"><path d="M 273.65625 35.054688 C 273.6875 35.054688 273.71875 35.054688 273.75 35.050781 C 273.964844 35.023438 274.152344 34.917969 274.285156 34.753906 C 274.414062 34.585938 274.472656 34.382812 274.449219 34.171875 C 274.398438 33.769531 274.0625 33.46875 273.660156 33.46875 C 273.628906 33.46875 273.597656 33.46875 273.566406 33.472656 C 273.355469 33.496094 273.167969 33.605469 273.035156 33.769531 C 272.90625 33.9375 272.847656 34.144531 272.871094 34.355469 C 272.917969 34.753906 273.257812 35.054688 273.65625 35.054688"/></g><g id="change1_31"><path d="M 287.496094 32.960938 C 287.664062 32.9375 287.78125 32.785156 287.765625 32.617188 C 287.742188 32.445312 287.589844 32.324219 287.425781 32.34375 C 287.257812 32.363281 287.132812 32.515625 287.152344 32.6875 C 287.171875 32.859375 287.328125 32.976562 287.496094 32.960938"/></g><g id="change1_32"><path d="M 95.886719 69.539062 C 95.910156 69.539062 95.929688 69.539062 95.953125 69.535156 C 96.09375 69.519531 96.21875 69.449219 96.304688 69.339844 C 96.390625 69.230469 96.429688 69.09375 96.414062 68.953125 C 96.382812 68.6875 96.160156 68.488281 95.894531 68.488281 C 95.875 68.488281 95.851562 68.492188 95.832031 68.492188 C 95.691406 68.507812 95.566406 68.578125 95.480469 68.6875 C 95.394531 68.796875 95.355469 68.933594 95.371094 69.074219 C 95.402344 69.339844 95.625 69.539062 95.886719 69.539062"/></g><g id="change1_33"><path d="M 108.253906 67.570312 C 108.339844 68.300781 108.957031 68.847656 109.6875 68.847656 C 109.746094 68.847656 109.804688 68.847656 109.859375 68.839844 C 110.652344 68.746094 111.21875 68.027344 111.128906 67.234375 C 111.039062 66.503906 110.425781 65.949219 109.691406 65.949219 C 109.636719 65.949219 109.578125 65.953125 109.523438 65.960938 C 108.730469 66.054688 108.160156 66.777344 108.253906 67.570312"/></g><g id="change1_34"><path d="M 121.71875 64.390625 C 121.347656 64.863281 121.179688 65.453125 121.25 66.050781 C 121.382812 67.191406 122.347656 68.050781 123.492188 68.050781 C 123.578125 68.050781 123.667969 68.042969 123.753906 68.035156 C 124.988281 67.886719 125.875 66.765625 125.730469 65.527344 C 125.597656 64.390625 124.636719 63.535156 123.496094 63.535156 C 123.410156 63.535156 123.320312 63.539062 123.230469 63.550781 C 122.632812 63.617188 122.09375 63.917969 121.71875 64.390625"/></g><g id="change1_35"><path d="M 259 49.960938 C 259.148438 51.214844 260.207031 52.160156 261.46875 52.160156 C 261.566406 52.160156 261.664062 52.15625 261.761719 52.144531 C 263.125 51.984375 264.109375 50.742188 263.949219 49.382812 C 263.804688 48.128906 262.742188 47.183594 261.480469 47.183594 C 261.382812 47.183594 261.28125 47.191406 261.183594 47.203125 C 259.820312 47.363281 258.84375 48.601562 259 49.960938"/></g><g id="change1_36"><path d="M 273.5625 48.257812 C 273.664062 49.125 274.398438 49.777344 275.269531 49.777344 C 275.335938 49.777344 275.402344 49.773438 275.46875 49.765625 C 276.414062 49.65625 277.089844 48.800781 276.980469 47.859375 C 276.878906 46.992188 276.144531 46.335938 275.273438 46.335938 C 275.203125 46.335938 275.136719 46.339844 275.066406 46.351562 C 274.132812 46.460938 273.457031 47.316406 273.5625 48.257812"/></g><g id="change1_37"><path d="M 289.074219 47.28125 C 289.105469 47.28125 289.136719 47.277344 289.171875 47.273438 C 289.621094 47.222656 289.949219 46.804688 289.894531 46.351562 C 289.847656 45.929688 289.492188 45.613281 289.074219 45.613281 C 289.039062 45.613281 289.007812 45.613281 288.976562 45.617188 C 288.519531 45.671875 288.191406 46.085938 288.242188 46.542969 C 288.289062 46.964844 288.648438 47.28125 289.074219 47.28125"/></g><g id="change1_38"><path d="M 302.894531 45.0625 C 303.019531 45.050781 303.117188 44.933594 303.105469 44.808594 C 303.089844 44.679688 302.96875 44.59375 302.84375 44.609375 C 302.71875 44.625 302.625 44.734375 302.640625 44.863281 C 302.65625 44.992188 302.769531 45.078125 302.894531 45.0625"/></g><g id="change1_39"><path d="M 109.535156 79.796875 C 109.160156 80.269531 108.992188 80.859375 109.0625 81.460938 C 109.195312 82.597656 110.15625 83.457031 111.300781 83.457031 C 111.390625 83.457031 111.476562 83.449219 111.566406 83.441406 C 112.800781 83.296875 113.6875 82.171875 113.542969 80.933594 C 113.410156 79.800781 112.449219 78.941406 111.308594 78.941406 C 111.222656 78.941406 111.132812 78.949219 111.042969 78.957031 C 110.441406 79.027344 109.90625 79.324219 109.535156 79.796875"/></g><g id="change1_40"><path d="M 124.742188 76.464844 C 123.902344 76.5625 123.15625 76.976562 122.632812 77.636719 C 122.113281 78.296875 121.878906 79.117188 121.976562 79.949219 C 122.160156 81.535156 123.503906 82.730469 125.101562 82.730469 C 125.222656 82.730469 125.347656 82.726562 125.472656 82.710938 C 126.300781 82.613281 127.046875 82.199219 127.566406 81.539062 C 128.085938 80.878906 128.320312 80.054688 128.222656 79.222656 C 128.035156 77.636719 126.695312 76.441406 125.109375 76.441406 C 124.984375 76.441406 124.863281 76.449219 124.742188 76.464844"/></g><g id="change1_41"><path d="M 289.054688 60.433594 C 289.152344 61.261719 289.851562 61.882812 290.683594 61.882812 C 290.746094 61.882812 290.808594 61.878906 290.875 61.871094 C 291.773438 61.765625 292.417969 60.949219 292.3125 60.054688 C 292.214844 59.226562 291.515625 58.601562 290.683594 58.601562 C 290.621094 58.601562 290.554688 58.605469 290.492188 58.613281 C 289.59375 58.71875 288.949219 59.535156 289.054688 60.433594"/></g><g id="change1_42"><path d="M 304.476562 59.269531 C 304.503906 59.269531 304.527344 59.269531 304.554688 59.265625 C 304.90625 59.226562 305.160156 58.90625 305.121094 58.5625 C 305.082031 58.238281 304.808594 57.992188 304.484375 57.992188 C 304.460938 57.992188 304.433594 57.992188 304.410156 57.996094 C 304.058594 58.039062 303.804688 58.355469 303.84375 58.703125 C 303.882812 59.027344 304.15625 59.269531 304.476562 59.269531"/></g><g id="change1_43"><path d="M 71.53125 99.941406 C 71.597656 99.933594 71.640625 99.882812 71.632812 99.816406 C 71.628906 99.753906 71.570312 99.710938 71.507812 99.71875 C 71.441406 99.726562 71.398438 99.777344 71.40625 99.839844 C 71.414062 99.910156 71.46875 99.949219 71.53125 99.941406"/></g><g id="change1_44"><path d="M 85.316406 97.347656 C 85.285156 97.347656 85.25 97.351562 85.214844 97.355469 C 84.984375 97.382812 84.78125 97.496094 84.632812 97.679688 C 84.488281 97.863281 84.425781 98.089844 84.453125 98.316406 C 84.503906 98.757812 84.875 99.089844 85.316406 99.089844 C 85.351562 99.089844 85.386719 99.089844 85.421875 99.085938 C 85.648438 99.058594 85.855469 98.941406 85.996094 98.761719 C 86.144531 98.578125 86.207031 98.347656 86.179688 98.113281 C 86.128906 97.679688 85.757812 97.347656 85.316406 97.347656"/></g><g id="change1_45"><path d="M 292.027344 71.761719 C 291.421875 71.828125 290.875 72.132812 290.492188 72.613281 C 290.113281 73.097656 289.945312 73.695312 290.015625 74.304688 C 290.148438 75.460938 291.128906 76.335938 292.289062 76.335938 L 292.292969 76.335938 C 292.382812 76.335938 292.472656 76.328125 292.558594 76.320312 C 293.167969 76.25 293.710938 75.945312 294.09375 75.464844 C 294.472656 74.984375 294.644531 74.382812 294.570312 73.769531 C 294.4375 72.617188 293.460938 71.742188 292.296875 71.742188 C 292.207031 71.742188 292.117188 71.75 292.027344 71.761719"/></g><g id="change1_46"><path d="M 304.84375 72.570312 C 304.917969 73.207031 305.453125 73.6875 306.09375 73.6875 C 306.140625 73.6875 306.191406 73.683594 306.238281 73.679688 C 306.925781 73.597656 307.417969 72.972656 307.339844 72.28125 C 307.265625 71.648438 306.730469 71.171875 306.097656 71.171875 C 306.050781 71.171875 306 71.175781 305.949219 71.183594 C 305.261719 71.261719 304.761719 71.886719 304.84375 72.570312"/></g><g id="change1_47"><path d="M 319.890625 70.957031 L 319.90625 70.957031 C 319.957031 70.949219 319.984375 70.921875 320 70.902344 C 320.015625 70.882812 320.03125 70.847656 320.027344 70.796875 C 320.019531 70.730469 319.960938 70.679688 319.898438 70.679688 C 319.890625 70.679688 319.886719 70.679688 319.871094 70.679688 C 319.828125 70.683594 319.800781 70.710938 319.785156 70.726562 C 319.773438 70.742188 319.753906 70.78125 319.757812 70.828125 C 319.765625 70.902344 319.824219 70.957031 319.890625 70.957031"/></g><g id="change1_48"><path d="M 73.136719 113.886719 C 73.148438 113.886719 73.15625 113.886719 73.164062 113.886719 C 73.300781 113.867188 73.402344 113.738281 73.386719 113.597656 C 73.371094 113.472656 73.261719 113.371094 73.132812 113.371094 C 73.125 113.371094 73.113281 113.371094 73.105469 113.375 C 72.960938 113.390625 72.859375 113.515625 72.878906 113.65625 C 72.894531 113.789062 73.003906 113.886719 73.136719 113.886719"/></g><g id="change1_49"><path d="M 85.824219 111.140625 C 85.589844 111.4375 85.484375 111.804688 85.527344 112.179688 C 85.609375 112.890625 86.214844 113.425781 86.929688 113.425781 C 86.984375 113.425781 87.039062 113.421875 87.09375 113.414062 C 87.46875 113.371094 87.804688 113.183594 88.035156 112.890625 C 88.269531 112.59375 88.375 112.222656 88.328125 111.851562 C 88.246094 111.140625 87.644531 110.605469 86.933594 110.605469 C 86.878906 110.605469 86.820312 110.609375 86.765625 110.617188 C 86.390625 110.660156 86.058594 110.847656 85.824219 111.140625"/></g><g id="change1_50"><path d="M 305.957031 86.425781 C 306.0625 87.3125 306.8125 87.980469 307.703125 87.980469 C 307.773438 87.980469 307.84375 87.976562 307.910156 87.96875 C 308.375 87.914062 308.792969 87.683594 309.085938 87.3125 C 309.375 86.945312 309.507812 86.484375 309.453125 86.019531 C 309.351562 85.136719 308.601562 84.46875 307.710938 84.46875 C 307.640625 84.46875 307.570312 84.472656 307.503906 84.480469 C 306.539062 84.59375 305.847656 85.46875 305.957031 86.425781"/></g><g id="change1_51"><path d="M 321.5 85.25 C 321.527344 85.25 321.554688 85.25 321.582031 85.246094 C 321.75 85.226562 321.898438 85.140625 322.007812 85.007812 C 322.113281 84.875 322.160156 84.707031 322.140625 84.535156 C 322.101562 84.214844 321.828125 83.972656 321.507812 83.972656 C 321.480469 83.972656 321.457031 83.976562 321.429688 83.976562 C 321.078125 84.019531 320.824219 84.335938 320.867188 84.683594 C 320.902344 85.007812 321.175781 85.25 321.5 85.25"/></g><g id="change1_52"><path d="M 74.742188 127.988281 C 74.765625 127.988281 74.789062 127.988281 74.808594 127.984375 C 74.960938 127.96875 75.09375 127.890625 75.1875 127.773438 C 75.277344 127.65625 75.320312 127.511719 75.300781 127.359375 C 75.269531 127.078125 75.03125 126.863281 74.75 126.863281 C 74.726562 126.863281 74.703125 126.863281 74.679688 126.867188 C 74.53125 126.886719 74.394531 126.960938 74.300781 127.078125 C 74.210938 127.195312 74.167969 127.34375 74.183594 127.492188 C 74.21875 127.773438 74.457031 127.988281 74.742188 127.988281"/></g><g id="change1_53"><path d="M 324.101562 98.296875 C 324.039062 97.800781 323.617188 97.421875 323.117188 97.421875 C 323.082031 97.421875 323.042969 97.425781 323.003906 97.429688 C 322.738281 97.460938 322.503906 97.59375 322.339844 97.804688 C 322.179688 98.011719 322.105469 98.265625 322.136719 98.527344 C 322.195312 99.023438 322.617188 99.394531 323.117188 99.394531 C 323.15625 99.394531 323.195312 99.394531 323.234375 99.390625 C 323.773438 99.328125 324.160156 98.835938 324.101562 98.296875"/></g><g id="change1_54"><path d="M 336.898438 96.6875 C 336.839844 96.695312 336.792969 96.746094 336.800781 96.8125 C 336.808594 96.875 336.867188 96.921875 336.925781 96.914062 C 336.992188 96.90625 337.035156 96.847656 337.03125 96.785156 C 337.019531 96.71875 336.96875 96.679688 336.898438 96.6875"/></g><g id="change1_55"><path d="M 77.140625 141.132812 C 77.09375 140.730469 76.761719 140.425781 76.359375 140.425781 C 76.332031 140.425781 76.296875 140.429688 76.265625 140.433594 C 76.050781 140.457031 75.863281 140.5625 75.730469 140.730469 C 75.601562 140.894531 75.542969 141.101562 75.570312 141.316406 C 75.613281 141.710938 75.949219 142.011719 76.351562 142.011719 C 76.382812 142.011719 76.414062 142.007812 76.453125 142.003906 C 76.660156 141.980469 76.847656 141.878906 76.976562 141.714844 C 77.109375 141.550781 77.167969 141.34375 77.140625 141.132812"/></g><g id="change1_56"><path d="M 310.925781 116.230469 C 311.019531 116.230469 311.117188 116.226562 311.210938 116.214844 C 311.851562 116.140625 312.421875 115.820312 312.820312 115.3125 C 313.222656 114.808594 313.402344 114.179688 313.328125 113.539062 C 313.183594 112.324219 312.152344 111.40625 310.929688 111.40625 C 310.835938 111.40625 310.742188 111.410156 310.648438 111.421875 C 309.328125 111.578125 308.382812 112.78125 308.535156 114.101562 C 308.675781 115.316406 309.703125 116.230469 310.925781 116.230469"/></g><g id="change1_57"><path d="M 324.730469 113.425781 C 324.777344 113.425781 324.824219 113.425781 324.871094 113.417969 C 325.191406 113.382812 325.480469 113.21875 325.683594 112.964844 C 325.882812 112.710938 325.972656 112.390625 325.9375 112.066406 C 325.863281 111.453125 325.34375 110.992188 324.730469 110.992188 C 324.683594 110.992188 324.636719 110.996094 324.585938 111.003906 C 324.261719 111.039062 323.976562 111.199219 323.773438 111.453125 C 323.570312 111.707031 323.480469 112.027344 323.519531 112.347656 C 323.59375 112.964844 324.113281 113.425781 324.730469 113.425781"/></g><g id="change1_58"><path d="M 338.488281 110.285156 C 338.324219 110.304688 338.199219 110.464844 338.222656 110.632812 C 338.242188 110.800781 338.394531 110.921875 338.5625 110.902344 C 338.726562 110.882812 338.859375 110.726562 338.835938 110.5625 C 338.820312 110.390625 338.660156 110.265625 338.488281 110.285156"/></g><g id="change1_59"><path d="M 78.832031 154.917969 C 78.78125 154.476562 78.40625 154.144531 77.964844 154.144531 C 77.933594 154.144531 77.902344 154.144531 77.871094 154.148438 C 77.394531 154.207031 77.050781 154.640625 77.105469 155.121094 C 77.15625 155.558594 77.527344 155.890625 77.972656 155.890625 C 78.007812 155.890625 78.039062 155.886719 78.070312 155.882812 C 78.542969 155.824219 78.886719 155.390625 78.832031 154.917969"/></g><g id="change1_60"><path d="M 91.761719 155.511719 C 91.84375 155.511719 91.929688 155.507812 92.011719 155.496094 C 93.164062 155.359375 93.992188 154.3125 93.859375 153.164062 C 93.734375 152.101562 92.835938 151.300781 91.769531 151.300781 C 91.6875 151.300781 91.605469 151.308594 91.523438 151.316406 C 90.964844 151.382812 90.464844 151.660156 90.113281 152.101562 C 89.765625 152.542969 89.609375 153.09375 89.675781 153.652344 C 89.800781 154.710938 90.695312 155.511719 91.761719 155.511719"/></g><g id="change1_61"><path d="M 105.554688 155.09375 C 105.6875 155.09375 105.816406 155.085938 105.949219 155.070312 C 106.824219 154.96875 107.605469 154.53125 108.152344 153.839844 C 108.699219 153.148438 108.945312 152.285156 108.84375 151.410156 C 108.648438 149.75 107.242188 148.496094 105.570312 148.496094 C 105.441406 148.496094 105.308594 148.503906 105.183594 148.519531 C 103.371094 148.730469 102.074219 150.371094 102.285156 152.175781 C 102.476562 153.839844 103.886719 155.09375 105.554688 155.09375"/></g><g id="change1_62"><path d="M 312.539062 130.101562 C 312.636719 130.101562 312.734375 130.097656 312.832031 130.085938 C 313.492188 130.007812 314.085938 129.679688 314.496094 129.15625 C 314.90625 128.636719 315.09375 127.988281 315.015625 127.328125 C 314.871094 126.074219 313.808594 125.128906 312.546875 125.128906 C 312.449219 125.128906 312.351562 125.136719 312.253906 125.144531 C 310.890625 125.304688 309.910156 126.542969 310.070312 127.902344 C 310.214844 129.15625 311.277344 130.101562 312.539062 130.101562"/></g><g id="change1_63"><path d="M 326.34375 124.710938 C 326.292969 124.710938 326.242188 124.714844 326.191406 124.71875 C 325.480469 124.804688 324.96875 125.445312 325.054688 126.152344 C 325.128906 126.804688 325.679688 127.296875 326.335938 127.296875 C 326.386719 127.296875 326.4375 127.296875 326.492188 127.289062 C 326.835938 127.25 327.140625 127.078125 327.355469 126.808594 C 327.570312 126.539062 327.664062 126.199219 327.625 125.855469 C 327.546875 125.203125 326.996094 124.710938 326.34375 124.710938"/></g><g id="change1_64"><path d="M 340.128906 124.289062 C 340.09375 124.292969 340.070312 124.3125 340.0625 124.324219 C 340.054688 124.339844 340.039062 124.363281 340.042969 124.40625 C 340.050781 124.464844 340.097656 124.496094 340.140625 124.496094 L 340.148438 124.496094 C 340.183594 124.492188 340.207031 124.472656 340.21875 124.457031 C 340.230469 124.441406 340.242188 124.417969 340.238281 124.382812 C 340.230469 124.328125 340.1875 124.289062 340.128906 124.289062"/></g><g id="change1_65"><path d="M 79.582031 167.980469 C 79.550781 167.980469 79.519531 167.984375 79.488281 167.984375 C 79.027344 168.039062 78.699219 168.457031 78.75 168.910156 C 78.800781 169.328125 79.152344 169.644531 79.566406 169.644531 C 79.601562 169.644531 79.636719 169.644531 79.679688 169.636719 C 79.898438 169.613281 80.09375 169.507812 80.230469 169.335938 C 80.367188 169.160156 80.429688 168.941406 80.402344 168.71875 C 80.355469 168.296875 80 167.980469 79.582031 167.980469"/></g><g id="change1_66"><path d="M 91.789062 165.945312 C 91.453125 166.371094 91.300781 166.902344 91.363281 167.4375 C 91.484375 168.460938 92.347656 169.230469 93.371094 169.230469 C 93.453125 169.230469 93.535156 169.222656 93.613281 169.214844 C 94.722656 169.085938 95.519531 168.078125 95.390625 166.96875 C 95.269531 165.949219 94.410156 165.179688 93.382812 165.179688 C 93.304688 165.179688 93.226562 165.183594 93.144531 165.191406 C 92.605469 165.253906 92.125 165.523438 91.789062 165.945312"/></g><g id="change1_67"><path d="M 311.71875 141.695312 C 311.863281 142.929688 312.910156 143.863281 314.148438 143.863281 C 314.242188 143.863281 314.339844 143.855469 314.4375 143.84375 C 315.089844 143.769531 315.675781 143.441406 316.082031 142.925781 C 316.484375 142.414062 316.664062 141.773438 316.589844 141.125 C 316.445312 139.890625 315.402344 138.960938 314.15625 138.960938 C 314.0625 138.960938 313.964844 138.964844 313.867188 138.976562 C 312.527344 139.132812 311.566406 140.355469 311.71875 141.695312"/></g><g id="change1_68"><path d="M 326.964844 139.023438 C 326.761719 139.285156 326.671875 139.613281 326.710938 139.945312 C 326.78125 140.574219 327.3125 141.054688 327.945312 141.054688 C 327.996094 141.054688 328.046875 141.050781 328.097656 141.042969 C 328.785156 140.964844 329.28125 140.339844 329.203125 139.652344 C 329.128906 139.019531 328.59375 138.542969 327.953125 138.542969 C 327.90625 138.542969 327.859375 138.546875 327.808594 138.550781 C 327.472656 138.59375 327.175781 138.761719 326.964844 139.023438"/></g><g id="change1_69"><path d="M 341.710938 137.847656 C 341.519531 137.867188 341.386719 138.042969 341.410156 138.226562 C 341.433594 138.417969 341.597656 138.558594 341.789062 138.535156 C 341.984375 138.515625 342.117188 138.339844 342.09375 138.148438 C 342.074219 137.960938 341.898438 137.824219 341.710938 137.847656"/></g><g id="change1_70"><path d="M 81.191406 181.933594 C 81.164062 181.933594 81.140625 181.933594 81.117188 181.9375 C 80.742188 181.984375 80.472656 182.320312 80.515625 182.6875 C 80.558594 183.03125 80.84375 183.285156 81.195312 183.285156 C 81.222656 183.285156 81.25 183.28125 81.273438 183.28125 C 81.453125 183.261719 81.613281 183.171875 81.722656 183.027344 C 81.835938 182.886719 81.886719 182.710938 81.863281 182.53125 C 81.828125 182.195312 81.53125 181.933594 81.191406 181.933594"/></g><g id="change1_71"><path d="M 96.847656 180.78125 C 96.738281 179.835938 95.941406 179.125 95 179.125 C 94.925781 179.125 94.847656 179.132812 94.773438 179.140625 C 94.277344 179.195312 93.835938 179.445312 93.523438 179.835938 C 93.214844 180.226562 93.074219 180.71875 93.132812 181.214844 C 93.242188 182.160156 94.039062 182.871094 94.988281 182.871094 C 95.0625 182.871094 95.136719 182.867188 95.207031 182.859375 C 96.230469 182.738281 96.96875 181.808594 96.847656 180.78125"/></g><g id="change1_72"><path d="M 315.769531 157.472656 C 315.855469 157.472656 315.945312 157.46875 316.03125 157.457031 C 317.265625 157.3125 318.152344 156.1875 318.007812 154.945312 C 317.875 153.808594 316.914062 152.949219 315.773438 152.949219 C 315.683594 152.949219 315.59375 152.953125 315.507812 152.964844 C 314.90625 153.035156 314.371094 153.332031 314 153.804688 C 313.625 154.277344 313.460938 154.867188 313.53125 155.46875 C 313.660156 156.609375 314.621094 157.472656 315.769531 157.472656"/></g><g id="change1_73"><path d="M 328.734375 152.933594 C 328.558594 153.15625 328.476562 153.4375 328.511719 153.714844 C 328.574219 154.253906 329.027344 154.660156 329.566406 154.660156 C 329.605469 154.660156 329.648438 154.660156 329.691406 154.65625 C 329.976562 154.621094 330.226562 154.480469 330.40625 154.257812 C 330.582031 154.035156 330.660156 153.753906 330.625 153.472656 C 330.5625 152.9375 330.105469 152.53125 329.570312 152.53125 C 329.527344 152.53125 329.484375 152.535156 329.441406 152.539062 C 329.160156 152.570312 328.910156 152.710938 328.734375 152.933594"/></g><g id="change1_74"><path d="M 343.554688 151.960938 C 343.539062 151.855469 343.449219 151.777344 343.335938 151.792969 C 343.234375 151.804688 343.160156 151.902344 343.171875 152.007812 C 343.183594 152.113281 343.277344 152.1875 343.382812 152.175781 C 343.492188 152.164062 343.566406 152.066406 343.554688 151.960938"/></g><g id="change1_75"><path d="M 82.808594 196.039062 C 82.792969 196.039062 82.78125 196.039062 82.761719 196.039062 C 82.664062 196.050781 82.574219 196.101562 82.511719 196.179688 C 82.449219 196.257812 82.421875 196.355469 82.433594 196.449219 C 82.457031 196.636719 82.617188 196.777344 82.808594 196.777344 C 82.824219 196.777344 82.835938 196.777344 82.851562 196.777344 C 82.945312 196.765625 83.03125 196.71875 83.09375 196.640625 C 83.15625 196.5625 83.183594 196.464844 83.171875 196.363281 C 83.152344 196.179688 82.992188 196.039062 82.808594 196.039062"/></g><g id="change1_76"><path d="M 98.117188 194.617188 C 98.027344 193.851562 97.378906 193.273438 96.605469 193.273438 C 96.542969 193.273438 96.484375 193.277344 96.425781 193.285156 C 95.589844 193.382812 94.988281 194.140625 95.089844 194.972656 C 95.175781 195.742188 95.828125 196.324219 96.601562 196.324219 C 96.664062 196.324219 96.722656 196.320312 96.78125 196.3125 C 97.617188 196.214844 98.214844 195.453125 98.117188 194.617188"/></g><g id="change1_77"><path d="M 110.394531 195.824219 C 110.5 195.824219 110.605469 195.820312 110.707031 195.808594 C 111.410156 195.726562 112.035156 195.375 112.472656 194.824219 C 112.914062 194.269531 113.109375 193.578125 113.027344 192.875 C 112.871094 191.542969 111.746094 190.539062 110.410156 190.539062 C 110.304688 190.539062 110.199219 190.546875 110.09375 190.558594 C 109.394531 190.640625 108.765625 190.992188 108.328125 191.546875 C 107.886719 192.101562 107.691406 192.789062 107.773438 193.488281 C 107.929688 194.820312 109.058594 195.824219 110.394531 195.824219"/></g><g id="change1_78"><path d="M 249.28125 69.265625 C 249.445312 69.265625 249.609375 69.253906 249.773438 69.234375 C 249.847656 69.226562 249.917969 69.21875 249.988281 69.203125 L 246.1875 71.183594 L 246.066406 67.757812 C 246.839844 68.683594 247.996094 69.265625 249.28125 69.265625 Z M 317.734375 167.128906 L 304.214844 159.390625 C 305.03125 158.671875 305.492188 157.578125 305.359375 156.425781 C 305.160156 154.703125 303.703125 153.40625 301.976562 153.40625 C 301.839844 153.40625 301.703125 153.414062 301.570312 153.433594 C 300.664062 153.539062 299.851562 153.992188 299.285156 154.707031 C 298.941406 155.144531 298.714844 155.648438 298.613281 156.183594 L 289.878906 151.179688 L 298.085938 145.875 C 298.710938 146.371094 299.496094 146.667969 300.351562 146.667969 C 300.492188 146.667969 300.636719 146.660156 300.777344 146.644531 C 302.773438 146.410156 304.207031 144.59375 303.976562 142.597656 C 303.957031 142.4375 303.929688 142.277344 303.886719 142.125 L 313.3125 136.03125 L 301.722656 131.398438 C 302.269531 130.644531 302.511719 129.726562 302.402344 128.796875 C 302.1875 126.941406 300.617188 125.542969 298.75 125.542969 C 298.605469 125.542969 298.460938 125.550781 298.316406 125.570312 C 296.609375 125.769531 295.308594 127.113281 295.089844 128.742188 L 287.023438 125.515625 L 295.015625 118.304688 C 295.609375 118.742188 296.34375 119 297.132812 119 C 297.269531 119 297.410156 118.992188 297.546875 118.976562 C 299.496094 118.746094 300.902344 116.96875 300.679688 115.019531 C 300.617188 114.511719 300.453125 114.035156 300.207031 113.621094 L 327.285156 89.191406 L 295.050781 90.472656 C 296.179688 89.980469 296.910156 88.789062 296.761719 87.503906 C 296.589844 86.054688 295.367188 84.964844 293.914062 84.964844 C 293.804688 84.964844 293.6875 84.96875 293.574219 84.984375 C 292.003906 85.164062 290.871094 86.597656 291.050781 88.167969 C 291.183594 89.292969 291.953125 90.207031 292.972656 90.558594 L 283.734375 90.925781 C 283.976562 90.332031 284.078125 89.671875 284 88.992188 C 283.769531 87.019531 282.097656 85.535156 280.113281 85.535156 C 279.960938 85.535156 279.804688 85.542969 279.648438 85.5625 C 277.507812 85.8125 275.96875 87.757812 276.21875 89.898438 C 276.273438 90.367188 276.410156 90.808594 276.613281 91.207031 L 272.113281 91.386719 L 276.121094 77.945312 C 276.722656 78.570312 277.566406 78.953125 278.488281 78.953125 C 278.617188 78.953125 278.746094 78.945312 278.875 78.929688 C 280.683594 78.71875 281.984375 77.074219 281.773438 75.265625 C 281.578125 73.605469 280.171875 72.351562 278.503906 72.351562 C 278.371094 72.351562 278.242188 72.359375 278.109375 72.375 C 277.992188 72.390625 277.878906 72.410156 277.765625 72.4375 L 284.003906 51.511719 L 265.554688 61.109375 C 264.929688 60.457031 264.054688 60.054688 263.089844 60.054688 C 262.957031 60.054688 262.820312 60.0625 262.6875 60.078125 C 260.820312 60.296875 259.480469 61.992188 259.695312 63.863281 C 259.707031 63.953125 259.722656 64.042969 259.738281 64.132812 L 252.257812 68.027344 C 253.121094 67.152344 253.597656 65.90625 253.445312 64.59375 C 253.199219 62.484375 251.414062 60.894531 249.296875 60.894531 C 249.132812 60.894531 248.964844 60.90625 248.800781 60.925781 C 247.691406 61.054688 246.699219 61.609375 246.003906 62.484375 C 245.964844 62.535156 245.925781 62.585938 245.890625 62.636719 L 245.578125 53.675781 C 246.140625 54.167969 246.875 54.464844 247.671875 54.464844 C 247.796875 54.464844 247.921875 54.457031 248.042969 54.441406 C 248.886719 54.34375 249.644531 53.921875 250.171875 53.257812 C 250.699219 52.589844 250.933594 51.757812 250.835938 50.914062 C 250.648438 49.308594 249.292969 48.101562 247.679688 48.101562 C 247.554688 48.101562 247.429688 48.109375 247.304688 48.121094 C 246.578125 48.207031 245.921875 48.527344 245.417969 49.039062 L 245.082031 39.390625 C 245.378906 39.542969 245.710938 39.628906 246.058594 39.628906 C 246.144531 39.628906 246.226562 39.621094 246.308594 39.613281 C 247.480469 39.476562 248.324219 38.410156 248.1875 37.238281 C 248.0625 36.160156 247.148438 35.34375 246.0625 35.34375 C 245.980469 35.34375 245.894531 35.347656 245.8125 35.359375 C 245.496094 35.394531 245.207031 35.5 244.953125 35.65625 L 244.574219 24.746094 C 245.152344 24.679688 245.570312 24.148438 245.503906 23.566406 C 245.445312 23.046875 245.015625 22.652344 244.5 22.628906 L 244.164062 13.015625 L 221.085938 39.191406 C 220.5625 38.28125 219.578125 37.683594 218.472656 37.683594 C 218.355469 37.683594 218.234375 37.6875 218.117188 37.703125 C 217.3125 37.796875 216.59375 38.195312 216.089844 38.832031 C 215.589844 39.464844 215.363281 40.257812 215.457031 41.0625 C 215.589844 42.175781 216.3125 43.085938 217.289062 43.5 L 209.136719 52.75 C 208.363281 52.09375 207.363281 51.699219 206.285156 51.699219 C 206.113281 51.699219 205.9375 51.710938 205.769531 51.730469 C 204.597656 51.867188 203.550781 52.453125 202.816406 53.378906 C 202.085938 54.304688 201.757812 55.460938 201.894531 56.628906 C 202.019531 57.71875 202.539062 58.675781 203.296875 59.371094 L 200.476562 62.570312 L 196.949219 58.242188 C 196.988281 57.90625 196.988281 57.558594 196.949219 57.210938 C 196.699219 55.082031 194.988281 53.445312 192.886719 53.261719 L 176.652344 33.339844 C 176.785156 33.238281 176.910156 33.121094 177.015625 32.984375 C 177.347656 32.566406 177.492188 32.046875 177.429688 31.515625 C 177.3125 30.515625 176.46875 29.761719 175.464844 29.761719 C 175.386719 29.761719 175.308594 29.765625 175.230469 29.773438 C 174.699219 29.835938 174.226562 30.101562 173.898438 30.515625 C 173.566406 30.933594 173.421875 31.453125 173.480469 31.980469 C 173.542969 32.488281 173.789062 32.933594 174.152344 33.25 L 167.292969 57.722656 C 166.617188 57.21875 165.785156 56.921875 164.890625 56.921875 C 164.730469 56.921875 164.574219 56.933594 164.417969 56.949219 C 163.347656 57.074219 162.394531 57.605469 161.726562 58.453125 C 161.058594 59.296875 160.757812 60.351562 160.882812 61.421875 C 161.121094 63.453125 162.839844 64.984375 164.882812 64.984375 C 165.007812 64.984375 165.136719 64.976562 165.261719 64.964844 L 163.753906 70.351562 C 163.621094 70.433594 163.492188 70.519531 163.367188 70.617188 L 153.453125 65.230469 C 154.292969 64.480469 154.765625 63.351562 154.628906 62.152344 C 154.417969 60.355469 152.898438 59 151.09375 59 C 150.953125 59 150.8125 59.007812 150.675781 59.023438 C 149.726562 59.132812 148.878906 59.605469 148.289062 60.351562 C 147.898438 60.847656 147.648438 61.421875 147.558594 62.027344 L 125.945312 50.285156 L 129.371094 87.144531 L 74.113281 76.085938 L 99.535156 108.21875 C 98.671875 108.691406 98.136719 109.65625 98.257812 110.691406 C 98.402344 111.945312 99.464844 112.890625 100.722656 112.894531 C 100.820312 112.894531 100.921875 112.886719 101.019531 112.875 C 101.644531 112.800781 102.1875 112.5 102.578125 112.0625 L 109.117188 120.328125 L 104.25 122.007812 C 103.738281 121.558594 103.070312 121.289062 102.347656 121.289062 C 102.230469 121.289062 102.117188 121.296875 102.003906 121.3125 C 101.226562 121.402344 100.535156 121.785156 100.054688 122.394531 C 99.761719 122.769531 99.566406 123.199219 99.476562 123.652344 L 89.863281 126.964844 C 89.882812 126.945312 89.902344 126.925781 89.921875 126.902344 C 90.214844 126.535156 90.34375 126.074219 90.289062 125.609375 C 90.1875 124.722656 89.4375 124.054688 88.542969 124.054688 C 88.476562 124.054688 88.40625 124.058594 88.339844 124.066406 C 87.375 124.179688 86.683594 125.054688 86.796875 126.019531 C 86.886719 126.789062 87.46875 127.394531 88.207031 127.535156 L 71.136719 133.421875 L 88.648438 140.90625 C 89.011719 141.335938 89.554688 141.601562 90.15625 141.601562 C 90.195312 141.601562 90.230469 141.601562 90.269531 141.597656 L 111.378906 150.621094 L 89.964844 174.785156 L 107.671875 176.566406 C 106.429688 177.0625 105.617188 178.347656 105.78125 179.738281 C 105.960938 181.265625 107.253906 182.414062 108.785156 182.414062 C 108.902344 182.414062 109.023438 182.410156 109.140625 182.394531 C 109.945312 182.304688 110.660156 181.902344 111.164062 181.269531 C 111.664062 180.632812 111.890625 179.839844 111.796875 179.035156 C 111.6875 178.109375 111.171875 177.324219 110.441406 176.847656 L 118.402344 177.648438 C 118.398438 177.851562 118.40625 178.054688 118.429688 178.257812 C 118.597656 179.699219 119.488281 180.898438 120.707031 181.515625 L 99.515625 221.96875 C 99.480469 221.996094 99.445312 222.027344 99.417969 222.0625 C 99.347656 222.148438 99.3125 222.257812 99.308594 222.367188 L 97.125 226.535156 L 112.105469 220.703125 C 112.101562 220.785156 112.101562 220.871094 112.113281 220.957031 C 112.203125 221.726562 112.855469 222.304688 113.628906 222.304688 C 113.6875 222.304688 113.746094 222.300781 113.800781 222.292969 C 114.636719 222.191406 115.238281 221.433594 115.140625 220.601562 C 115.097656 220.246094 114.9375 219.933594 114.695312 219.695312 L 144.8125 207.972656 L 144.492188 216.582031 C 144.070312 215.15625 142.761719 214.140625 141.234375 214.140625 C 141.101562 214.140625 140.964844 214.148438 140.832031 214.164062 C 138.960938 214.382812 137.617188 216.082031 137.835938 217.953125 C 138.035156 219.671875 139.488281 220.96875 141.21875 220.96875 C 141.351562 220.96875 141.488281 220.957031 141.621094 220.941406 C 142.527344 220.839844 143.335938 220.390625 143.898438 219.675781 C 144.117188 219.398438 144.289062 219.09375 144.414062 218.773438 L 144.03125 229.125 C 143.675781 228.933594 143.269531 228.824219 142.839844 228.824219 C 142.742188 228.824219 142.644531 228.832031 142.546875 228.84375 C 141.15625 229.007812 140.15625 230.261719 140.320312 231.644531 C 140.46875 232.917969 141.546875 233.878906 142.828125 233.878906 C 142.929688 233.878906 143.03125 233.871094 143.132812 233.859375 C 143.800781 233.78125 144.398438 233.449219 144.816406 232.921875 C 145.238281 232.390625 145.425781 231.730469 145.347656 231.058594 C 145.339844 231.019531 145.332031 230.980469 145.324219 230.941406 L 165.363281 219.835938 L 168.800781 264.214844 L 172.921875 257.316406 C 173.144531 257.417969 173.394531 257.476562 173.652344 257.476562 C 173.722656 257.476562 173.792969 257.472656 173.863281 257.464844 C 174.328125 257.410156 174.742188 257.179688 175.03125 256.8125 C 175.324219 256.445312 175.453125 255.984375 175.398438 255.519531 C 175.34375 255.023438 175.085938 254.601562 174.714844 254.320312 L 182.636719 241.066406 C 182.980469 242.539062 184.300781 243.613281 185.84375 243.613281 C 185.972656 243.613281 186.101562 243.605469 186.226562 243.589844 C 188.03125 243.378906 189.332031 241.734375 189.121094 239.929688 C 188.925781 238.269531 187.523438 237.015625 185.851562 237.015625 C 185.722656 237.015625 185.589844 237.023438 185.460938 237.039062 C 185.300781 237.058594 185.140625 237.085938 184.988281 237.128906 L 192.785156 224.078125 L 193.269531 224.863281 C 193.269531 225.058594 193.277344 225.257812 193.300781 225.457031 C 193.492188 227.109375 194.515625 228.480469 195.921875 229.175781 L 199.585938 235.136719 C 199.464844 235.136719 199.347656 235.144531 199.226562 235.15625 C 197.273438 235.386719 195.867188 237.160156 196.097656 239.113281 C 196.308594 240.914062 197.828125 242.269531 199.640625 242.269531 C 199.777344 242.269531 199.917969 242.261719 200.054688 242.246094 C 201.265625 242.105469 202.265625 241.363281 202.796875 240.355469 L 206.042969 245.636719 L 210.082031 238.601562 C 210.664062 239.894531 211.957031 240.773438 213.441406 240.773438 C 213.582031 240.773438 213.726562 240.765625 213.867188 240.75 C 215.882812 240.511719 217.335938 238.675781 217.097656 236.660156 C 216.882812 234.804688 215.308594 233.40625 213.445312 233.40625 C 213.316406 233.40625 213.183594 233.414062 213.054688 233.425781 L 218.035156 224.75 L 224.582031 232.984375 C 224.511719 233.058594 224.445312 233.136719 224.378906 233.214844 C 223.773438 233.980469 223.503906 234.933594 223.617188 235.902344 C 223.832031 237.738281 225.386719 239.121094 227.234375 239.121094 C 227.378906 239.121094 227.519531 239.113281 227.660156 239.097656 C 228.167969 239.039062 228.644531 238.878906 229.070312 238.628906 L 242.453125 255.46875 L 242.886719 249.90625 C 242.894531 249.90625 242.902344 249.90625 242.910156 249.902344 C 244.148438 249.757812 245.039062 248.636719 244.894531 247.402344 C 244.78125 246.460938 244.105469 245.714844 243.230469 245.480469 L 244.003906 235.546875 C 244.351562 234.9375 244.515625 234.21875 244.429688 233.46875 C 244.394531 233.183594 244.328125 232.910156 244.230469 232.652344 L 245.449219 216.96875 L 249.441406 220.050781 C 249.992188 221.371094 251.207031 222.324219 252.644531 222.527344 L 273.03125 238.277344 L 269.875 203.539062 C 269.878906 203.511719 269.882812 203.484375 269.882812 203.457031 L 276.535156 203.972656 C 277.210938 204.679688 278.15625 205.113281 279.195312 205.113281 C 279.339844 205.113281 279.484375 205.105469 279.632812 205.085938 C 280.304688 205.011719 280.929688 204.753906 281.453125 204.351562 L 301.5625 205.910156 L 282.453125 180.121094 L 335.402344 177.242188 L 318.8125 167.746094 C 318.535156 167.429688 318.160156 167.210938 317.734375 167.128906"/></g><g id="change1_79"><path d="M 330.429688 167.480469 C 330.472656 167.859375 330.796875 168.148438 331.179688 168.148438 C 331.210938 168.148438 331.238281 168.148438 331.265625 168.144531 C 331.464844 168.121094 331.644531 168.023438 331.769531 167.863281 C 331.894531 167.707031 331.949219 167.507812 331.925781 167.300781 C 331.882812 166.921875 331.558594 166.636719 331.179688 166.636719 C 331.148438 166.636719 331.117188 166.640625 331.085938 166.644531 C 330.890625 166.664062 330.714844 166.761719 330.589844 166.921875 C 330.460938 167.082031 330.402344 167.28125 330.429688 167.480469"/></g><g id="change1_80"><path d="M 84.386719 209.9375 C 84.230469 209.957031 84.128906 210.09375 84.148438 210.238281 C 84.164062 210.382812 84.296875 210.496094 84.449219 210.476562 C 84.589844 210.457031 84.707031 210.320312 84.6875 210.175781 C 84.667969 210.027344 84.527344 209.921875 84.386719 209.9375"/></g><g id="change1_81"><path d="M 97.378906 207.933594 C 97.203125 208.160156 97.121094 208.4375 97.15625 208.71875 C 97.21875 209.253906 97.671875 209.65625 98.214844 209.65625 C 98.253906 209.65625 98.296875 209.652344 98.339844 209.648438 C 98.621094 209.617188 98.875 209.476562 99.050781 209.25 C 99.226562 209.027344 99.304688 208.75 99.273438 208.46875 C 99.210938 207.933594 98.753906 207.527344 98.214844 207.527344 C 98.171875 207.527344 98.132812 207.53125 98.089844 207.535156 C 97.808594 207.566406 97.554688 207.710938 97.378906 207.933594"/></g><g id="change1_82"><path d="M 291.398438 182.5 C 291.261719 182.5 291.117188 182.507812 290.980469 182.523438 C 289.050781 182.75 287.664062 184.503906 287.890625 186.433594 C 288.097656 188.214844 289.601562 189.558594 291.390625 189.558594 C 291.527344 189.558594 291.664062 189.550781 291.800781 189.535156 C 293.730469 189.304688 295.125 187.546875 294.90625 185.617188 C 294.695312 183.839844 293.1875 182.5 291.398438 182.5"/></g><g id="change1_83"><path d="M 305.191406 186.902344 C 305.285156 186.902344 305.382812 186.898438 305.480469 186.886719 C 306.144531 186.808594 306.734375 186.480469 307.148438 185.957031 C 307.558594 185.4375 307.742188 184.785156 307.664062 184.125 C 307.519531 182.871094 306.457031 181.925781 305.195312 181.925781 C 305.097656 181.925781 305 181.933594 304.902344 181.941406 C 303.539062 182.101562 302.5625 183.339844 302.722656 184.703125 C 302.867188 185.957031 303.929688 186.902344 305.191406 186.902344"/></g><g id="change1_84"><path d="M 320.132812 183.703125 C 320.371094 183.398438 320.480469 183.019531 320.433594 182.632812 C 320.347656 181.902344 319.726562 181.351562 318.992188 181.351562 C 318.9375 181.351562 318.878906 181.355469 318.824219 181.359375 C 318.027344 181.453125 317.457031 182.175781 317.546875 182.972656 C 317.636719 183.703125 318.253906 184.253906 318.988281 184.253906 C 319.046875 184.253906 319.101562 184.25 319.160156 184.242188 C 319.546875 184.199219 319.890625 184.007812 320.132812 183.703125"/></g><g id="change1_85"><path d="M 332.792969 180.859375 C 332.777344 180.859375 332.765625 180.859375 332.75 180.859375 C 332.570312 180.882812 332.433594 181.050781 332.453125 181.230469 C 332.476562 181.394531 332.625 181.527344 332.789062 181.527344 C 332.804688 181.527344 332.816406 181.523438 332.828125 181.523438 C 332.914062 181.515625 332.996094 181.46875 333.050781 181.398438 C 333.105469 181.328125 333.132812 181.238281 333.121094 181.148438 C 333.101562 180.984375 332.957031 180.859375 332.792969 180.859375"/></g><g id="change1_86"><path d="M 127.714844 221.636719 C 128.375 221.558594 128.964844 221.230469 129.378906 220.707031 C 129.789062 220.1875 129.972656 219.539062 129.894531 218.882812 C 129.746094 217.625 128.6875 216.679688 127.433594 216.679688 C 127.335938 216.679688 127.234375 216.683594 127.140625 216.695312 C 126.476562 216.773438 125.882812 217.101562 125.46875 217.625 C 125.058594 218.144531 124.871094 218.796875 124.949219 219.457031 C 125.097656 220.710938 126.15625 221.65625 127.414062 221.65625 C 127.515625 221.65625 127.613281 221.648438 127.714844 221.636719"/></g><g id="change1_87"><path d="M 308.660156 197.996094 C 308.546875 197.050781 307.75 196.335938 306.804688 196.335938 C 306.734375 196.335938 306.660156 196.34375 306.589844 196.351562 C 306.09375 196.40625 305.648438 196.65625 305.339844 197.050781 C 305.027344 197.441406 304.886719 197.933594 304.945312 198.429688 C 305.054688 199.375 305.855469 200.085938 306.804688 200.085938 C 306.875 200.085938 306.949219 200.082031 307.023438 200.074219 C 308.046875 199.953125 308.78125 199.019531 308.660156 197.996094"/></g><g id="change1_88"><path d="M 320.605469 195.769531 C 320.574219 195.769531 320.539062 195.773438 320.503906 195.777344 C 320.285156 195.800781 320.085938 195.910156 319.949219 196.082031 C 319.8125 196.257812 319.753906 196.472656 319.78125 196.695312 C 319.828125 197.117188 320.179688 197.429688 320.597656 197.429688 C 320.632812 197.429688 320.664062 197.429688 320.699219 197.425781 C 321.15625 197.371094 321.480469 196.957031 321.429688 196.507812 C 321.378906 196.085938 321.023438 195.769531 320.605469 195.769531"/></g><g id="change1_89"><path d="M 334.390625 194.875 C 334.328125 194.878906 334.28125 194.933594 334.289062 195 C 334.296875 195.066406 334.355469 195.105469 334.414062 195.101562 C 334.480469 195.09375 334.523438 195.039062 334.515625 194.976562 C 334.507812 194.910156 334.449219 194.867188 334.390625 194.875"/></g><g id="change1_90"><path d="M 101.421875 236.03125 C 101.335938 236.042969 101.277344 236.121094 101.285156 236.207031 C 101.296875 236.285156 101.371094 236.351562 101.457031 236.34375 C 101.539062 236.328125 101.601562 236.253906 101.589844 236.167969 C 101.578125 236.089844 101.503906 236.023438 101.421875 236.03125"/></g><g id="change1_91"><path d="M 115.234375 233.78125 C 115.203125 233.78125 115.175781 233.78125 115.148438 233.785156 C 114.710938 233.839844 114.398438 234.234375 114.445312 234.671875 C 114.492188 235.070312 114.832031 235.371094 115.234375 235.371094 C 115.265625 235.371094 115.296875 235.367188 115.328125 235.363281 C 115.761719 235.3125 116.078125 234.914062 116.027344 234.484375 C 115.980469 234.082031 115.640625 233.78125 115.234375 233.78125"/></g><g id="change1_92"><path d="M 130.382812 234.035156 C 130.667969 233.675781 130.796875 233.222656 130.742188 232.765625 C 130.640625 231.898438 129.910156 231.246094 129.046875 231.246094 C 128.980469 231.246094 128.910156 231.25 128.839844 231.257812 C 128.382812 231.3125 127.972656 231.539062 127.6875 231.898438 C 127.402344 232.257812 127.277344 232.707031 127.328125 233.164062 C 127.429688 234.03125 128.164062 234.683594 129.035156 234.683594 C 129.105469 234.683594 129.171875 234.679688 129.238281 234.675781 C 129.691406 234.621094 130.097656 234.394531 130.382812 234.035156"/></g><g id="change1_93"><path d="M 156.632812 233.039062 C 156.761719 233.039062 156.890625 233.03125 157.015625 233.015625 C 158.824219 232.804688 160.121094 231.160156 159.910156 229.355469 C 159.714844 227.695312 158.308594 226.4375 156.640625 226.4375 C 156.511719 226.4375 156.382812 226.445312 156.253906 226.460938 C 155.378906 226.5625 154.59375 227 154.046875 227.691406 C 153.5 228.382812 153.253906 229.246094 153.359375 230.121094 C 153.550781 231.785156 154.960938 233.039062 156.632812 233.039062"/></g><g id="change1_94"><path d="M 280.816406 218.027344 C 280.925781 218.027344 281.035156 218.019531 281.144531 218.007812 C 282.675781 217.828125 283.777344 216.4375 283.601562 214.910156 C 283.433594 213.5 282.242188 212.4375 280.828125 212.4375 C 280.71875 212.4375 280.605469 212.441406 280.492188 212.457031 C 279.753906 212.542969 279.089844 212.914062 278.625 213.496094 C 278.164062 214.082031 277.957031 214.8125 278.042969 215.554688 C 278.207031 216.964844 279.398438 218.027344 280.816406 218.027344"/></g><g id="change1_95"><path d="M 296.179688 214.851562 C 296.507812 214.4375 296.65625 213.917969 296.59375 213.390625 C 296.476562 212.386719 295.628906 211.632812 294.617188 211.632812 C 294.539062 211.632812 294.460938 211.636719 294.382812 211.644531 C 293.859375 211.703125 293.390625 211.96875 293.0625 212.382812 C 292.730469 212.800781 292.585938 213.324219 292.648438 213.851562 C 292.765625 214.855469 293.609375 215.609375 294.613281 215.609375 C 294.691406 215.609375 294.769531 215.605469 294.847656 215.597656 C 295.375 215.535156 295.851562 215.269531 296.179688 214.851562"/></g><g id="change1_96"><path d="M 308.421875 210.910156 C 308.378906 210.910156 308.335938 210.910156 308.292969 210.917969 C 307.6875 210.988281 307.253906 211.535156 307.320312 212.132812 C 307.386719 212.691406 307.855469 213.109375 308.414062 213.109375 C 308.457031 213.109375 308.503906 213.109375 308.546875 213.101562 C 309.148438 213.03125 309.585938 212.484375 309.519531 211.882812 C 309.449219 211.328125 308.980469 210.910156 308.421875 210.910156"/></g><g id="change1_97"><path d="M 322.21875 210.253906 C 322.210938 210.253906 322.203125 210.257812 322.195312 210.257812 C 322.148438 210.261719 322.121094 210.289062 322.109375 210.304688 C 322.09375 210.324219 322.074219 210.359375 322.078125 210.417969 C 322.089844 210.484375 322.144531 210.535156 322.214844 210.535156 C 322.222656 210.535156 322.226562 210.535156 322.234375 210.535156 C 322.28125 210.527344 322.3125 210.5 322.324219 210.484375 C 322.339844 210.46875 322.359375 210.429688 322.355469 210.386719 C 322.347656 210.3125 322.285156 210.253906 322.21875 210.253906"/></g><g id="change1_98"><path d="M 116.8125 248.066406 C 116.644531 248.082031 116.519531 248.238281 116.539062 248.40625 C 116.558594 248.574219 116.71875 248.699219 116.886719 248.683594 C 117.054688 248.664062 117.175781 248.507812 117.15625 248.335938 C 117.136719 248.167969 116.980469 248.042969 116.8125 248.066406"/></g><g id="change1_99"><path d="M 130.644531 245.925781 C 130.613281 245.925781 130.582031 245.925781 130.554688 245.929688 C 130.097656 245.984375 129.769531 246.402344 129.820312 246.855469 C 129.871094 247.277344 130.230469 247.59375 130.652344 247.59375 C 130.683594 247.59375 130.71875 247.59375 130.75 247.589844 C 130.96875 247.566406 131.160156 247.457031 131.300781 247.285156 C 131.4375 247.109375 131.5 246.886719 131.476562 246.664062 C 131.425781 246.242188 131.070312 245.925781 130.644531 245.925781"/></g><g id="change1_100"><path d="M 145.730469 246.175781 C 146.003906 245.828125 146.128906 245.394531 146.074219 244.957031 C 145.980469 244.132812 145.28125 243.507812 144.453125 243.507812 C 144.390625 243.507812 144.324219 243.511719 144.261719 243.519531 C 143.824219 243.570312 143.433594 243.789062 143.160156 244.132812 C 142.886719 244.476562 142.765625 244.902344 142.816406 245.335938 C 142.914062 246.164062 143.613281 246.789062 144.445312 246.789062 C 144.511719 246.789062 144.578125 246.785156 144.644531 246.777344 C 145.074219 246.730469 145.460938 246.515625 145.730469 246.175781"/></g><g id="change1_101"><path d="M 160.527344 243.269531 C 160.390625 242.113281 159.410156 241.238281 158.253906 241.238281 C 158.160156 241.238281 158.070312 241.246094 157.980469 241.257812 C 156.722656 241.40625 155.816406 242.546875 155.964844 243.800781 C 156.097656 244.960938 157.078125 245.835938 158.242188 245.835938 C 158.332031 245.835938 158.425781 245.828125 158.515625 245.820312 C 159.769531 245.675781 160.671875 244.527344 160.527344 243.269531"/></g><g id="change1_102"><path d="M 254.832031 235.285156 C 254.949219 235.285156 255.066406 235.277344 255.183594 235.261719 C 256.84375 235.066406 258.035156 233.558594 257.84375 231.898438 C 257.664062 230.371094 256.371094 229.222656 254.832031 229.222656 C 254.714844 229.222656 254.597656 229.226562 254.480469 229.242188 C 252.824219 229.433594 251.636719 230.941406 251.828125 232.601562 C 252.007812 234.132812 253.296875 235.285156 254.832031 235.285156"/></g><g id="change1_103"><path d="M 284.289062 228.8125 C 284.179688 227.867188 283.382812 227.160156 282.429688 227.160156 C 282.359375 227.160156 282.285156 227.164062 282.210938 227.171875 C 281.714844 227.230469 281.273438 227.476562 280.960938 227.871094 C 280.648438 228.265625 280.511719 228.75 280.566406 229.246094 C 280.675781 230.1875 281.476562 230.898438 282.425781 230.898438 C 282.5 230.898438 282.574219 230.894531 282.644531 230.886719 C 283.671875 230.765625 284.410156 229.835938 284.289062 228.8125"/></g><g id="change1_104"><path d="M 296.230469 226.316406 C 296.1875 226.316406 296.144531 226.320312 296.097656 226.324219 C 295.808594 226.359375 295.546875 226.507812 295.363281 226.738281 C 295.183594 226.96875 295.101562 227.253906 295.136719 227.542969 C 295.199219 228.101562 295.667969 228.519531 296.226562 228.519531 C 296.269531 228.519531 296.3125 228.515625 296.355469 228.511719 C 296.648438 228.476562 296.910156 228.328125 297.09375 228.101562 C 297.273438 227.871094 297.355469 227.582031 297.320312 227.292969 C 297.257812 226.738281 296.789062 226.316406 296.230469 226.316406"/></g><g id="change1_105"><path d="M 310.027344 225.511719 C 310.015625 225.511719 310.003906 225.511719 309.996094 225.511719 C 309.914062 225.519531 309.84375 225.558594 309.796875 225.621094 C 309.746094 225.683594 309.726562 225.761719 309.734375 225.839844 C 309.753906 225.984375 309.878906 226.097656 310.027344 226.097656 C 310.039062 226.097656 310.050781 226.097656 310.066406 226.097656 C 310.140625 226.089844 310.210938 226.050781 310.257812 225.988281 C 310.308594 225.925781 310.332031 225.847656 310.324219 225.769531 C 310.304688 225.621094 310.179688 225.511719 310.027344 225.511719"/></g><g id="change1_106"><path d="M 132.238281 260.324219 C 132.105469 260.34375 132.015625 260.460938 132.027344 260.582031 C 132.042969 260.710938 132.15625 260.800781 132.289062 260.785156 C 132.417969 260.773438 132.507812 260.65625 132.492188 260.535156 C 132.476562 260.40625 132.363281 260.3125 132.238281 260.324219"/></g><g id="change1_107"><path d="M 146.0625 258.304688 C 146.035156 258.304688 146.011719 258.304688 145.988281 258.308594 C 145.816406 258.328125 145.660156 258.414062 145.554688 258.546875 C 145.449219 258.683594 145.402344 258.851562 145.421875 259.023438 C 145.460938 259.347656 145.726562 259.582031 146.058594 259.582031 C 146.085938 259.582031 146.113281 259.582031 146.132812 259.578125 C 146.480469 259.535156 146.734375 259.21875 146.695312 258.875 C 146.65625 258.546875 146.386719 258.304688 146.0625 258.304688"/></g><g id="change1_108"><path d="M 159.859375 256.078125 C 159.8125 256.078125 159.761719 256.082031 159.714844 256.085938 C 159.023438 256.167969 158.527344 256.792969 158.609375 257.480469 C 158.683594 258.113281 159.21875 258.589844 159.855469 258.589844 C 159.90625 258.589844 159.957031 258.585938 160.003906 258.578125 C 160.691406 258.496094 161.183594 257.875 161.105469 257.191406 C 161.03125 256.554688 160.492188 256.078125 159.859375 256.078125"/></g><g id="change1_109"><path d="M 189.582031 253.859375 C 189.457031 252.78125 188.546875 251.96875 187.460938 251.96875 C 187.375 251.96875 187.289062 251.972656 187.210938 251.984375 C 186.03125 252.121094 185.1875 253.1875 185.324219 254.359375 C 185.449219 255.441406 186.367188 256.253906 187.460938 256.253906 C 187.539062 256.253906 187.625 256.25 187.707031 256.242188 C 188.878906 256.101562 189.71875 255.035156 189.582031 253.859375"/></g><g id="change1_110"><path d="M 203.144531 253.996094 C 203.546875 253.492188 203.726562 252.859375 203.648438 252.21875 C 203.507812 251.003906 202.480469 250.085938 201.261719 250.085938 C 201.164062 250.085938 201.070312 250.09375 200.972656 250.101562 C 200.335938 250.175781 199.765625 250.492188 199.367188 250.996094 C 198.964844 251.503906 198.785156 252.136719 198.859375 252.777344 C 199 253.992188 200.027344 254.910156 201.246094 254.910156 L 201.25 254.910156 C 201.34375 254.910156 201.4375 254.902344 201.53125 254.894531 C 202.171875 254.820312 202.746094 254.5 203.144531 253.996094"/></g><g id="change1_111"><path d="M 217.519531 250.597656 C 217.371094 249.34375 216.3125 248.402344 215.054688 248.402344 C 214.957031 248.402344 214.855469 248.40625 214.761719 248.417969 C 213.402344 248.574219 212.425781 249.8125 212.578125 251.175781 C 212.726562 252.429688 213.789062 253.375 215.054688 253.375 C 215.148438 253.375 215.246094 253.371094 215.339844 253.359375 C 216.699219 253.199219 217.675781 251.960938 217.519531 250.597656"/></g><g id="change1_112"><path d="M 231.285156 248.988281 C 231.144531 247.753906 230.101562 246.824219 228.855469 246.824219 C 228.761719 246.824219 228.664062 246.828125 228.566406 246.839844 C 227.226562 246.996094 226.257812 248.214844 226.410156 249.558594 C 226.558594 250.792969 227.605469 251.726562 228.851562 251.726562 C 228.945312 251.726562 229.039062 251.71875 229.132812 251.710938 C 230.480469 251.550781 231.445312 250.328125 231.285156 248.988281"/></g><g id="change1_113"><path d="M 257.949219 247.230469 C 258.265625 246.832031 258.40625 246.335938 258.347656 245.828125 C 258.230469 244.863281 257.414062 244.136719 256.449219 244.136719 C 256.375 244.136719 256.300781 244.140625 256.226562 244.148438 C 255.179688 244.273438 254.425781 245.226562 254.546875 246.273438 C 254.660156 247.234375 255.472656 247.957031 256.4375 247.957031 C 256.511719 247.957031 256.589844 247.953125 256.667969 247.945312 C 257.179688 247.882812 257.632812 247.632812 257.949219 247.230469"/></g><g id="change1_114"><path d="M 271.679688 244.269531 C 271.597656 243.539062 270.980469 242.992188 270.253906 242.992188 C 270.195312 242.992188 270.136719 242.992188 270.078125 243 C 269.285156 243.089844 268.714844 243.8125 268.804688 244.605469 C 268.890625 245.335938 269.507812 245.886719 270.242188 245.886719 C 270.296875 245.886719 270.355469 245.882812 270.410156 245.875 C 270.796875 245.832031 271.140625 245.640625 271.378906 245.335938 C 271.617188 245.035156 271.726562 244.65625 271.679688 244.269531"/></g><g id="change1_115"><path d="M 284.039062 241.992188 C 284.007812 241.992188 283.976562 241.992188 283.945312 241.996094 C 283.492188 242.050781 283.164062 242.464844 283.21875 242.925781 C 283.269531 243.34375 283.621094 243.65625 284.039062 243.65625 C 284.074219 243.65625 284.105469 243.65625 284.136719 243.652344 C 284.59375 243.597656 284.921875 243.183594 284.867188 242.730469 C 284.820312 242.308594 284.464844 241.992188 284.039062 241.992188"/></g><g id="change1_116"><path d="M 297.847656 241.078125 C 297.839844 241.078125 297.832031 241.078125 297.820312 241.078125 C 297.777344 241.082031 297.753906 241.105469 297.738281 241.125 C 297.722656 241.144531 297.699219 241.179688 297.707031 241.222656 C 297.714844 241.300781 297.773438 241.355469 297.84375 241.355469 L 297.859375 241.355469 C 297.90625 241.347656 297.933594 241.324219 297.949219 241.304688 C 297.964844 241.285156 297.984375 241.25 297.980469 241.199219 C 297.972656 241.128906 297.914062 241.078125 297.847656 241.078125"/></g><g id="change1_117"><path d="M 161.476562 270.992188 C 161.472656 270.992188 161.464844 270.992188 161.453125 270.996094 C 161.402344 271 161.375 271.027344 161.359375 271.046875 C 161.34375 271.066406 161.324219 271.101562 161.328125 271.144531 C 161.339844 271.21875 161.402344 271.273438 161.480469 271.273438 L 161.484375 271.273438 C 161.558594 271.265625 161.617188 271.191406 161.605469 271.113281 C 161.601562 271.046875 161.542969 270.992188 161.476562 270.992188"/></g><g id="change1_118"><path d="M 175.273438 268.875 C 175.246094 268.875 175.222656 268.878906 175.195312 268.882812 C 175.023438 268.902344 174.871094 268.988281 174.765625 269.121094 C 174.65625 269.257812 174.609375 269.425781 174.628906 269.59375 C 174.667969 269.914062 174.941406 270.160156 175.269531 270.160156 C 175.292969 270.160156 175.320312 270.15625 175.34375 270.15625 C 175.691406 270.113281 175.945312 269.796875 175.902344 269.445312 C 175.867188 269.121094 175.59375 268.875 175.273438 268.875"/></g><g id="change1_119"><path d="M 189.070312 266.921875 C 189.03125 266.921875 188.992188 266.925781 188.953125 266.929688 C 188.410156 266.992188 188.023438 267.480469 188.085938 268.019531 C 188.144531 268.519531 188.566406 268.894531 189.066406 268.894531 C 189.105469 268.894531 189.144531 268.894531 189.183594 268.886719 C 189.722656 268.824219 190.105469 268.332031 190.042969 267.792969 C 189.984375 267.296875 189.566406 266.921875 189.070312 266.921875"/></g><g id="change1_120"><path d="M 202.867188 265.078125 C 202.820312 265.078125 202.773438 265.078125 202.726562 265.085938 C 202.398438 265.125 202.109375 265.285156 201.90625 265.542969 C 201.707031 265.796875 201.613281 266.113281 201.652344 266.433594 C 201.726562 267.050781 202.246094 267.515625 202.863281 267.515625 C 202.910156 267.515625 202.960938 267.511719 203.007812 267.503906 C 203.671875 267.429688 204.152344 266.820312 204.078125 266.152344 C 204.003906 265.539062 203.484375 265.078125 202.867188 265.078125"/></g><g id="change1_121"><path d="M 216.664062 263.386719 C 216.613281 263.386719 216.5625 263.390625 216.511719 263.394531 C 215.800781 263.480469 215.289062 264.125 215.375 264.832031 C 215.449219 265.488281 216.003906 265.980469 216.660156 265.980469 C 216.710938 265.980469 216.761719 265.976562 216.8125 265.972656 C 217.519531 265.890625 218.03125 265.242188 217.949219 264.53125 C 217.871094 263.878906 217.320312 263.386719 216.664062 263.386719"/></g><g id="change1_122"><path d="M 230.46875 261.816406 C 230.417969 261.816406 230.367188 261.820312 230.316406 261.824219 C 229.980469 261.863281 229.683594 262.027344 229.476562 262.289062 C 229.265625 262.554688 229.171875 262.882812 229.210938 263.21875 C 229.285156 263.851562 229.824219 264.324219 230.460938 264.324219 C 230.511719 264.324219 230.5625 264.324219 230.613281 264.316406 C 230.945312 264.28125 231.242188 264.113281 231.449219 263.851562 C 231.65625 263.585938 231.75 263.257812 231.710938 262.921875 C 231.640625 262.292969 231.105469 261.816406 230.46875 261.816406"/></g><g id="change1_123"><path d="M 244.261719 260.394531 C 244.222656 260.394531 244.179688 260.398438 244.136719 260.402344 C 243.558594 260.472656 243.140625 261 243.207031 261.582031 C 243.269531 262.117188 243.722656 262.523438 244.257812 262.523438 C 244.300781 262.523438 244.34375 262.519531 244.386719 262.515625 C 244.667969 262.480469 244.917969 262.34375 245.09375 262.121094 C 245.269531 261.898438 245.347656 261.621094 245.3125 261.335938 C 245.253906 260.800781 244.800781 260.394531 244.261719 260.394531"/></g><g id="change1_124"><path d="M 258.0625 259.09375 C 258.03125 259.09375 258.003906 259.09375 257.972656 259.097656 C 257.558594 259.144531 257.261719 259.523438 257.308594 259.933594 C 257.355469 260.316406 257.679688 260.605469 258.0625 260.605469 C 258.089844 260.605469 258.121094 260.601562 258.144531 260.601562 C 258.558594 260.550781 258.855469 260.171875 258.808594 259.757812 C 258.765625 259.386719 258.4375 259.09375 258.0625 259.09375"/></g><g id="change1_125"><path d="M 271.851562 257.902344 C 271.839844 257.902344 271.828125 257.902344 271.820312 257.902344 C 271.730469 257.914062 271.648438 257.960938 271.59375 258.03125 C 271.542969 258.097656 271.519531 258.183594 271.53125 258.277344 C 271.546875 258.441406 271.6875 258.570312 271.859375 258.570312 C 271.871094 258.570312 271.882812 258.566406 271.894531 258.566406 C 271.984375 258.554688 272.0625 258.511719 272.117188 258.441406 C 272.171875 258.375 272.195312 258.285156 272.1875 258.195312 C 272.167969 258.027344 272.023438 257.902344 271.851562 257.902344"/></g><g id="change1_126"><path d="M 285.640625 256.507812 C 285.578125 256.515625 285.535156 256.574219 285.539062 256.636719 C 285.546875 256.703125 285.605469 256.746094 285.667969 256.738281 C 285.730469 256.730469 285.78125 256.675781 285.773438 256.609375 C 285.769531 256.542969 285.707031 256.5 285.640625 256.507812"/></g><g id="change1_141" clip-path="url(#a)"><path d="M 218.265625 278.378906 C 218.210938 278.386719 218.167969 278.4375 218.175781 278.488281 C 218.179688 278.550781 218.230469 278.578125 218.277344 278.578125 L 218.28125 278.578125 C 218.34375 278.570312 218.386719 278.523438 218.378906 278.46875 C 218.371094 278.417969 218.328125 278.378906 218.265625 278.378906"/></g><g id="change1_127"><path d="M 232.035156 276.523438 C 231.84375 276.542969 231.707031 276.71875 231.730469 276.910156 C 231.753906 277.097656 231.925781 277.238281 232.113281 277.214844 C 232.308594 277.191406 232.441406 277.019531 232.417969 276.824219 C 232.394531 276.636719 232.226562 276.5 232.035156 276.523438"/></g><g id="change1_128"><path d="M 245.851562 275.058594 C 245.742188 275.074219 245.667969 275.175781 245.679688 275.277344 C 245.691406 275.382812 245.789062 275.457031 245.894531 275.445312 C 246 275.433594 246.078125 275.335938 246.0625 275.234375 C 246.050781 275.128906 245.953125 275.050781 245.851562 275.058594"/></g><g id="change2_1"><path fill="#ffffff" d="M 215.773438 211.453125 L 237.625 238.179688 L 240.308594 204.683594 L 264.988281 223.222656 L 262.15625 192.921875 L 290.523438 195.0625 L 273.421875 172.621094 L 320.808594 170.113281 L 280.066406 147.4375 L 301.035156 134.257812 L 277.511719 125.105469 L 313.542969 93.496094 L 264.167969 95.40625 L 274.808594 60.710938 L 240.96875 77.828125 L 239.15625 27.214844 L 200.058594 70.335938 L 177.058594 42.894531 L 167.09375 77.460938 L 133.359375 59.640625 L 136.425781 91.714844 L 86.976562 82.09375 L 118.300781 120.589844 L 84.3125 131.984375 L 120.324219 146.953125 L 101.160156 167.976562 L 130.292969 170.828125 L 107.566406 213.007812 L 150.246094 196.851562 L 149.460938 217.511719 L 168.636719 207.175781 L 171.710938 245.792969 L 193.179688 210.871094 L 205.042969 229.628906 L 215.773438 211.453125"/></g><g id="change1_129"><path d="M 260.0625 50.984375 L 281.894531 12.574219 L 274.882812 7.296875 Z M 260.0625 50.984375"/></g><g id="change1_130"><path d="M 255.570312 60.082031 L 283.546875 30.328125 L 289.910156 35.953125 Z M 255.570312 60.082031"/></g><g id="change1_131"><path d="M 160.578125 227.347656 L 156.027344 265.15625 L 148.402344 264.457031 Z M 160.578125 227.347656"/></g><g id="change1_132"><path d="M 121.597656 78.195312 L 89.941406 55.644531 L 86.800781 62.714844 Z M 121.597656 78.195312"/></g><g id="change1_133"><path d="M 120.925781 71.078125 L 101.714844 33.785156 L 109.136719 29.507812 Z M 120.925781 71.078125"/></g><g id="change1_134"><path d="M 143.0625 254.441406 C 143.625 254.367188 143.855469 253.675781 143.449219 253.277344 L 143.09375 252.917969 L 139.441406 249.304688 C 139.277344 249.144531 139.207031 248.917969 139.246094 248.695312 L 140.246094 243.136719 C 140.34375 242.578125 139.761719 242.144531 139.253906 242.40625 L 134.238281 244.996094 C 134.035156 245.097656 133.796875 245.097656 133.597656 244.988281 L 128.621094 242.324219 C 128.121094 242.054688 127.53125 242.476562 127.621094 243.039062 L 128.53125 248.609375 C 128.570312 248.832031 128.492188 249.058594 128.328125 249.21875 L 124.886719 252.519531 L 124.257812 253.125 C 123.847656 253.519531 124.066406 254.210938 124.628906 254.300781 L 130.207031 255.152344 C 130.429688 255.1875 130.625 255.328125 130.722656 255.535156 L 133.179688 260.617188 C 133.429688 261.128906 134.15625 261.132812 134.410156 260.625 L 136.949219 255.582031 C 137.050781 255.382812 137.246094 255.242188 137.46875 255.210938 L 143.0625 254.441406"/></g><g id="change1_135"><path d="M 302.355469 13.207031 C 302.742188 12.792969 302.488281 12.109375 301.921875 12.054688 L 301.417969 12.007812 L 296.300781 11.503906 C 296.078125 11.480469 295.878906 11.351562 295.769531 11.152344 L 293.039062 6.210938 C 292.761719 5.714844 292.035156 5.746094 291.808594 6.269531 L 289.546875 11.441406 C 289.457031 11.648438 289.269531 11.796875 289.050781 11.839844 L 283.507812 12.910156 C 282.949219 13.019531 282.753906 13.71875 283.179688 14.097656 L 287.402344 17.847656 C 287.570312 17.996094 287.65625 18.21875 287.628906 18.445312 L 287.039062 23.179688 L 286.933594 24.046875 C 286.863281 24.609375 287.46875 25.011719 287.960938 24.722656 L 292.828125 21.867188 C 293.023438 21.753906 293.261719 21.742188 293.46875 21.835938 L 298.582031 24.230469 C 299.097656 24.472656 299.664062 24.015625 299.542969 23.460938 L 298.332031 17.945312 C 298.28125 17.726562 298.34375 17.496094 298.5 17.332031 L 302.355469 13.207031"/></g><g id="change1_136"><path d="M 215.621094 66.414062 L 230.539062 0.00390625 L 240.683594 1.199219 Z M 215.621094 66.414062"/></g><g id="change1_137"><path d="M 209.417969 71.351562 L 204.964844 4.144531 L 215.230469 3.785156 Z M 209.417969 71.351562"/></g><g id="change1_138"><path d="M 117.199219 179.953125 L 59.414062 219.578125 L 56.398438 210.285156 Z M 117.199219 179.953125"/></g><g id="change1_139"><path d="M 123.480469 181.207031 L 75.714844 234 L 68.339844 229.242188 Z M 123.480469 181.207031"/></g><g id="change3_1"><path fill="#009ddb" d="M 213.824219 200.378906 L 232.445312 223.15625 L 234.730469 194.609375 L 255.765625 210.410156 L 253.351562 184.585938 L 277.527344 186.410156 L 262.953125 167.285156 L 303.335938 165.148438 L 268.613281 145.820312 L 286.488281 134.589844 L 266.4375 126.789062 L 297.148438 99.851562 L 255.066406 101.480469 L 264.132812 71.910156 L 235.292969 86.496094 L 233.75 43.359375 L 200.429688 80.109375 L 180.824219 56.722656 L 172.332031 86.183594 L 143.582031 70.996094 L 146.195312 98.332031 L 104.054688 90.132812 L 130.75 122.941406 L 101.78125 132.652344 L 132.476562 145.40625 L 116.140625 163.328125 L 140.96875 165.757812 L 121.601562 201.703125 L 157.972656 187.9375 L 157.304688 205.542969 L 173.648438 196.734375 L 176.269531 229.644531 L 194.5625 199.882812 L 204.675781 215.867188 L 213.824219 200.378906"/></g><g id="change4_1"><path fill="#00adff" d="M 212.007812 190.085938 L 227.628906 209.191406 L 229.546875 185.242188 L 247.191406 198.5 L 245.164062 176.835938 L 265.445312 178.367188 L 253.21875 162.324219 L 287.09375 160.53125 L 257.96875 144.320312 L 272.960938 134.898438 L 256.140625 128.355469 L 281.902344 105.757812 L 246.605469 107.125 L 254.210938 82.320312 L 230.015625 94.554688 L 228.722656 58.371094 L 200.773438 89.199219 L 184.328125 69.582031 L 177.203125 94.292969 L 153.089844 81.554688 L 155.28125 104.484375 L 119.929688 97.605469 L 142.324219 125.128906 L 118.023438 133.273438 L 143.769531 143.972656 L 130.070312 159.003906 L 150.894531 161.042969 L 134.652344 191.195312 L 165.160156 179.648438 L 164.597656 194.414062 L 178.308594 187.027344 L 180.507812 214.632812 L 195.851562 189.667969 L 204.335938 203.078125 L 212.007812 190.085938"/></g><g id="change1_140"><path d="M 94.269531 115.753906 C 94.625 111.605469 95.007812 107.464844 95.417969 103.320312 C 96.558594 107.789062 97.703125 112.253906 98.847656 116.722656 C 97.320312 116.390625 95.796875 116.070312 94.269531 115.753906"/></g><g id="change1_1" clip-path="url(#b)"><path d="M 364.429688 177.683594 C 364.410156 177.691406 364.390625 177.703125 364.371094 177.714844 C 365.375 173.675781 366.378906 169.636719 367.382812 165.601562 C 367.253906 166.613281 367.128906 167.625 367 168.640625 C 368.148438 168.921875 369.300781 169.203125 370.449219 169.496094 C 367.480469 171.488281 365.609375 174.359375 364.429688 177.683594 Z M 348.585938 144.65625 C 356.179688 138.695312 363.929688 132.945312 371.824219 127.394531 C 371.039062 134.703125 370.214844 142.003906 369.359375 149.304688 C 362.464844 147.625 355.539062 146.078125 348.585938 144.65625 Z M 339.695312 154.878906 C 338.515625 156.882812 337.34375 158.890625 336.179688 160.902344 C 334.1875 160.535156 332.191406 160.179688 330.199219 159.828125 C 334.371094 156.226562 338.601562 152.6875 342.882812 149.210938 C 341.8125 151.097656 340.75 152.984375 339.695312 154.878906 Z M 304.058594 128.171875 C 305.238281 125.398438 306.425781 122.636719 307.628906 119.875 C 309.324219 120.078125 311.019531 120.289062 312.714844 120.507812 C 309.804688 123.035156 306.917969 125.589844 304.058594 128.171875 Z M 275 160.9375 C 274.484375 161.488281 274.226562 161.765625 273.710938 162.320312 C 273.894531 159.398438 274.082031 156.480469 274.265625 153.5625 C 271.109375 153.367188 267.949219 153.195312 264.785156 153.050781 C 265.398438 139.515625 266.011719 125.980469 266.625 112.445312 C 268.980469 112.554688 271.339844 112.675781 273.695312 112.808594 C 273.289062 119.800781 272.882812 126.792969 272.480469 133.785156 C 278.410156 134.136719 284.332031 134.574219 290.25 135.109375 C 292.125 135.308594 293.996094 135.523438 295.867188 135.742188 C 288.828125 142.410156 281.972656 149.261719 275.304688 156.300781 C 275.203125 157.84375 275.101562 159.390625 275 160.9375 Z M 172.953125 156.902344 C 171.988281 157.375 170.964844 157.613281 169.949219 157.761719 C 168.042969 158.03125 165.710938 158.097656 164.113281 156.675781 C 162.335938 155.09375 161.605469 152.902344 161.171875 150.632812 C 159.523438 139.871094 157.871094 129.109375 156.222656 118.347656 C 156.636719 118.28125 156.84375 118.253906 157.253906 118.191406 C 157.457031 119.519531 157.65625 120.851562 157.859375 122.183594 C 161.289062 121.667969 164.726562 121.179688 168.167969 120.722656 C 169.761719 132.78125 171.355469 144.84375 172.953125 156.902344 Z M 66.710938 182.714844 C 66.4375 183.40625 66.109375 183.988281 65.726562 184.449219 C 65.0625 185.246094 64.398438 185.484375 63.960938 185.644531 C 63.5 185.8125 62.796875 186.070312 61.75 185.886719 C 59.675781 185.515625 57.972656 184.011719 56.542969 182.585938 C 52.367188 178.429688 49.460938 172.945312 47.363281 167.46875 C 45.425781 162.410156 44.054688 156.878906 44.609375 151.359375 C 44.628906 151.164062 44.652344 150.96875 44.679688 150.78125 C 48.464844 150.171875 51.960938 151.898438 54.628906 154.484375 C 58.976562 158.707031 61.785156 164.242188 63.761719 169.84375 C 65.222656 173.988281 66.242188 178.296875 66.710938 182.714844 Z M 423.929688 133.269531 C 426.105469 126.839844 428.28125 120.410156 430.457031 113.980469 C 414.722656 108.675781 398.785156 104.023438 382.667969 100.027344 C 381.730469 103.824219 380.792969 107.628906 379.855469 111.429688 C 379.695312 111.386719 379.617188 111.367188 379.460938 111.328125 C 380.226562 108.214844 380.992188 105.101562 381.757812 101.988281 C 348.5 93.847656 314.609375 88.585938 280.449219 86.265625 C 280.074219 86.242188 279.886719 86.230469 279.511719 86.207031 C 257.476562 84.796875 235.386719 84.601562 213.328125 85.625 C 212.421875 86.726562 211.519531 87.832031 210.617188 88.9375 C 210.5625 87.882812 210.507812 86.824219 210.449219 85.769531 C 171.628906 87.847656 133.09375 93.726562 95.417969 103.320312 C 96.386719 107.113281 97.359375 110.90625 98.328125 114.699219 C 96.972656 115.046875 95.621094 115.398438 94.269531 115.753906 C 95.21875 119.355469 96.167969 122.957031 97.117188 126.558594 C 96.773438 126.21875 96.421875 125.882812 96.0625 125.554688 C 89.238281 119.296875 80.578125 115.796875 71.527344 114.5625 C 60.785156 113.101562 49.742188 115.128906 39.652344 118.796875 C 29.511719 122.484375 19.710938 128.0625 12.339844 136.089844 C 6.113281 142.871094 1.535156 151.210938 0.34375 160.40625 C -0.113281 163.9375 -0.101562 167.472656 0.296875 171.039062 C 0.289062 171.09375 0.28125 171.144531 0.273438 171.195312 C -0.671875 179.535156 1.199219 187.714844 4.882812 195.15625 C 8.5 202.457031 13.902344 208.625 20.746094 213.144531 C 27.324219 217.488281 35.046875 220.066406 42.898438 220.734375 C 51.265625 221.441406 59.558594 220.023438 67.351562 217.050781 C 71.464844 215.480469 75.398438 213.445312 79.152344 211.066406 C 90.414062 207.132812 101.804688 203.601562 113.316406 200.46875 C 116.675781 198.164062 120.0625 195.902344 123.472656 193.679688 C 121.296875 184.820312 119.121094 175.964844 116.949219 167.109375 C 114.605469 167.6875 112.265625 168.277344 109.925781 168.882812 C 111.035156 162.003906 110.769531 155.089844 109.09375 148.410156 C 107.761719 143.121094 105.652344 138.066406 102.699219 133.402344 C 104.851562 132.855469 107.003906 132.316406 109.160156 131.785156 C 111.464844 141.222656 113.765625 150.660156 116.070312 160.101562 C 118.632812 170.273438 123.085938 180.667969 131.824219 187.03125 C 140.546875 193.375 152.039062 193.152344 162.117188 191.484375 C 169.820312 190.210938 177.445312 187.519531 183.445312 182.257812 C 187.871094 180.207031 191.867188 177.570312 195.316406 174.167969 C 202.605469 166.980469 204.996094 156.878906 204.40625 146.824219 C 203.621094 135.632812 202.839844 124.4375 202.054688 113.242188 C 204.882812 113.046875 207.714844 112.871094 210.542969 112.710938 C 210.617188 114.054688 210.691406 115.398438 210.765625 116.742188 C 214.140625 116.5625 217.519531 116.40625 220.898438 116.28125 C 221.34375 128.476562 221.789062 140.671875 222.234375 152.863281 C 220.335938 152.933594 218.433594 153.015625 216.535156 153.105469 C 215.46875 157.070312 214.425781 161.042969 213.410156 165.023438 C 213.761719 171.414062 214.109375 177.808594 214.460938 184.199219 C 229.917969 183.375 245.398438 183.261719 260.867188 183.859375 C 262.824219 183.941406 264.78125 184.03125 266.734375 184.128906 C 267.863281 182.839844 268.996094 181.554688 270.132812 180.273438 C 270.054688 181.617188 269.976562 182.960938 269.898438 184.304688 C 296.21875 185.882812 322.359375 189.546875 348.101562 195.265625 C 350.179688 195.730469 352.257812 196.210938 354.332031 196.699219 C 355.898438 195.6875 357.46875 194.679688 359.042969 193.683594 C 359.4375 194.640625 359.949219 195.554688 360.5625 196.382812 C 363.027344 199.703125 366.773438 201.65625 370.628906 202.71875 C 374.59375 203.808594 378.957031 204.070312 382.875 202.527344 C 383.304688 202.355469 383.726562 202.152344 384.125 201.941406 C 387.558594 202.246094 390.789062 201.957031 394.078125 200.90625 C 394.097656 200.902344 394.109375 200.898438 394.128906 200.890625 C 394.148438 200.882812 394.160156 200.878906 394.179688 200.871094 C 398.890625 199.09375 402.394531 195.433594 404 190.667969 C 405.65625 185.761719 404.953125 180.621094 401.933594 176.394531 C 401.921875 176.375 401.914062 176.367188 401.902344 176.351562 C 401.152344 175.324219 400.3125 174.367188 399.394531 173.488281 C 400.925781 173.964844 402.453125 174.445312 403.976562 174.9375 C 410.484375 160.980469 417.136719 147.089844 423.929688 133.269531"/></g><g id="change5_1"><path fill="#ffce00" d="M 71.757812 178.628906 C 72.285156 172.183594 71.0625 165.714844 69.039062 159.683594 C 67.148438 154.050781 64.410156 148.472656 60.097656 144.199219 C 56.746094 140.878906 52.28125 139.335938 47.722656 140.992188 C 43.128906 142.660156 40.609375 146.695312 40.164062 151.453125 C 39.597656 157.496094 41.082031 163.53125 43.253906 169.0625 C 45.578125 174.988281 48.800781 180.726562 53.347656 185.324219 C 56.488281 188.5 60.765625 190.90625 65.277344 189.265625 C 69.746094 187.640625 71.402344 183.019531 71.757812 178.628906 Z M 46.886719 210.433594 C 38.949219 209.640625 31.21875 207.039062 24.632812 202.597656 C 17.824219 198.007812 12.480469 191.773438 8.976562 184.40625 C 5.402344 176.894531 3.6875 168.667969 4.8125 160.339844 C 5.941406 151.984375 10.101562 144.457031 15.773438 138.296875 C 22.578125 130.90625 31.621094 125.816406 40.96875 122.414062 C 50.265625 119.035156 60.417969 117.121094 70.320312 118.453125 C 78.558594 119.5625 86.488281 122.699219 92.648438 128.363281 C 98.824219 134.046875 102.765625 141.457031 104.855469 149.492188 C 106.992188 157.730469 106.808594 166.230469 104.347656 174.480469 C 104.425781 174.410156 104.46875 174.378906 104.550781 174.308594 C 107.628906 173.46875 110.71875 172.652344 113.8125 171.863281 C 115.425781 178.214844 117.039062 184.5625 118.652344 190.910156 C 106.917969 193.910156 95.296875 197.320312 83.800781 201.136719 C 79.953125 203.480469 75.921875 205.472656 71.726562 207 C 63.832031 209.875 55.363281 211.28125 46.886719 210.433594"/></g><g id="change5_2"><path fill="#ffce00" d="M 137.679688 177.683594 C 128.964844 171.238281 124.617188 160.785156 122.207031 150.546875 C 120.050781 141.074219 117.890625 131.601562 115.734375 122.128906 C 112.335938 122.90625 108.945312 123.710938 105.5625 124.542969 C 104.027344 118.328125 102.488281 112.113281 100.953125 105.902344 C 119.714844 101.285156 138.675781 97.582031 157.796875 94.800781 C 158.710938 101.136719 159.621094 107.472656 160.539062 113.808594 C 157.402344 114.265625 154.269531 114.746094 151.140625 115.246094 C 153.082031 127.261719 155.023438 139.277344 156.964844 151.296875 C 157.566406 154.425781 158.722656 157.351562 161.179688 159.5 C 163.726562 161.730469 167.304688 162.066406 170.476562 161.574219 C 173.347656 161.132812 176.144531 160.097656 178.085938 157.769531 C 179.929688 155.5625 180.492188 152.683594 180.15625 149.875 C 178.675781 137.191406 177.195312 124.511719 175.714844 111.828125 C 172.21875 112.242188 168.730469 112.683594 165.242188 113.152344 C 164.382812 106.808594 163.519531 100.464844 162.660156 94.121094 C 177.039062 92.1875 191.476562 90.773438 205.953125 89.878906 C 206.34375 96.269531 206.730469 102.660156 207.113281 109.050781 C 203.824219 109.253906 200.535156 109.480469 197.246094 109.734375 C 198.222656 122.203125 199.195312 134.671875 200.167969 147.140625 C 200.761719 156.0625 198.882812 165.007812 192.398438 171.527344 C 185.929688 178.035156 177.1875 181.203125 168.34375 182.523438 C 158.121094 184.054688 146.449219 184.171875 137.679688 177.683594"/></g><g id="change5_3"><path fill="#ffce00" d="M 221.632812 175.964844 C 221.378906 169.566406 221.128906 163.167969 220.875 156.769531 C 224.011719 156.652344 227.144531 156.554688 230.28125 156.484375 C 229.9375 140.371094 229.597656 124.257812 229.253906 108.144531 C 225.824219 108.222656 222.398438 108.324219 218.96875 108.457031 C 218.71875 102.0625 218.464844 95.664062 218.214844 89.269531 C 236.675781 88.558594 255.152344 88.707031 273.601562 89.710938 C 273.246094 96.101562 272.890625 102.492188 272.539062 108.882812 C 269.109375 108.699219 265.675781 108.539062 262.246094 108.40625 C 261.644531 124.515625 261.046875 140.621094 260.449219 156.726562 C 263.589844 156.847656 266.726562 156.992188 269.859375 157.160156 C 269.507812 163.554688 269.152344 169.945312 268.796875 176.339844 C 253.085938 175.488281 237.355469 175.363281 221.632812 175.964844"/></g><g id="change5_4"><path fill="#ffce00" d="M 277.972656 176.933594 C 278.441406 170.585938 278.910156 164.234375 279.378906 157.890625 C 294.1875 142.46875 309.933594 128 326.496094 114.480469 C 319.769531 113.464844 313.027344 112.558594 306.269531 111.769531 C 303.914062 117.1875 301.605469 122.621094 299.339844 128.074219 C 293.339844 127.445312 287.335938 126.90625 281.320312 126.457031 C 282.203125 114.429688 283.085938 102.402344 283.964844 90.375 C 315.042969 92.6875 345.882812 97.445312 376.210938 104.609375 C 374.835938 110.402344 373.460938 116.199219 372.085938 121.992188 C 354.351562 134.378906 337.382812 147.804688 321.292969 162.265625 C 327.296875 163.214844 333.28125 164.257812 339.25 165.402344 C 342.527344 159.808594 345.867188 154.25 349.269531 148.726562 C 354.914062 149.898438 360.539062 151.152344 366.144531 152.488281 C 363.203125 164.757812 360.261719 177.03125 357.316406 189.300781 C 331.234375 183.078125 304.710938 178.945312 277.972656 176.933594"/></g><g id="change5_5"><path fill="#ffce00" d="M 369.96875 190.660156 C 367.710938 187.570312 367.125 183.714844 368.078125 180.007812 C 369.046875 176.238281 371.453125 173.09375 375.0625 171.566406 C 379.078125 169.863281 383.414062 170.113281 387.574219 171.230469 C 387.621094 171.246094 387.644531 171.253906 387.691406 171.265625 C 391.917969 172.59375 395.808594 174.769531 398.441406 178.394531 C 400.777344 181.609375 401.273438 185.582031 400.035156 189.351562 C 398.832031 193.023438 396.171875 195.949219 392.570312 197.265625 C 388.550781 198.734375 384.128906 198.375 380.125 197.207031 C 376.230469 196.070312 372.445312 194.050781 369.96875 190.660156 Z M 376.824219 163.019531 C 378.796875 148.9375 380.636719 134.839844 382.347656 120.726562 C 383.691406 115.460938 385.035156 110.195312 386.378906 104.929688 C 399.261719 108.234375 412.023438 111.960938 424.65625 116.105469 C 422.960938 121.265625 421.261719 126.429688 419.5625 131.589844 C 413.410156 144.371094 407.378906 157.207031 401.46875 170.097656 C 393.308594 167.550781 385.09375 165.191406 376.824219 163.019531"/></g></g></svg>