<?xml version="1.0" encoding="UTF-8" standalone="no"?><svg xmlns="http://www.w3.org/2000/svg" xmlns:xlink="http://www.w3.org/1999/xlink" contentScriptType="text/ecmascript" fill="#000000" width="2001.9" zoomAndPan="magnify" contentStyleType="text/css" viewBox="224.3 378.6 2001.9 1706.6" height="1706.6" preserveAspectRatio="xMidYMid meet" version="1"><g><g><path fill="#b6c2e8" d="M 1944.835938 1192.863281 C 1944.835938 1602.058594 1613.117188 1933.769531 1203.929688 1933.769531 C 794.738281 1933.769531 463.027344 1602.058594 463.027344 1192.863281 C 463.027344 783.675781 794.738281 451.96875 1203.929688 451.96875 C 1613.117188 451.96875 1944.835938 783.675781 1944.835938 1192.863281"/></g><g><path fill="#aab8dc" d="M 2203.253906 1050.457031 C 2217.550781 1075.109375 2214.863281 1107.195312 2194.5 1129.214844 L 1737.890625 1623.066406 C 1712.871094 1650.128906 1670.640625 1651.777344 1643.601562 1626.757812 L 1460.878906 1457.785156 C 1438.054688 1436.667969 1433.316406 1403.296875 1447.4375 1377.136719 C 1424.710938 1404.855469 1435.570312 1458.488281 1461.96875 1482.898438 L 1644.679688 1651.867188 C 1671.734375 1676.886719 1713.949219 1675.238281 1738.96875 1648.175781 L 2195.589844 1154.324219 C 2219.449219 1128.527344 2226.15625 1076.886719 2203.253906 1050.457031"/></g><g><path fill="#ebf1fa" d="M 2145.933594 1125.601562 C 2120.578125 1153.039062 2077.054688 1154.0625 2048.742188 1127.878906 C 2020.445312 1101.710938 2018.066406 1058.246094 2043.425781 1030.804688 C 2068.796875 1003.363281 2112.316406 1002.332031 2140.617188 1028.507812 C 2168.925781 1054.695312 2171.308594 1098.160156 2145.933594 1125.601562 Z M 2045.953125 1233.289062 C 2020.582031 1260.730469 1977.0625 1261.75 1948.75 1235.570312 C 1920.453125 1209.398438 1918.070312 1165.929688 1943.445312 1138.488281 C 1968.804688 1111.050781 2012.324219 1110.019531 2040.636719 1136.199219 C 2068.933594 1162.378906 2071.3125 1205.851562 2045.953125 1233.289062 Z M 1945.960938 1340.980469 C 1920.574219 1368.421875 1877.066406 1369.441406 1848.757812 1343.261719 C 1820.457031 1317.089844 1818.078125 1273.621094 1843.449219 1246.179688 C 1868.824219 1218.738281 1912.34375 1217.710938 1940.640625 1243.890625 C 1968.953125 1270.070312 1971.332031 1313.539062 1945.960938 1340.980469 Z M 1844.5 1450.25 C 1819.125 1477.691406 1775.605469 1478.710938 1747.292969 1452.539062 C 1718.996094 1426.359375 1716.613281 1382.890625 1741.988281 1355.449219 C 1767.359375 1328.011719 1810.882812 1326.980469 1839.191406 1353.160156 C 1867.488281 1379.339844 1869.871094 1422.808594 1844.5 1450.25 Z M 1744.503906 1557.941406 C 1719.132812 1585.378906 1675.625 1586.398438 1647.3125 1560.230469 C 1619.015625 1534.050781 1616.632812 1490.578125 1641.992188 1463.140625 C 1667.367188 1435.699219 1710.886719 1434.671875 1739.183594 1460.851562 C 1767.496094 1487.03125 1769.875 1530.5 1744.503906 1557.941406 Z M 1523.660156 1445.410156 C 1495.363281 1419.238281 1492.980469 1375.769531 1518.355469 1348.332031 C 1543.714844 1320.890625 1587.234375 1319.859375 1615.546875 1346.039062 C 1643.84375 1372.21875 1646.226562 1415.6875 1620.867188 1443.128906 C 1595.480469 1470.570312 1551.972656 1471.589844 1523.660156 1445.410156 Z M 1825.097656 1120.757812 C 1796.800781 1094.589844 1794.417969 1051.117188 1819.792969 1023.675781 C 1845.164062 996.238281 1888.6875 995.214844 1916.984375 1021.390625 C 1945.292969 1047.566406 1947.675781 1091.035156 1922.304688 1118.480469 C 1896.917969 1145.917969 1853.410156 1146.941406 1825.097656 1120.757812 Z M 1720.847656 1335.441406 C 1695.472656 1362.878906 1651.964844 1363.902344 1623.65625 1337.71875 C 1595.34375 1311.550781 1592.976562 1268.082031 1618.335938 1240.640625 C 1643.707031 1213.199219 1687.230469 1212.171875 1715.527344 1238.351562 C 1743.835938 1264.53125 1746.21875 1308 1720.847656 1335.441406 Z M 1725.105469 1228.449219 C 1696.804688 1202.28125 1694.425781 1158.808594 1719.796875 1131.371094 C 1745.171875 1103.929688 1788.691406 1102.902344 1816.988281 1129.078125 C 1845.300781 1155.261719 1847.679688 1198.730469 1822.296875 1226.171875 C 1796.9375 1253.609375 1753.414062 1254.628906 1725.105469 1228.449219 Z M 2016.964844 913.699219 C 2045.273438 939.871094 2047.65625 983.351562 2022.296875 1010.792969 C 1996.910156 1038.234375 1953.402344 1039.253906 1925.089844 1013.066406 C 1896.792969 986.890625 1894.414062 943.421875 1919.785156 915.984375 C 1945.144531 888.542969 1988.664062 887.523438 2016.964844 913.699219 Z M 1460.875 1457.789062 L 1643.585938 1626.757812 C 1670.644531 1651.78125 1712.859375 1650.128906 1737.878906 1623.070312 L 2194.488281 1129.21875 C 2214.855469 1107.199219 2217.550781 1075.117188 2203.25 1050.464844 C 2199.984375 1044.832031 2195.824219 1039.59375 2190.804688 1034.941406 L 2008.09375 865.972656 C 1981.046875 840.941406 1938.832031 842.601562 1913.8125 869.660156 L 1457.1875 1363.511719 C 1453.296875 1367.71875 1450.046875 1372.308594 1447.433594 1377.140625 C 1433.3125 1403.300781 1438.046875 1436.671875 1460.875 1457.789062"/></g><g><path fill="#b6c2e8" d="M 2139.5625 1119.703125 C 2117.332031 1143.722656 2079.246094 1144.621094 2054.457031 1121.703125 C 2029.679688 1098.777344 2027.601562 1060.71875 2049.808594 1036.703125 C 2072.027344 1012.671875 2110.109375 1011.777344 2134.902344 1034.703125 C 2159.691406 1057.628906 2161.769531 1095.671875 2139.5625 1119.703125 Z M 2140.617188 1028.507812 C 2112.320312 1002.332031 2068.800781 1003.359375 2043.425781 1030.800781 C 2018.0625 1058.242188 2020.433594 1101.707031 2048.742188 1127.882812 C 2077.046875 1154.0625 2120.566406 1153.042969 2145.929688 1125.601562 C 2171.308594 1098.164062 2168.921875 1054.699219 2140.617188 1028.507812"/></g><g><path fill="#b6c2e8" d="M 2039.566406 1227.390625 C 2017.355469 1251.410156 1979.257812 1252.308594 1954.476562 1229.386719 C 1929.699219 1206.46875 1927.613281 1168.40625 1949.824219 1144.390625 C 1972.039062 1120.359375 2010.136719 1119.46875 2034.929688 1142.382812 C 2059.707031 1165.304688 2061.777344 1203.359375 2039.566406 1227.390625 Z M 2040.632812 1136.195312 C 2012.335938 1110.015625 1968.8125 1111.046875 1943.445312 1138.492188 C 1918.070312 1165.929688 1920.445312 1209.398438 1948.746094 1235.570312 C 1977.058594 1261.75 2020.582031 1260.726562 2045.957031 1233.289062 C 2071.324219 1205.847656 2068.945312 1162.382812 2040.632812 1136.195312"/></g><g><path fill="#b6c2e8" d="M 1939.574219 1335.085938 C 1917.347656 1359.105469 1879.261719 1360.003906 1854.46875 1337.085938 C 1829.6875 1314.164062 1827.609375 1276.105469 1849.824219 1252.085938 C 1872.03125 1228.054688 1910.136719 1227.160156 1934.90625 1250.085938 C 1959.699219 1273.003906 1961.78125 1311.054688 1939.574219 1335.085938 Z M 1940.628906 1243.894531 C 1912.328125 1217.714844 1868.8125 1218.742188 1843.441406 1246.183594 C 1818.066406 1273.625 1820.449219 1317.09375 1848.75 1343.265625 C 1877.0625 1369.445312 1920.574219 1368.425781 1945.949219 1340.984375 C 1971.320312 1313.542969 1968.941406 1270.074219 1940.628906 1243.894531"/></g><g><path fill="#42a6cd" d="M 2134.914062 1034.695312 C 2110.128906 1011.777344 2072.039062 1012.667969 2049.808594 1036.699219 C 2027.59375 1060.71875 2029.675781 1098.78125 2054.464844 1121.699219 C 2079.253906 1144.617188 2117.34375 1143.71875 2139.558594 1119.695312 C 2161.769531 1095.664062 2159.6875 1057.613281 2134.914062 1034.695312"/></g><g><path fill="#5f5eb4" d="M 2034.933594 1142.378906 C 2010.140625 1119.460938 1972.042969 1120.359375 1949.832031 1144.390625 C 1927.617188 1168.410156 1929.695312 1206.464844 1954.472656 1229.386719 C 1979.265625 1252.304688 2017.351562 1251.40625 2039.574219 1227.386719 C 2061.785156 1203.355469 2059.710938 1165.300781 2034.933594 1142.378906"/></g><g><path fill="#f68313" d="M 1934.910156 1250.082031 C 1910.140625 1227.164062 1872.039062 1228.054688 1849.832031 1252.082031 C 1827.613281 1276.101562 1829.695312 1314.160156 1854.476562 1337.082031 C 1879.269531 1360 1917.351562 1359.101562 1939.582031 1335.082031 C 1961.785156 1311.050781 1959.703125 1273 1934.910156 1250.082031"/></g><g><path fill="#b6c2e8" d="M 1838.117188 1444.347656 C 1815.898438 1468.371094 1777.8125 1469.269531 1753.019531 1446.351562 C 1728.242188 1423.429688 1726.167969 1385.371094 1748.375 1361.347656 C 1770.59375 1337.320312 1808.679688 1336.429688 1833.472656 1359.347656 C 1858.25 1382.269531 1860.328125 1420.320312 1838.117188 1444.347656 Z M 1839.195312 1353.160156 C 1810.882812 1326.980469 1767.359375 1328.007812 1741.984375 1355.449219 C 1716.621094 1382.890625 1718.996094 1426.359375 1747.296875 1452.539062 C 1775.609375 1478.710938 1819.132812 1477.6875 1844.496094 1450.25 C 1869.871094 1422.808594 1867.496094 1379.339844 1839.195312 1353.160156"/></g><g><path fill="#b6c2e8" d="M 1738.136719 1552.035156 C 1715.921875 1576.054688 1677.832031 1576.957031 1653.042969 1554.035156 C 1628.253906 1531.117188 1626.179688 1493.054688 1648.382812 1469.035156 C 1670.597656 1445.003906 1708.699219 1444.117188 1733.488281 1467.035156 C 1758.269531 1489.957031 1760.34375 1528.007812 1738.136719 1552.035156 Z M 1739.203125 1460.847656 C 1710.894531 1434.667969 1667.375 1435.695312 1642.007812 1463.136719 C 1616.632812 1490.578125 1619.011719 1534.046875 1647.332031 1560.226562 C 1675.625 1586.398438 1719.136719 1585.378906 1744.523438 1557.9375 C 1769.886719 1530.496094 1767.507812 1487.027344 1739.203125 1460.847656"/></g><g><path fill="#992471" d="M 1833.480469 1359.347656 C 1808.679688 1336.425781 1770.59375 1337.316406 1748.371094 1361.347656 C 1726.164062 1385.367188 1728.238281 1423.425781 1753.03125 1446.347656 C 1777.820312 1469.265625 1815.902344 1468.367188 1838.125 1444.347656 C 1860.335938 1420.316406 1858.257812 1382.265625 1833.480469 1359.347656"/></g><g><path fill="#5c3e6b" d="M 1733.476562 1467.042969 C 1708.679688 1444.121094 1670.589844 1445.011719 1648.375 1469.042969 C 1626.160156 1493.0625 1628.246094 1531.121094 1653.03125 1554.042969 C 1677.816406 1576.960938 1715.90625 1576.0625 1738.121094 1552.042969 C 1760.335938 1528.011719 1758.25 1489.964844 1733.476562 1467.042969"/></g><g><path fill="#b6c2e8" d="M 1926.152344 921.898438 C 1948.363281 897.863281 1986.464844 896.972656 2011.25 919.886719 C 2036.035156 942.8125 2038.121094 980.863281 2015.910156 1004.894531 C 1993.6875 1028.914062 1955.597656 1029.820312 1930.800781 1006.894531 C 1906.027344 983.96875 1903.941406 945.914062 1926.152344 921.898438 Z M 1925.085938 1013.074219 C 1953.398438 1039.253906 1996.902344 1038.234375 2022.277344 1010.789062 C 2047.65625 983.351562 2045.28125 939.886719 2016.964844 913.707031 C 1988.664062 887.527344 1945.148438 888.554688 1919.769531 915.992188 C 1894.40625 943.429688 1896.78125 986.894531 1925.085938 1013.074219"/></g><g><path fill="#b6c2e8" d="M 1830.824219 1114.582031 C 1806.039062 1091.664062 1803.960938 1053.59375 1826.175781 1029.578125 C 1848.375 1005.546875 1886.480469 1004.664062 1911.261719 1027.582031 C 1936.042969 1050.5 1938.136719 1088.546875 1915.921875 1112.574219 C 1893.699219 1136.601562 1855.605469 1137.5 1830.824219 1114.582031 Z M 1922.304688 1118.476562 C 1947.671875 1091.042969 1945.292969 1047.570312 1916.984375 1021.390625 C 1888.679688 995.210938 1845.160156 996.238281 1819.792969 1023.675781 C 1794.425781 1051.121094 1796.804688 1094.589844 1825.097656 1120.757812 C 1853.40625 1146.9375 1896.921875 1145.921875 1922.304688 1118.476562"/></g><g><path fill="#b6c2e8" d="M 1730.839844 1222.269531 C 1706.0625 1199.347656 1703.976562 1161.285156 1726.179688 1137.265625 C 1748.398438 1113.234375 1786.496094 1112.347656 1811.277344 1135.269531 C 1836.066406 1158.191406 1838.140625 1196.230469 1815.9375 1220.261719 C 1793.71875 1244.28125 1755.621094 1245.191406 1730.839844 1222.269531 Z M 1822.304688 1226.167969 C 1847.6875 1198.726562 1845.304688 1155.253906 1817 1129.082031 C 1788.695312 1102.894531 1745.179688 1103.925781 1719.8125 1131.371094 C 1694.429688 1158.800781 1696.8125 1202.273438 1725.117188 1228.449219 C 1753.433594 1254.621094 1796.9375 1253.601562 1822.304688 1226.167969"/></g><g><path fill="#fab938" d="M 1930.8125 1006.886719 C 1955.59375 1029.804688 1993.695312 1028.90625 2015.914062 1004.886719 C 2038.121094 980.867188 2036.042969 942.804688 2011.261719 919.882812 C 1986.464844 896.964844 1948.367188 897.863281 1926.160156 921.886719 C 1903.953125 945.917969 1906.027344 983.964844 1930.8125 1006.886719"/></g><g><path fill="#f14b62" d="M 1915.925781 1112.570312 C 1938.136719 1088.550781 1936.054688 1050.492188 1911.261719 1027.578125 C 1886.484375 1004.652344 1848.386719 1005.546875 1826.175781 1029.574219 C 1803.964844 1053.59375 1806.042969 1091.65625 1830.824219 1114.582031 C 1855.605469 1137.492188 1893.699219 1136.601562 1915.925781 1112.570312"/></g><g><path fill="#b3c43f" d="M 1815.917969 1220.273438 C 1838.132812 1196.242188 1836.058594 1158.195312 1811.261719 1135.277344 C 1786.488281 1112.351562 1748.382812 1113.242188 1726.175781 1137.273438 C 1703.960938 1161.296875 1706.046875 1199.355469 1730.824219 1222.269531 C 1755.609375 1245.195312 1793.703125 1244.292969 1815.917969 1220.273438"/></g><g><path fill="#b6c2e8" d="M 1714.464844 1329.542969 C 1692.246094 1353.558594 1654.164062 1354.460938 1629.371094 1331.546875 C 1604.59375 1308.621094 1602.503906 1270.554688 1624.722656 1246.539062 C 1646.929688 1222.507812 1685.027344 1221.621094 1709.804688 1244.546875 C 1734.59375 1267.460938 1736.683594 1305.511719 1714.464844 1329.542969 Z M 1715.527344 1238.351562 C 1687.234375 1212.171875 1643.707031 1213.199219 1618.339844 1240.644531 C 1592.96875 1268.082031 1595.347656 1311.554688 1623.652344 1337.714844 C 1651.957031 1363.898438 1695.472656 1362.878906 1720.851562 1335.445312 C 1746.21875 1308 1743.839844 1264.535156 1715.527344 1238.351562"/></g><g><path fill="#b6c2e8" d="M 1614.480469 1437.226562 C 1592.261719 1461.246094 1554.167969 1462.148438 1529.382812 1439.226562 C 1504.609375 1416.3125 1502.527344 1378.246094 1524.738281 1354.230469 C 1546.945312 1330.191406 1585.042969 1329.304688 1609.824219 1352.230469 C 1634.609375 1375.144531 1636.691406 1413.199219 1614.480469 1437.226562 Z M 1615.542969 1346.039062 C 1587.242188 1319.859375 1543.722656 1320.890625 1518.355469 1348.332031 C 1492.984375 1375.773438 1495.367188 1419.238281 1523.667969 1445.40625 C 1551.976562 1471.585938 1595.484375 1470.566406 1620.863281 1443.125 C 1646.234375 1415.683594 1643.851562 1372.214844 1615.542969 1346.039062"/></g><g><path fill="#ffffff" d="M 1709.8125 1244.535156 C 1685.03125 1221.617188 1646.929688 1222.511719 1624.726562 1246.539062 C 1602.511719 1270.554688 1604.589844 1308.621094 1629.371094 1331.539062 C 1654.164062 1354.457031 1692.253906 1353.5625 1714.46875 1329.535156 C 1736.683594 1305.511719 1734.605469 1267.453125 1709.8125 1244.535156"/></g><g><path fill="#7c94d3" d="M 1609.8125 1352.238281 C 1585.03125 1329.3125 1546.9375 1330.207031 1524.726562 1354.234375 C 1502.515625 1378.253906 1504.59375 1416.320312 1529.375 1439.234375 C 1554.15625 1462.152344 1592.25 1461.253906 1614.472656 1437.234375 C 1636.683594 1413.207031 1634.605469 1375.152344 1609.8125 1352.238281"/></g><g><path fill="#fab938" d="M 1263.824219 735.046875 L 1275.976562 637.804688 L 1195.867188 628.269531 C 1196.226562 650.238281 1197.03125 699.605469 1197.578125 739.46875 C 1219.515625 736.023438 1241.730469 734.488281 1263.824219 735.046875"/></g><g><path fill="#ebf1fa" d="M 1283.273438 638.671875 L 1294.691406 566.722656 L 1187.855469 552.996094 L 1186.933594 627.203125 L 1195.871094 628.265625 L 1275.976562 637.808594 L 1283.273438 638.671875"/></g><g><path fill="#44354d" d="M 1312.699219 496.007812 L 1210.007812 482.878906 L 1205.34375 514.347656 L 1202.324219 482.445312 L 1185.683594 482.058594 L 1187.863281 552.980469 L 1294.699219 566.714844 L 1312.699219 496.007812"/></g><g><path fill="#44354d" d="M 1134.835938 381.777344 L 1111.664062 380.722656 L 1103.496094 407.527344 L 1103.671875 381.941406 L 1079.8125 383.035156 L 1082.363281 409.738281 L 1072.972656 385.105469 L 1018.175781 394.511719 L 1074.394531 516.277344 L 1113.925781 512.195312 L 1134.835938 381.777344"/></g><g><path fill="#fab938" d="M 1119.246094 582.5 L 1083.164062 584.863281 L 1100.035156 768.019531 C 1108.894531 764.152344 1117.925781 760.609375 1127.085938 757.359375 L 1119.246094 582.5"/></g><g><path fill="#ebf1fa" d="M 1120.289062 582.425781 L 1118.550781 511.722656 L 1113.917969 512.199219 L 1074.390625 516.285156 L 1069.480469 516.796875 L 1080.019531 585.058594 L 1083.167969 584.855469 L 1119.25 582.496094 L 1120.289062 582.425781"/></g><g><path fill="#ebf1fa" d="M 1473.128906 881.496094 C 1465.691406 837.273438 1439.832031 802.785156 1404.511719 780.414062 C 1430.261719 802.242188 1448.613281 831.847656 1454.683594 867.957031 C 1460.933594 905.03125 1457.207031 943.078125 1450.753906 980.109375 C 1437.144531 1058.289062 1410.605469 1135.675781 1362.226562 1198.558594 C 1308.914062 1267.871094 1232.285156 1310.8125 1145.082031 1317.675781 C 1085.285156 1322.375 1022.648438 1311.828125 962.59375 1290.902344 C 917.5 1275.195312 874.410156 1253.304688 835.6875 1226.203125 C 878.953125 1259.625 928.644531 1286.195312 981.027344 1304.453125 C 1041.085938 1325.378906 1103.722656 1335.914062 1163.515625 1331.21875 C 1250.730469 1324.355469 1327.347656 1281.425781 1380.671875 1212.109375 C 1429.039062 1149.214844 1455.578125 1071.816406 1469.199219 993.652344 C 1475.640625 956.617188 1479.355469 918.570312 1473.128906 881.496094"/></g><g><path fill="#ebf1fa" d="M 762.082031 934.371094 C 749 920.171875 743.015625 899.917969 747.882812 879.75 C 755.628906 847.617188 787.957031 827.847656 820.09375 835.585938 C 824.140625 836.5625 827.988281 837.9375 831.613281 839.636719 C 823.863281 831.226562 813.621094 824.933594 801.660156 822.050781 C 769.527344 814.300781 737.195312 834.070312 729.445312 866.199219 C 722.675781 894.292969 736.925781 922.523438 762.082031 934.371094"/></g><g><path fill="#ffffff" d="M 935.507812 1202.667969 C 912.488281 1188.703125 911.078125 1163.046875 933.160156 1147.183594 C 959.019531 1128.625 978.503906 1115.425781 984.734375 1081.730469 C 988.738281 1060.09375 993.582031 1019.945312 1024.960938 1027.945312 C 1029.179688 1029.03125 1032.851562 1031.539062 1035.832031 1034.753906 C 1040.972656 1037.074219 1045.132812 1041.5 1047.910156 1046.472656 C 1060.050781 1068.144531 1061.9375 1102.074219 1057.363281 1126.074219 C 1050.550781 1161.792969 1029.242188 1224.292969 983.054688 1220.480469 C 969.640625 1219.371094 954.777344 1215.335938 943.1875 1208.304688 C 940.480469 1206.671875 938.082031 1204.859375 935.972656 1202.917969 C 935.824219 1202.824219 935.660156 1202.761719 935.507812 1202.667969 Z M 865.039062 1144.792969 C 827.835938 1155.59375 806.714844 1144.507812 786.789062 1124.542969 C 786.789062 1124.542969 785.8125 1123.449219 784.308594 1121.464844 C 783.625 1120.800781 782.941406 1120.128906 782.261719 1119.441406 C 782.261719 1119.441406 743.378906 1075.808594 780.640625 1041.984375 C 817.898438 1008.171875 820.507812 1055.316406 846.453125 1047.769531 C 869.214844 1041.152344 883.277344 1034.289062 893.011719 1048.960938 C 896.171875 1051.492188 898.929688 1055.507812 901.386719 1061.527344 C 911.199219 1085.589844 902.242188 1133.988281 865.039062 1144.792969 Z M 729.445312 866.199219 C 737.195312 834.074219 769.527344 814.300781 801.660156 822.046875 C 813.621094 824.933594 823.863281 831.226562 831.617188 839.636719 C 844.695312 853.835938 850.683594 874.082031 845.816406 894.257812 C 838.066406 926.390625 805.738281 946.164062 773.601562 938.417969 C 769.554688 937.4375 765.707031 936.066406 762.082031 934.359375 C 736.925781 922.523438 722.675781 894.289062 729.445312 866.199219 Z M 1121.675781 1134.925781 C 1113.644531 1106.617188 1105.171875 1090.5 1131.449219 1080.835938 C 1144.507812 1076.039062 1164.046875 1076.480469 1181.839844 1083.113281 C 1202.625 1088.835938 1222.523438 1102.527344 1229.070312 1125.652344 C 1240.589844 1166.25 1228.375 1188.628906 1206.492188 1209.371094 C 1206.492188 1209.371094 1174.367188 1236.414062 1142.652344 1223.304688 C 1133.3125 1221.113281 1123.796875 1215.851562 1114.921875 1205.777344 C 1078.335938 1164.21875 1129.71875 1163.238281 1121.675781 1134.925781 Z M 1386.851562 1040.6875 C 1386.074219 1047.488281 1381.613281 1053.429688 1376.144531 1057.550781 C 1356.296875 1072.488281 1322.929688 1078.917969 1298.539062 1077.621094 C 1273.316406 1076.269531 1234.351562 1069.703125 1212.089844 1050.3125 C 1197.363281 1041.109375 1186.730469 1028.113281 1185.78125 1009.910156 C 1185.074219 996.472656 1187.078125 981.199219 1192.484375 968.773438 C 1202.898438 944.804688 1226.984375 939.535156 1245.46875 957.304688 C 1249.230469 959.308594 1252.898438 962.113281 1256.347656 965.75 C 1264.875 974.761719 1272.460938 982.917969 1280.566406 989.621094 C 1290.992188 996.273438 1302.945312 1000.519531 1318.933594 1001.289062 C 1335.207031 1002.070312 1361.589844 1001.953125 1372.6875 1014.898438 C 1382.121094 1019.398438 1388.421875 1027.113281 1386.851562 1040.6875 Z M 1145.085938 1317.667969 C 1232.292969 1310.808594 1308.921875 1267.867188 1362.230469 1198.554688 C 1410.609375 1135.664062 1437.148438 1058.28125 1450.769531 980.105469 C 1457.207031 943.078125 1460.929688 905.027344 1454.6875 867.949219 C 1448.617188 831.847656 1430.265625 802.242188 1404.507812 780.402344 C 1382.34375 761.609375 1354.695312 748.5625 1324.644531 742.132812 C 1304.671875 737.851562 1284.300781 735.554688 1263.832031 735.039062 C 1241.726562 734.480469 1219.519531 736.019531 1197.585938 739.464844 C 1173.585938 743.238281 1149.925781 749.289062 1127.09375 757.351562 C 1117.9375 760.597656 1108.902344 764.140625 1100.039062 768.019531 C 1092.914062 771.128906 1085.882812 774.449219 1078.980469 777.957031 C 1063.855469 785.652344 1048.773438 793.125 1033.492188 799.40625 L 1105.308594 981.03125 C 1109.070312 992.414062 1114.667969 1014.738281 1113.613281 1025.351562 C 1098.152344 1011.21875 1089.730469 991.53125 1085.703125 982.03125 L 1007.550781 808.671875 C 984.375 815.5625 960.386719 818.640625 934.691406 814.679688 C 872.769531 805.152344 785.929688 738.949219 723.722656 770.515625 C 694.316406 785.429688 680.234375 819.453125 673.015625 851.621094 C 637.871094 1008.246094 715.78125 1142.28125 835.6875 1226.203125 C 874.414062 1253.300781 917.507812 1275.191406 962.597656 1290.898438 C 1022.652344 1311.828125 1085.292969 1322.371094 1145.085938 1317.667969"/></g><g><path fill="#f79110" d="M 893.011719 1048.960938 C 894.371094 1051.011719 895.648438 1053.46875 896.851562 1056.421875 C 906.667969 1080.488281 897.710938 1128.890625 860.507812 1139.691406 C 824.578125 1150.128906 803.648438 1140.140625 784.308594 1121.46875 C 785.808594 1123.449219 786.789062 1124.550781 786.789062 1124.550781 C 806.714844 1144.511719 827.835938 1155.601562 865.039062 1144.789062 C 902.242188 1133.988281 911.199219 1085.589844 901.382812 1061.53125 C 898.929688 1055.511719 896.171875 1051.488281 893.011719 1048.960938"/></g><g><path fill="#fab938" d="M 860.507812 1139.691406 C 897.710938 1128.890625 906.667969 1080.488281 896.851562 1056.421875 C 895.648438 1053.46875 894.371094 1051.011719 893.011719 1048.960938 C 883.273438 1034.289062 869.210938 1041.148438 846.449219 1047.769531 C 820.507812 1055.320312 817.898438 1008.171875 780.636719 1041.988281 C 743.375 1075.808594 782.257812 1119.449219 782.257812 1119.449219 C 782.941406 1120.128906 783.625 1120.800781 784.308594 1121.46875 C 803.648438 1140.140625 824.578125 1150.128906 860.507812 1139.691406"/></g><g><path fill="#7c94d3" d="M 1221.898438 1123.339844 C 1233.421875 1163.941406 1221.199219 1186.320312 1199.320312 1207.058594 C 1199.320312 1207.058594 1171.859375 1230.179688 1142.648438 1223.308594 C 1174.371094 1236.421875 1206.488281 1209.371094 1206.488281 1209.371094 C 1228.371094 1188.628906 1240.589844 1166.25 1229.070312 1125.648438 C 1222.519531 1102.53125 1202.621094 1088.839844 1181.839844 1083.109375 C 1199.878906 1089.828125 1216.109375 1102.898438 1221.898438 1123.339844"/></g><g><path fill="#5f80c9" d="M 1142.648438 1223.308594 C 1171.859375 1230.179688 1199.320312 1207.058594 1199.320312 1207.058594 C 1221.199219 1186.320312 1233.421875 1163.941406 1221.898438 1123.339844 C 1216.109375 1102.898438 1199.878906 1089.828125 1181.839844 1083.109375 C 1164.050781 1076.480469 1144.5 1076.039062 1131.449219 1080.839844 C 1105.171875 1090.5 1113.640625 1106.621094 1121.679688 1134.929688 C 1129.71875 1163.238281 1078.339844 1164.21875 1114.921875 1205.78125 C 1123.789062 1215.851562 1133.308594 1221.109375 1142.648438 1223.308594"/></g><g><path fill="#d8323f" d="M 983.050781 1220.480469 C 1029.238281 1224.300781 1050.550781 1161.789062 1057.359375 1126.070312 C 1061.929688 1102.078125 1060.050781 1068.148438 1047.910156 1046.480469 C 1045.128906 1041.5 1040.96875 1037.078125 1035.828125 1034.761719 C 1037.53125 1036.601562 1039.019531 1038.660156 1040.230469 1040.839844 C 1052.371094 1062.511719 1054.25 1096.441406 1049.679688 1120.429688 C 1042.871094 1156.148438 1021.558594 1218.660156 975.371094 1214.839844 C 962.132812 1213.75 947.496094 1209.789062 935.972656 1202.921875 C 938.078125 1204.859375 940.476562 1206.671875 943.1875 1208.308594 C 954.777344 1215.339844 969.636719 1219.371094 983.050781 1220.480469"/></g><g><path fill="#f14b62" d="M 1049.679688 1120.429688 C 1054.25 1096.441406 1052.371094 1062.511719 1040.230469 1040.839844 C 1039.019531 1038.660156 1037.53125 1036.601562 1035.828125 1034.761719 C 1032.851562 1031.539062 1029.179688 1029.03125 1024.960938 1027.949219 C 993.578125 1019.949219 988.734375 1060.089844 984.734375 1081.730469 C 978.503906 1115.429688 959.015625 1128.628906 933.160156 1147.191406 C 911.074219 1163.050781 912.484375 1188.699219 935.507812 1202.671875 C 935.65625 1202.761719 935.820312 1202.828125 935.972656 1202.921875 C 947.496094 1209.789062 962.132812 1213.75 975.371094 1214.839844 C 1021.558594 1218.660156 1042.871094 1156.148438 1049.679688 1120.429688"/></g><g><path fill="#3389a1" d="M 1280.570312 989.621094 C 1272.460938 982.921875 1264.871094 974.761719 1256.351562 965.761719 C 1252.898438 962.109375 1249.230469 959.308594 1245.46875 957.308594 C 1246.03125 957.851562 1246.589844 958.398438 1247.140625 958.980469 C 1258.78125 971.300781 1268.691406 982.03125 1280.570312 989.621094"/></g><g><path fill="#3389a1" d="M 1372.691406 1014.898438 C 1376.570312 1019.441406 1378.601562 1025.558594 1377.640625 1033.910156 C 1376.851562 1040.71875 1372.390625 1046.660156 1366.929688 1050.78125 C 1347.078125 1065.71875 1313.710938 1072.148438 1289.320312 1070.839844 C 1267.300781 1069.671875 1234.800781 1064.511719 1212.089844 1050.308594 C 1234.351562 1069.710938 1273.308594 1076.269531 1298.539062 1077.621094 C 1322.929688 1078.921875 1356.300781 1072.488281 1376.140625 1057.550781 C 1381.609375 1053.429688 1386.070312 1047.488281 1386.851562 1040.691406 C 1388.421875 1027.121094 1382.121094 1019.398438 1372.691406 1014.898438"/></g><g><path fill="#42a6cd" d="M 1366.929688 1050.78125 C 1372.390625 1046.660156 1376.851562 1040.71875 1377.640625 1033.910156 C 1378.601562 1025.558594 1376.570312 1019.441406 1372.691406 1014.898438 C 1361.589844 1001.960938 1335.210938 1002.070312 1318.929688 1001.289062 C 1302.941406 1000.519531 1290.988281 996.28125 1280.570312 989.621094 C 1268.691406 982.03125 1258.78125 971.300781 1247.140625 958.980469 C 1246.589844 958.398438 1246.03125 957.851562 1245.46875 957.308594 C 1226.980469 939.539062 1202.898438 944.808594 1192.480469 968.769531 C 1187.078125 981.199219 1185.070312 996.46875 1185.78125 1009.910156 C 1186.730469 1028.121094 1197.359375 1041.109375 1212.089844 1050.308594 C 1234.800781 1064.511719 1267.300781 1069.671875 1289.320312 1070.839844 C 1313.710938 1072.148438 1347.078125 1065.71875 1366.929688 1050.78125"/></g><g><path fill="#44354d" d="M 898.574219 445.808594 C 882.171875 461.726562 862.113281 473.25 838.152344 475.757812 C 850.769531 505.738281 869.558594 518.074219 881.871094 523.109375 L 913.484375 507.914062 C 915.601562 488.132812 910.089844 466.339844 898.574219 445.808594"/></g><g><path fill="#42a6cd" d="M 825.292969 378.570312 C 823.085938 422.910156 828.988281 453.996094 838.148438 475.765625 C 862.109375 473.246094 882.167969 461.730469 898.570312 445.8125 C 883.332031 418.648438 857.621094 393.683594 825.292969 378.570312"/></g><g><path fill="#fab938" d="M 1085.699219 982.035156 C 1089.730469 991.53125 1098.148438 1011.222656 1113.609375 1025.34375 C 1114.667969 1014.746094 1109.070312 992.417969 1105.308594 981.035156 L 1033.492188 799.402344 L 945.324219 576.453125 L 909.835938 591.898438 L 1007.550781 808.667969 L 1085.699219 982.035156"/></g><g><path fill="#ebf1fa" d="M 946.347656 576 L 919.859375 504.84375 L 913.484375 507.90625 L 881.871094 523.101562 L 872.234375 527.738281 L 906.738281 593.242188 L 909.835938 591.894531 L 945.328125 576.453125 L 946.347656 576"/></g><g><path fill="#44354d" d="M 1377.609375 1708.558594 C 1376.089844 1745.980469 1351.699219 1780.25 1314 1792.53125 L 550.085938 2041.28125 C 501.652344 2057.050781 449.605469 2030.570312 433.835938 1982.140625 L 262.523438 1456.050781 C 249.324219 1415.511719 265.734375 1372.460938 299.828125 1350.238281 C 257.804688 1374.730469 224.285156 1440.691406 238.4375 1484.148438 L 409.746094 2010.238281 C 425.519531 2058.671875 477.566406 2085.148438 526 2069.378906 L 1289.910156 1820.628906 C 1335.308594 1805.839844 1384.601562 1754.789062 1377.609375 1708.558594"/></g><g><path fill="#5c3e6b" d="M 1245.691406 1722.859375 L 1096.46875 1260.230469 L 1091.210938 1213.109375 L 1083.878906 1147.460938 L 1112.710938 1205.371094 L 1133.871094 1247.859375 L 1283.089844 1710.488281 Z M 1181.050781 1743.910156 L 1031.828125 1281.28125 L 1026.570312 1234.160156 L 1019.238281 1168.511719 L 1048.070312 1226.421875 L 1069.230469 1268.910156 L 1218.449219 1731.539062 Z M 1116.410156 1764.960938 L 967.1875 1302.328125 L 961.929688 1255.210938 L 954.601562 1189.558594 L 983.433594 1247.46875 L 1004.589844 1289.960938 L 1153.808594 1752.589844 Z M 1051.769531 1786.011719 L 902.546875 1323.378906 L 897.289062 1276.261719 L 889.964844 1210.609375 L 918.792969 1268.519531 L 939.949219 1311.011719 L 1089.171875 1773.640625 Z M 987.125 1807.058594 L 837.90625 1344.421875 L 832.648438 1297.308594 L 825.324219 1231.660156 L 854.152344 1289.558594 L 875.308594 1332.058594 L 1024.53125 1794.691406 Z M 922.484375 1828.109375 L 773.265625 1365.46875 L 768.011719 1318.359375 L 760.683594 1252.699219 L 789.515625 1310.609375 L 810.667969 1353.101562 L 959.886719 1815.738281 Z M 857.847656 1849.148438 L 708.628906 1386.519531 L 703.371094 1339.410156 L 696.042969 1273.75 L 724.875 1331.660156 L 746.027344 1374.148438 L 895.246094 1836.78125 Z M 793.207031 1870.199219 L 643.988281 1407.570312 L 638.730469 1360.449219 L 631.402344 1294.800781 L 660.234375 1352.710938 L 681.386719 1395.199219 L 830.605469 1857.828125 Z M 728.566406 1891.25 L 579.347656 1428.621094 L 574.089844 1381.5 L 566.761719 1315.851562 L 595.59375 1373.761719 L 616.746094 1416.25 L 765.964844 1878.878906 Z M 663.925781 1912.300781 L 514.707031 1449.671875 L 509.449219 1402.550781 L 502.121094 1336.898438 L 530.953125 1394.808594 L 552.109375 1437.300781 L 701.324219 1899.929688 Z M 599.285156 1933.351562 L 450.066406 1470.71875 L 444.808594 1423.601562 L 437.480469 1357.949219 L 466.3125 1415.859375 L 487.46875 1458.351562 L 636.6875 1920.980469 Z M 534.644531 1954.398438 L 385.425781 1491.769531 L 380.171875 1444.648438 L 372.84375 1379 L 401.675781 1436.910156 L 422.828125 1479.398438 L 572.046875 1942.03125 Z M 262.523438 1456.050781 L 433.835938 1982.140625 C 449.605469 2030.570312 501.652344 2057.050781 550.085938 2041.28125 L 1314 1792.53125 C 1351.699219 1780.25 1376.089844 1745.980469 1377.609375 1708.558594 C 1378.039062 1697.910156 1376.628906 1687 1373.140625 1676.269531 L 1201.828125 1150.179688 C 1186.058594 1101.75 1134.011719 1075.269531 1085.578125 1091.039062 L 321.664062 1339.800781 C 313.769531 1342.371094 306.46875 1345.921875 299.828125 1350.238281 C 265.734375 1372.460938 249.324219 1415.511719 262.523438 1456.050781"/></g><g><path fill="#346daf" d="M 385.429688 1491.769531 L 534.644531 1954.398438 L 572.046875 1942.03125 L 422.828125 1479.398438 L 385.429688 1491.769531"/></g><g><path fill="#fbcfc7" d="M 422.828125 1479.398438 L 401.675781 1436.910156 C 395.125 1440.859375 387.71875 1443.660156 380.171875 1444.648438 L 385.429688 1491.769531 L 422.828125 1479.398438"/></g><g><path fill="#346daf" d="M 372.84375 1379 L 380.171875 1444.648438 C 387.71875 1443.660156 395.125 1440.859375 401.675781 1436.910156 L 372.84375 1379"/></g><g><path fill="#ffffff" d="M 450.066406 1470.71875 L 599.285156 1933.351562 L 636.6875 1920.980469 L 487.46875 1458.351562 L 450.066406 1470.71875"/></g><g><path fill="#fbcfc7" d="M 487.46875 1458.351562 L 466.3125 1415.859375 C 459.765625 1419.808594 452.359375 1422.609375 444.808594 1423.601562 L 450.066406 1470.71875 L 487.46875 1458.351562"/></g><g><path fill="#ffffff" d="M 437.480469 1357.949219 L 444.808594 1423.601562 C 452.359375 1422.609375 459.765625 1419.808594 466.3125 1415.859375 L 437.480469 1357.949219"/></g><g><path fill="#f79110" d="M 514.707031 1449.671875 L 663.925781 1912.300781 L 701.324219 1899.929688 L 552.109375 1437.300781 L 514.707031 1449.671875"/></g><g><path fill="#fbcfc7" d="M 552.109375 1437.300781 L 530.953125 1394.808594 C 524.40625 1398.761719 516.996094 1401.558594 509.449219 1402.550781 L 514.707031 1449.671875 L 552.109375 1437.300781"/></g><g><path fill="#f79110" d="M 502.121094 1336.898438 L 509.449219 1402.550781 C 516.996094 1401.558594 524.40625 1398.761719 530.953125 1394.808594 L 502.121094 1336.898438"/></g><g><path fill="#f14b62" d="M 579.347656 1428.621094 L 728.566406 1891.25 L 765.964844 1878.878906 L 616.746094 1416.25 L 579.347656 1428.621094"/></g><g><path fill="#fbcfc7" d="M 616.746094 1416.25 L 595.59375 1373.761719 C 589.046875 1377.710938 581.640625 1380.519531 574.089844 1381.5 L 579.347656 1428.621094 L 616.746094 1416.25"/></g><g><path fill="#f14b62" d="M 566.761719 1315.851562 L 574.089844 1381.5 C 581.640625 1380.519531 589.046875 1377.710938 595.59375 1373.761719 L 566.761719 1315.851562"/></g><g><path fill="#b3c43f" d="M 643.988281 1407.570312 L 793.207031 1870.199219 L 830.605469 1857.828125 L 681.386719 1395.199219 L 643.988281 1407.570312"/></g><g><path fill="#fbcfc7" d="M 681.386719 1395.199219 L 660.234375 1352.710938 C 653.6875 1356.660156 646.277344 1359.46875 638.730469 1360.449219 L 643.988281 1407.570312 L 681.386719 1395.199219"/></g><g><path fill="#b3c43f" d="M 631.402344 1294.800781 L 638.730469 1360.449219 C 646.277344 1359.46875 653.6875 1356.660156 660.234375 1352.710938 L 631.402344 1294.800781"/></g><g><path fill="#fab938" d="M 708.628906 1386.519531 L 857.847656 1849.148438 L 895.246094 1836.78125 L 746.027344 1374.148438 L 708.628906 1386.519531"/></g><g><path fill="#fbcfc7" d="M 746.027344 1374.148438 L 724.875 1331.660156 C 718.324219 1335.609375 710.917969 1338.421875 703.371094 1339.410156 L 708.628906 1386.519531 L 746.027344 1374.148438"/></g><g><path fill="#fab938" d="M 696.042969 1273.75 L 703.371094 1339.410156 C 710.917969 1338.421875 718.324219 1335.609375 724.875 1331.660156 L 696.042969 1273.75"/></g><g><path fill="#992471" d="M 773.269531 1365.46875 L 922.484375 1828.109375 L 959.886719 1815.738281 L 810.667969 1353.101562 L 773.269531 1365.46875"/></g><g><path fill="#fbcfc7" d="M 810.667969 1353.101562 L 789.515625 1310.609375 C 782.96875 1314.558594 775.558594 1317.371094 768.011719 1318.359375 L 773.269531 1365.46875 L 810.667969 1353.101562"/></g><g><path fill="#992471" d="M 760.683594 1252.699219 L 768.011719 1318.359375 C 775.558594 1317.371094 782.96875 1314.558594 789.515625 1310.609375 L 760.683594 1252.699219"/></g><g><path fill="#cfd8ed" d="M 837.910156 1344.421875 L 987.125 1807.058594 L 1024.53125 1794.691406 L 875.308594 1332.058594 L 837.910156 1344.421875"/></g><g><path fill="#fbcfc7" d="M 875.308594 1332.058594 L 854.152344 1289.558594 C 847.605469 1293.519531 840.199219 1296.320312 832.648438 1297.308594 L 837.910156 1344.421875 L 875.308594 1332.058594"/></g><g><path fill="#cfd8ed" d="M 825.324219 1231.660156 L 832.648438 1297.308594 C 840.199219 1296.320312 847.605469 1293.519531 854.152344 1289.558594 L 825.324219 1231.660156"/></g><g><path fill="#7c94d3" d="M 902.550781 1323.378906 L 1051.769531 1786.011719 L 1089.171875 1773.640625 L 939.949219 1311.011719 L 902.550781 1323.378906"/></g><g><path fill="#fbcfc7" d="M 939.949219 1311.011719 L 918.792969 1268.519531 C 912.246094 1272.46875 904.839844 1275.269531 897.289062 1276.261719 L 902.550781 1323.378906 L 939.949219 1311.011719"/></g><g><path fill="#7c94d3" d="M 889.964844 1210.609375 L 897.289062 1276.261719 C 904.839844 1275.269531 912.246094 1272.46875 918.792969 1268.519531 L 889.964844 1210.609375"/></g><g><path fill="#bb8e4f" d="M 967.1875 1302.328125 L 1116.410156 1764.960938 L 1153.808594 1752.589844 L 1004.589844 1289.960938 L 967.1875 1302.328125"/></g><g><path fill="#fbcfc7" d="M 1004.589844 1289.960938 L 983.433594 1247.46875 C 976.886719 1251.421875 969.480469 1254.21875 961.929688 1255.210938 L 967.1875 1302.328125 L 1004.589844 1289.960938"/></g><g><path fill="#bb8e4f" d="M 954.601562 1189.558594 L 961.929688 1255.210938 C 969.480469 1254.21875 976.886719 1251.421875 983.433594 1247.46875 L 954.601562 1189.558594"/></g><g><path fill="#346daf" d="M 1031.828125 1281.28125 L 1181.050781 1743.910156 L 1218.449219 1731.539062 L 1069.230469 1268.910156 L 1031.828125 1281.28125"/></g><g><path fill="#fbcfc7" d="M 1069.230469 1268.910156 L 1048.070312 1226.421875 C 1041.53125 1230.371094 1034.121094 1233.171875 1026.570312 1234.160156 L 1031.828125 1281.28125 L 1069.230469 1268.910156"/></g><g><path fill="#346daf" d="M 1019.238281 1168.511719 L 1026.570312 1234.160156 C 1034.121094 1233.171875 1041.53125 1230.371094 1048.070312 1226.421875 L 1019.238281 1168.511719"/></g><g><path fill="#b3c43f" d="M 1096.46875 1260.230469 L 1245.691406 1722.859375 L 1283.089844 1710.488281 L 1133.871094 1247.859375 L 1096.46875 1260.230469"/></g><g><path fill="#fbcfc7" d="M 1133.871094 1247.859375 L 1112.710938 1205.371094 C 1106.171875 1209.320312 1098.761719 1212.128906 1091.210938 1213.109375 L 1096.46875 1260.230469 L 1133.871094 1247.859375"/></g><g><path fill="#b3c43f" d="M 1083.878906 1147.460938 L 1091.210938 1213.109375 C 1098.761719 1212.128906 1106.171875 1209.320312 1112.710938 1205.371094 L 1083.878906 1147.460938"/></g><g><path fill="#f14b62" d="M 1574.296875 621.929688 L 1574.128906 621.894531 L 1483.328125 1099.449219 L 1522.074219 1106.511719 L 1612.875 628.972656 L 1574.296875 621.929688"/></g><g><path fill="#fbcfc7" d="M 1612.871094 628.976562 L 1614.664062 581.539062 C 1607.027344 581.875 1599.183594 580.78125 1592.089844 578.03125 L 1574.117188 621.90625 L 1574.289062 621.9375 L 1612.871094 628.976562"/></g><g><path fill="#f14b62" d="M 1614.664062 581.554688 L 1617.121094 516.90625 L 1592.089844 578.039062 C 1599.179688 580.792969 1607.027344 581.875 1614.664062 581.554688"/></g><g><path fill="#346daf" d="M 1773.941406 583.167969 L 1578.324219 1028.183594 L 1614.507812 1043.757812 L 1810.109375 598.753906 L 1773.941406 583.167969"/></g><g><path fill="#fbcfc7" d="M 1773.945312 583.160156 L 1810.117188 598.742188 L 1822.515625 552.925781 C 1815 551.53125 1807.601562 548.710938 1801.292969 544.4375 L 1773.945312 583.160156"/></g><g><path fill="#346daf" d="M 1801.296875 544.445312 C 1807.59375 548.71875 1814.996094 551.535156 1822.519531 552.933594 L 1839.40625 490.484375 L 1801.296875 544.445312"/></g></g></svg>