<?xml version="1.0" encoding="UTF-8" standalone="no"?><svg xmlns="http://www.w3.org/2000/svg" xmlns:xlink="http://www.w3.org/1999/xlink" contentScriptType="text/ecmascript" fill="#000000" width="500" zoomAndPan="magnify" contentStyleType="text/css" viewBox="0.0 -10.6 500.0 436.6" height="436.6" preserveAspectRatio="xMidYMid meet" version="1"><defs><clipPath id="a"><path d="M 243 128 L 500 128 L 500 425.949219 L 243 425.949219 Z M 243 128"/></clipPath></defs><g><g id="change1_1"><path fill="#cf8c51" d="M 484.964844 258.570312 C 435.0625 266.660156 287.15625 300.378906 287.15625 300.378906 C 263.328125 327.351562 235.007812 312.066406 235.007812 312.066406 C 201.289062 317.011719 61.925781 360.171875 61.925781 360.171875 C 56.53125 359.722656 31.917969 228.371094 31.917969 228.371094 C 24.277344 192.859375 0 93.054688 0 93.054688 C 44.28125 79.566406 410.449219 -0.00390625 410.449219 -0.00390625 L 422.589844 40.457031 L 445.066406 122.277344 L 484.964844 258.570312"/></g><g id="change2_1"><path fill="#eedcc5" d="M 461.515625 247.546875 C 429.214844 243.816406 373.773438 258.363281 345.875 267.429688 C 301.359375 281.894531 278.199219 290.109375 254.78125 293.835938 C 191.289062 303.941406 71.949219 337.328125 71.949219 337.328125 C 68.71875 335.464844 62.222656 303.71875 60 292.28125 C 53.964844 261.257812 40.363281 202.503906 32.21875 172.984375 C 23.929688 142.941406 17.683594 101.84375 17.683594 101.84375 L 44.976562 96 C 43.753906 86.652344 42.945312 80.40625 42.945312 80.40625 C 101.039062 51.515625 209.464844 51.515625 209.464844 51.515625 C 296.761719 -10.621094 366.664062 11.746094 366.664062 11.746094 C 366.664062 11.746094 369.066406 17.664062 372.375 25.90625 L 394.972656 21.066406 C 394.972656 21.066406 414.238281 84.269531 421.785156 104.949219 C 427.3125 120.097656 435.507812 151.207031 439.550781 166.773438 C 444.816406 187.027344 461.515625 247.546875 461.515625 247.546875"/></g><g id="change3_1"><path fill="#ffffff" d="M 444.019531 238.535156 C 444.019531 238.535156 426.433594 164.058594 419.789062 139.433594 C 411.285156 107.941406 385.613281 23.863281 377.226562 16.097656 C 377.226562 16.097656 374.195312 16.527344 368.925781 17.34375 C 373.929688 29.738281 385.816406 59.347656 389.964844 71.085938 C 396.804688 90.453125 408.476562 129.871094 413.886719 149.683594 C 419.273438 169.421875 433.148438 229.21875 433.148438 229.21875 C 426.429688 228.992188 416.808594 229.980469 406.355469 231.578125 C 414.90625 203.910156 409.046875 173.59375 397.363281 155.246094 C 367.710938 108.675781 319.136719 104.269531 277.265625 120.382812 C 242.515625 133.753906 207.808594 179.722656 237.621094 248.730469 C 243.65625 262.707031 254.398438 273.027344 267.195312 280.125 C 258.675781 284.441406 253.269531 287.3125 253.269531 287.3125 C 253.269531 287.3125 259.691406 285.140625 270.195312 281.707031 C 291.890625 292.640625 318.683594 294.804688 338.648438 290.019531 C 371.828125 282.074219 391.449219 264.320312 401.574219 243.652344 C 421.253906 239.226562 437.054688 236.875 444.019531 238.535156 Z M 253.269531 287.3125 C 161.761719 295.851562 83.023438 326.765625 83.023438 326.765625 C 78.984375 323.039062 67.683594 275.734375 63.761719 258.421875 C 59.882812 241.296875 52.558594 206.941406 49.46875 189.65625 C 46.828125 174.863281 42.78125 145.023438 39.21875 130.425781 C 36.050781 117.441406 32.382812 92.210938 32.382812 92.210938 C 35.664062 90.34375 39.503906 88.5625 43.785156 86.859375 C 46.082031 104.503906 52.5 153.472656 55.371094 172.054688 C 60.902344 207.804688 78.363281 304.398438 84.886719 313.71875 C 84.886719 313.71875 147.617188 288.472656 180.882812 287.621094 C 198.972656 287.160156 253.269531 287.3125 253.269531 287.3125"/></g><g id="change4_1" clip-path="url(#a)"><path fill="#d8b283" d="M 498.519531 397.945312 C 495.363281 389.15625 486.632812 385.597656 480.820312 379.675781 C 473.160156 371.875 466.78125 361.96875 459.71875 353.597656 C 443.828125 334.765625 405.964844 288.078125 390.53125 269.257812 C 383 260.070312 383.914062 257.742188 373.730469 260.363281 C 365.027344 262.605469 360.191406 268.148438 361.335938 275.871094 C 362.695312 285.066406 399.941406 327.039062 405.253906 334.710938 C 412.566406 345.265625 443.15625 388.578125 451.335938 398.160156 C 456.765625 404.523438 459.667969 412.625 465.152344 418.660156 C 480.808594 435.878906 506.433594 420.007812 498.519531 397.945312 Z M 367.953125 238.953125 C 341.144531 264.679688 287.761719 259.691406 261.472656 235.320312 C 231.1875 207.246094 239.59375 152.285156 279.886719 135.945312 C 307.5 124.746094 346.515625 124.53125 368.421875 145.433594 C 394.429688 170.253906 393.714844 214.234375 367.953125 238.953125"/></g><g id="change5_1"><path fill="#78292a" d="M 361.851562 226.210938 C 362.042969 226.863281 362.640625 227.289062 363.289062 227.289062 C 363.429688 227.289062 363.570312 227.269531 363.710938 227.230469 C 369.085938 225.664062 374.5 224.257812 379.9375 222.984375 C 380.539062 221.839844 381.097656 220.679688 381.628906 219.503906 C 375.34375 220.925781 369.082031 222.539062 362.871094 224.351562 C 362.078125 224.582031 361.621094 225.414062 361.851562 226.210938 Z M 339.0625 228.664062 C 318.269531 231.851562 297.894531 237.886719 278.242188 246.644531 C 279.433594 247.230469 280.640625 247.796875 281.871094 248.328125 C 300.535156 240.253906 319.835938 234.648438 339.515625 231.628906 C 340.335938 231.503906 340.898438 230.738281 340.773438 229.917969 C 340.644531 229.101562 339.878906 228.53125 339.0625 228.664062 Z M 371.398438 163.609375 C 371.269531 162.792969 370.503906 162.234375 369.683594 162.363281 C 328.511719 168.847656 287.902344 181.472656 248.996094 199.882812 C 248.246094 200.238281 247.925781 201.132812 248.28125 201.878906 C 248.535156 202.421875 249.074219 202.738281 249.636719 202.738281 C 249.851562 202.738281 250.070312 202.691406 250.277344 202.59375 C 288.929688 184.308594 329.257812 171.765625 370.152344 165.324219 C 370.96875 165.195312 371.527344 164.429688 371.398438 163.609375 Z M 314.226562 154.023438 C 315.03125 153.832031 315.527344 153.023438 315.339844 152.21875 C 315.148438 151.410156 314.335938 150.910156 313.53125 151.105469 C 290.734375 156.511719 268.402344 165.035156 247.15625 176.4375 C 246.425781 176.828125 246.152344 177.738281 246.542969 178.46875 C 246.8125 178.972656 247.332031 179.261719 247.867188 179.261719 C 248.105469 179.261719 248.351562 179.203125 248.574219 179.082031 C 269.589844 167.800781 291.679688 159.371094 314.226562 154.023438 Z M 275.058594 147.300781 C 286.976562 142.125 300.265625 141.101562 313.261719 141.078125 C 321.085938 141.066406 329.003906 141.421875 336.6875 142.796875 C 335.695312 143.183594 334.703125 143.5625 333.714844 143.964844 C 332.945312 144.273438 332.578125 145.148438 332.890625 145.917969 C 333.125 146.5 333.6875 146.855469 334.277344 146.855469 C 334.46875 146.855469 334.65625 146.816406 334.84375 146.742188 C 337.246094 145.769531 339.664062 144.84375 342.085938 143.949219 C 345.128906 144.710938 348.117188 145.664062 351.035156 146.855469 C 364.40625 152.316406 375.683594 162.742188 382.171875 175.648438 C 383.679688 178.644531 384.914062 181.777344 385.890625 184.984375 C 341.484375 193.707031 298.316406 211.886719 256.335938 229.859375 C 257 230.671875 257.699219 231.457031 258.414062 232.234375 C 300.039062 214.417969 342.828125 196.476562 386.703125 187.886719 C 387.046875 189.265625 387.347656 190.65625 387.597656 192.058594 C 387.609375 190.613281 387.554688 189.171875 387.472656 187.726562 C 387.46875 187.664062 387.460938 187.601562 387.457031 187.539062 C 387.402344 186.621094 387.332031 185.703125 387.238281 184.785156 C 387.238281 184.761719 387.238281 184.738281 387.234375 184.71875 C 387.234375 184.71875 387.234375 184.71875 387.230469 184.71875 C 385.742188 170.125 379.527344 156.03125 368.421875 145.433594 C 365.5625 142.707031 362.410156 140.351562 359.035156 138.320312 C 359.027344 138.316406 359.019531 138.3125 359.015625 138.308594 C 357.820312 137.589844 356.601562 136.921875 355.355469 136.289062 C 355.351562 136.289062 355.351562 136.289062 355.351562 136.289062 C 334.160156 125.515625 305.578125 126.589844 283.273438 134.65625 C 283.273438 134.65625 283.269531 134.65625 283.269531 134.65625 C 282.125 135.070312 280.992188 135.496094 279.886719 135.945312 C 278.921875 136.335938 277.980469 136.757812 277.058594 137.199219 C 259.949219 145.214844 249.074219 160.433594 245.039062 177.25 C 246.011719 175.019531 247.117188 172.851562 248.363281 170.761719 C 254.539062 160.425781 264.015625 152.097656 275.058594 147.300781 Z M 413.1875 327.441406 C 425.398438 342.308594 437.988281 357.632812 454.113281 380.671875 C 455.535156 379.351562 456.957031 378.15625 458.269531 377.136719 C 459.40625 376.253906 460.644531 375.355469 461.941406 374.484375 C 447.648438 357.527344 437.296875 344.046875 426.40625 329.863281 C 415.242188 315.320312 403.71875 300.316406 387.078125 280.453125 C 384.9375 281.832031 382.773438 283.289062 380.773438 284.832031 C 380.652344 284.925781 380.519531 285.035156 380.375 285.148438 C 392.222656 301.914062 402.441406 314.359375 413.1875 327.441406 Z M 490.5 387.601562 C 486.757812 384.886719 484.144531 383.425781 481.675781 383.167969 C 472.789062 382.238281 459.9375 392.558594 457.695312 400.976562 C 456.507812 405.441406 460.746094 412.722656 460.746094 412.722656 C 453.207031 411.507812 443.796875 408.847656 444.023438 398.097656 C 444.140625 392.566406 447.78125 387.164062 451.945312 382.8125 C 435.742188 359.632812 423.113281 344.253906 410.867188 329.34375 C 400.144531 316.289062 389.9375 303.863281 378.113281 287.144531 C 376.648438 288.535156 375.144531 290.175781 374.582031 291.417969 C 374.015625 292.667969 373.636719 294.519531 375.414062 296.910156 C 377.859375 300.195312 377.832031 300.664062 377.832031 300.664062 C 371.332031 299.515625 362.804688 297.582031 362.785156 288.785156 C 362.765625 281.972656 369.605469 275.546875 374.59375 271.910156 C 380.285156 267.765625 388.308594 264.355469 395.28125 266.6875 C 400.613281 268.472656 402.019531 272.773438 401.742188 278.167969 C 401.640625 280.132812 401.042969 282.144531 401.042969 282.144531 C 400.28125 281.417969 396.933594 277.664062 394.820312 277.320312 C 393.421875 277.09375 391.304688 278.011719 389.679688 278.886719 C 406.199219 298.617188 417.667969 313.554688 428.785156 328.035156 C 439.722656 342.28125 450.117188 355.8125 464.507812 372.875 C 470.398438 369.414062 477.167969 367.15625 482.519531 370.160156 C 492.433594 375.722656 490.5 387.601562 490.5 387.601562 Z M 234.441406 164.679688 C 231.628906 171.371094 229.722656 178.425781 228.703125 185.765625 C 228.183594 214.605469 236.976562 237.875 254.136719 253.0625 C 272.203125 269.050781 299.28125 275.847656 328.433594 271.714844 C 356.105469 267.792969 382.902344 248.835938 393.601562 225.613281 C 404.144531 202.730469 405.074219 176.050781 396.035156 155.957031 C 378.214844 128.035156 351.339844 113.367188 320.269531 113.367188 C 306.769531 113.367188 292.488281 116.132812 277.804688 121.78125 C 258.882812 129.0625 242.671875 145.097656 234.441406 164.679688 Z M 364.371094 282.375 C 357.105469 286.027344 348.714844 289.152344 338.996094 291.480469 C 332.164062 293.117188 324.730469 293.921875 317.109375 293.921875 C 305.164062 293.921875 292.761719 291.945312 281.480469 288.082031 C 272.054688 284.851562 260.730469 279.425781 251.148438 270.433594 C 253.070312 279.40625 254.699219 286.832031 254.734375 286.988281 C 254.914062 287.800781 254.402344 288.597656 253.59375 288.777344 C 253.484375 288.800781 253.375 288.8125 253.269531 288.8125 C 252.578125 288.8125 251.957031 288.335938 251.804688 287.632812 C 251.765625 287.449219 249.546875 277.351562 247.230469 266.425781 C 242.917969 261.636719 239.121094 255.988281 236.242188 249.328125 C 225.097656 223.53125 223.457031 202.1875 225.703125 185.640625 C 225.703125 185.617188 225.703125 185.59375 225.703125 185.566406 C 225.707031 185.429688 225.734375 185.300781 225.769531 185.171875 C 226.625 179.117188 227.996094 173.707031 229.609375 168.96875 C 225.882812 151.597656 221.699219 129.765625 220.09375 116.3125 C 217.910156 98.058594 208.097656 52.289062 208 51.828125 C 207.824219 51.019531 208.339844 50.222656 209.148438 50.046875 C 209.953125 49.871094 210.757812 50.390625 210.929688 51.199219 C 211.03125 51.660156 220.875 97.566406 223.070312 115.953125 C 224.445312 127.476562 227.976562 146.644531 231.566406 163.785156 C 231.605469 163.699219 231.640625 163.605469 231.675781 163.515625 C 240.214844 143.199219 257.058594 126.550781 276.726562 118.980469 C 294.527344 112.132812 311.765625 109.425781 327.785156 110.632812 C 333.074219 109.273438 338.355469 107.894531 343.597656 106.472656 C 344.394531 106.253906 345.222656 106.726562 345.4375 107.523438 C 345.65625 108.324219 345.183594 109.148438 344.382812 109.367188 C 341.585938 110.125 338.769531 110.863281 335.957031 111.601562 C 348.660156 113.683594 360.46875 118.359375 371.023438 125.519531 C 373.394531 125.328125 375.761719 125.171875 378.136719 125.101562 C 378.972656 125.066406 379.65625 125.730469 379.679688 126.558594 C 379.703125 127.386719 379.054688 128.078125 378.226562 128.101562 C 377.097656 128.136719 375.972656 128.191406 374.847656 128.257812 C 383.863281 135.09375 391.878906 143.839844 398.628906 154.4375 C 410.667969 173.347656 417.90625 207.84375 405.351562 238.890625 C 401.960938 247.273438 396.488281 256.8125 387.707031 265.65625 C 387.019531 264.75 386.417969 263.945312 385.863281 263.242188 C 394.160156 254.800781 399.34375 245.742188 402.570312 237.765625 C 411.40625 215.917969 410.125 192.328125 404.300781 174.050781 C 406.800781 191.078125 404.105469 209.988281 396.328125 226.867188 C 385.226562 250.964844 357.480469 270.628906 328.855469 274.6875 C 323.125 275.5 317.464844 275.898438 311.933594 275.898438 C 288.492188 275.898438 267.300781 268.714844 252.148438 255.308594 C 241.699219 246.0625 234.238281 233.96875 229.953125 219.566406 C 231.785156 228.863281 234.800781 238.417969 238.996094 248.136719 C 252.085938 278.433594 287.722656 290.863281 317.386719 290.863281 C 324.894531 290.863281 332.019531 290.066406 338.300781 288.5625 C 347.710938 286.308594 355.835938 283.289062 362.875 279.761719 C 363.304688 280.570312 363.796875 281.433594 364.371094 282.375 Z M 246.078125 115.066406 C 246.339844 115.59375 246.871094 115.898438 247.421875 115.898438 C 247.644531 115.898438 247.875 115.847656 248.089844 115.738281 C 286.082031 96.753906 327.597656 84.871094 368.148438 81.378906 C 368.976562 81.304688 369.585938 80.578125 369.515625 79.753906 C 369.445312 78.929688 368.714844 78.320312 367.890625 78.386719 C 326.964844 81.917969 285.074219 93.902344 246.75 113.054688 C 246.007812 113.425781 245.707031 114.324219 246.078125 115.066406 Z M 302.4375 62.984375 C 302.671875 63.574219 303.238281 63.933594 303.835938 63.933594 C 304.019531 63.933594 304.203125 63.898438 304.386719 63.828125 C 321.738281 56.960938 339.636719 53.226562 357.574219 52.722656 C 358.402344 52.699219 359.054688 52.011719 359.03125 51.183594 C 359.007812 50.355469 358.308594 49.707031 357.488281 49.726562 C 339.199219 50.238281 320.960938 54.042969 303.28125 61.035156 C 302.511719 61.34375 302.132812 62.214844 302.4375 62.984375 Z M 287.910156 66.066406 C 287.546875 65.320312 286.648438 65.007812 285.90625 65.367188 C 272.480469 71.851562 258.550781 77.21875 244.503906 81.324219 C 243.707031 81.554688 243.25 82.390625 243.480469 83.183594 C 243.675781 83.839844 244.273438 84.265625 244.921875 84.265625 C 245.0625 84.265625 245.203125 84.242188 245.34375 84.203125 C 259.550781 80.054688 273.636719 74.625 287.210938 68.066406 C 287.957031 67.707031 288.269531 66.8125 287.910156 66.066406 Z M 239.226562 64.488281 C 239.410156 64.488281 239.597656 64.453125 239.78125 64.382812 C 276.558594 49.761719 314.59375 34.644531 353.359375 33.378906 C 354.1875 33.351562 354.839844 32.65625 354.8125 31.828125 C 354.785156 31 354.085938 30.355469 353.265625 30.378906 C 313.96875 31.664062 275.691406 46.878906 238.671875 61.59375 C 237.902344 61.898438 237.527344 62.773438 237.832031 63.542969 C 238.066406 64.128906 238.628906 64.488281 239.226562 64.488281 Z M 226.917969 267.28125 C 226.914062 267.28125 226.910156 267.28125 226.90625 267.28125 C 200.496094 267.464844 173.1875 267.652344 146.882812 273.726562 C 146.074219 273.914062 145.570312 274.71875 145.757812 275.523438 C 145.917969 276.21875 146.535156 276.6875 147.21875 276.6875 C 147.332031 276.6875 147.445312 276.675781 147.558594 276.648438 C 173.539062 270.652344 200.679688 270.460938 226.925781 270.28125 C 227.757812 270.273438 228.421875 269.597656 228.417969 268.769531 C 228.410156 267.945312 227.742188 267.28125 226.917969 267.28125 Z M 135.992188 276.132812 C 124.085938 277.417969 112.617188 280.785156 101.90625 286.140625 C 101.164062 286.507812 100.863281 287.410156 101.234375 288.152344 C 101.496094 288.675781 102.027344 288.980469 102.578125 288.980469 C 102.800781 288.980469 103.03125 288.929688 103.246094 288.820312 C 113.636719 283.628906 124.765625 280.363281 136.3125 279.117188 C 137.136719 279.027344 137.730469 278.289062 137.644531 277.464844 C 137.554688 276.640625 136.8125 276.042969 135.992188 276.132812 Z M 230.730469 242.378906 C 214.21875 240.527344 197.503906 240.769531 181.050781 243.097656 C 180.230469 243.214844 179.65625 243.972656 179.773438 244.792969 C 179.878906 245.542969 180.523438 246.085938 181.257812 246.085938 C 181.328125 246.085938 181.398438 246.078125 181.46875 246.070312 C 197.671875 243.773438 214.132812 243.535156 230.394531 245.359375 C 231.210938 245.449219 231.960938 244.859375 232.050781 244.035156 C 232.144531 243.210938 231.550781 242.46875 230.730469 242.378906 Z M 164.148438 247.167969 C 164.066406 246.34375 163.332031 245.742188 162.503906 245.828125 C 138.253906 248.277344 114.648438 254.507812 92.347656 264.351562 C 91.589844 264.683594 91.246094 265.570312 91.582031 266.328125 C 91.828125 266.886719 92.378906 267.222656 92.957031 267.222656 C 93.15625 267.222656 93.363281 267.179688 93.558594 267.09375 C 115.570312 257.378906 138.867188 251.230469 162.808594 248.8125 C 163.632812 248.730469 164.230469 247.992188 164.148438 247.167969 Z M 225.03125 212.511719 C 224.992188 211.683594 224.296875 211.050781 223.464844 211.078125 C 177.179688 213.179688 131.761719 222.601562 88.464844 239.089844 C 87.691406 239.382812 87.300781 240.25 87.597656 241.023438 C 87.824219 241.621094 88.394531 241.992188 89 241.992188 C 89.175781 241.992188 89.355469 241.960938 89.53125 241.890625 C 132.53125 225.519531 177.636719 216.160156 223.597656 214.078125 C 224.425781 214.039062 225.066406 213.339844 225.03125 212.511719 Z M 181.164062 192.839844 C 181.402344 193.414062 181.960938 193.761719 182.546875 193.761719 C 182.738281 193.761719 182.9375 193.726562 183.125 193.644531 C 192.988281 189.515625 203.402344 187.210938 214.085938 186.785156 C 214.910156 186.753906 215.558594 186.054688 215.523438 185.226562 C 215.492188 184.398438 214.804688 183.757812 213.964844 183.789062 C 202.925781 184.226562 192.160156 186.609375 181.96875 190.878906 C 181.203125 191.199219 180.84375 192.078125 181.164062 192.839844 Z M 169.152344 194.445312 C 169.058594 193.621094 168.308594 193.027344 167.492188 193.128906 C 139.917969 196.289062 112.554688 202.246094 86.164062 210.839844 C 85.375 211.09375 84.945312 211.941406 85.203125 212.730469 C 85.40625 213.363281 85.996094 213.765625 86.628906 213.765625 C 86.78125 213.765625 86.9375 213.742188 87.09375 213.691406 C 113.292969 205.160156 140.457031 199.246094 167.832031 196.109375 C 168.65625 196.015625 169.246094 195.269531 169.152344 194.445312 Z M 209.667969 152.988281 C 186.449219 155.472656 163.375 160.242188 141.078125 167.167969 C 140.285156 167.414062 139.84375 168.257812 140.089844 169.046875 C 140.289062 169.691406 140.882812 170.101562 141.519531 170.101562 C 141.667969 170.101562 141.816406 170.078125 141.964844 170.035156 C 164.078125 163.164062 186.964844 158.433594 209.988281 155.972656 C 210.8125 155.882812 211.40625 155.144531 211.320312 154.320312 C 211.230469 153.496094 210.496094 152.910156 209.667969 152.988281 Z M 103.34375 178.8125 C 111.472656 177.3125 119.566406 175.210938 127.394531 172.5625 C 128.179688 172.300781 128.601562 171.449219 128.335938 170.664062 C 128.070312 169.878906 127.21875 169.457031 126.433594 169.722656 C 118.738281 172.320312 110.789062 174.386719 102.800781 175.863281 C 100.914062 176.210938 99.019531 176.527344 97.125 176.84375 C 91.527344 177.78125 85.738281 178.75 80.207031 180.539062 C 79.417969 180.796875 78.984375 181.640625 79.238281 182.429688 C 79.445312 183.0625 80.035156 183.46875 80.667969 183.46875 C 80.820312 183.46875 80.976562 183.445312 81.128906 183.394531 C 86.453125 181.671875 92.128906 180.722656 97.621094 179.804688 C 99.53125 179.484375 101.441406 179.164062 103.34375 178.8125 Z M 134.238281 146.113281 C 156.800781 139.441406 180.128906 132.542969 203.46875 134.976562 C 204.292969 135.066406 205.03125 134.464844 205.113281 133.640625 C 205.199219 132.816406 204.601562 132.078125 203.777344 131.992188 C 179.851562 129.496094 156.230469 136.480469 133.390625 143.234375 C 127.777344 144.894531 121.980469 146.609375 116.292969 148.144531 C 102.21875 151.949219 87.671875 154.933594 73.601562 157.820312 L 73.589844 157.820312 C 72.777344 157.988281 72.261719 158.78125 72.425781 159.59375 C 72.570312 160.300781 73.199219 160.789062 73.898438 160.789062 C 74 160.789062 74.101562 160.777344 74.203125 160.757812 C 88.316406 157.863281 102.914062 154.867188 117.078125 151.039062 C 122.796875 149.496094 128.613281 147.773438 134.238281 146.113281 Z M 184.980469 109.148438 C 184.148438 109.175781 183.5 109.867188 183.527344 110.695312 C 183.554688 111.523438 184.238281 112.164062 185.074219 112.144531 C 189.628906 112 194.882812 111.941406 202.40625 112.496094 C 202.441406 112.5 202.480469 112.503906 202.515625 112.503906 C 203.296875 112.503906 203.953125 111.902344 204.011719 111.113281 C 204.074219 110.285156 203.453125 109.566406 202.625 109.507812 C 194.941406 108.9375 189.394531 109.003906 184.980469 109.148438 Z M 73.625 137.480469 C 104.613281 125.695312 137 117.585938 169.890625 113.375 C 170.710938 113.269531 171.292969 112.519531 171.1875 111.699219 C 171.082031 110.875 170.328125 110.292969 169.507812 110.402344 C 136.386719 114.640625 103.765625 122.808594 72.558594 134.675781 C 71.78125 134.972656 71.394531 135.835938 71.6875 136.613281 C 71.914062 137.210938 72.484375 137.578125 73.089844 137.578125 C 73.269531 137.578125 73.449219 137.546875 73.625 137.480469 Z M 146.117188 93.898438 C 145.316406 94.113281 144.847656 94.9375 145.0625 95.738281 C 145.242188 96.40625 145.847656 96.847656 146.507812 96.847656 C 146.640625 96.847656 146.769531 96.828125 146.902344 96.792969 C 164.445312 92.046875 182.542969 89.972656 200.710938 90.621094 C 201.554688 90.644531 202.234375 90.003906 202.265625 89.175781 C 202.292969 88.347656 201.648438 87.652344 200.820312 87.625 C 182.355469 86.960938 163.953125 89.074219 146.117188 93.898438 Z M 128.566406 99.804688 C 129.371094 99.601562 129.859375 98.789062 129.660156 97.984375 C 129.460938 97.179688 128.648438 96.6875 127.84375 96.890625 C 108.613281 101.667969 89.375 107.390625 70.660156 113.898438 C 69.878906 114.167969 69.464844 115.023438 69.734375 115.808594 C 69.953125 116.425781 70.53125 116.8125 71.152344 116.8125 C 71.316406 116.8125 71.480469 116.789062 71.644531 116.730469 C 90.273438 110.253906 109.425781 104.558594 128.566406 99.804688 Z M 69.671875 96.734375 C 69.078125 96.734375 68.515625 96.378906 68.277344 95.792969 C 67.96875 95.023438 68.34375 94.152344 69.113281 93.84375 C 108.773438 77.910156 150.554688 69.585938 193.292969 69.097656 C 194.089844 69.054688 194.800781 69.753906 194.8125 70.582031 C 194.820312 71.410156 194.15625 72.089844 193.328125 72.097656 C 150.964844 72.578125 109.546875 80.832031 70.230469 96.628906 C 70.046875 96.699219 69.855469 96.734375 69.671875 96.734375"/></g></g></svg>