<svg width="129.7" height="129.2" viewBox="0 0 129.7 129.2" xmlns="http://www.w3.org/2000/svg" xmlns:xlink="http://www.w3.org/1999/xlink" overflow="hidden"><style>
.MsftOfcThm_Accent6_Fill_v2 {
 fill:#F79646; 
}
</style>
<g id="change1_1"><path d="M63.1 126.2C52.9 126.2 43.2 123.7 34.7 119.4 44 125 54.9 128.2 66.6 128.2 100.8 128.2 128.7 100.4 128.7 66.1 128.7 51.6 123.7 38.3 115.3 27.7 122.2 37.8 126.2 50 126.2 63 126.2 97.9 97.9 126.2 63.1 126.2Z" class="MsftOfcThm_Accent6_Fill_v2" stroke="#FFFF00" fill="#F79646"/></g><g id="change2_1"><circle cx="63.1" cy="63.1" r="62.1" class="MsftOfcThm_Accent6_Fill_v2" stroke="#FFFF00" fill="#F79646"/></g><g id="change3_1"><path d="M106.2 17.1C94.9 6.5 79.8 0 63.1 0 28.3 0 0 28.3 0 63.1 0 82.9 9.2 100.5 23.4 112.1 34.7 122.7 49.9 129.2 66.5 129.2 101.3 129.2 129.6 100.9 129.6 66.1 129.7 46.4 120.5 28.7 106.2 17.1ZM1 63.1C1 28.8 28.8 1 63.1 1 97.4 1 125.2 28.8 125.2 63.1 125.2 97.4 97.4 125.2 63.1 125.2 28.8 125.2 1 97.3 1 63.1ZM66.6 128.2C54.9 128.2 44 125 34.7 119.4 43.2 123.7 52.9 126.2 63.1 126.2 97.9 126.2 126.2 97.9 126.2 63.1 126.2 50 122.2 37.8 115.3 27.8 123.7 38.4 128.7 51.7 128.7 66.2 128.7 100.4 100.8 128.2 66.6 128.2Z" class="MsftOfcThm_Accent6_Fill_v2" stroke="#FFFF00" fill="#F79646"/></g></svg>