<?xml version="1.0" encoding="UTF-8" standalone="no"?><svg xmlns="http://www.w3.org/2000/svg" xmlns:xlink="http://www.w3.org/1999/xlink" contentScriptType="text/ecmascript" fill="#000000" width="129.7" zoomAndPan="magnify" contentStyleType="text/css" viewBox="0.0 0.0 129.7 129.2" height="129.2" preserveAspectRatio="xMidYMid meet" version="1"><g id="change1_1"><path fill="#ffffff" d="M63.1,126.2c-10.2,0-19.9-2.5-28.4-6.8c9.3,5.6,20.2,8.8,31.9,8.8c34.2,0,62.1-27.8,62.1-62.1 c0-14.5-5-27.8-13.4-38.4c6.9,10.1,10.9,22.3,10.9,35.3C126.2,97.9,97.9,126.2,63.1,126.2z"/></g><g id="change2_1"><circle fill="#ffde59" r="62.1" cx="63.1" cy="63.1"/></g><g id="change3_1"><path fill="#ffffff" d="M106.2,17.1C94.9,6.5,79.8,0,63.1,0C28.3,0,0,28.3,0,63.1c0,19.8,9.2,37.4,23.4,49 c11.3,10.6,26.5,17.1,43.1,17.1c34.8,0,63.1-28.3,63.1-63.1C129.7,46.4,120.5,28.7,106.2,17.1z M1,63.1C1,28.8,28.8,1,63.1,1 s62.1,27.8,62.1,62.1s-27.8,62.1-62.1,62.1S1,97.3,1,63.1z M66.6,128.2c-11.7,0-22.6-3.2-31.9-8.8c8.5,4.3,18.2,6.8,28.4,6.8 c34.8,0,63.1-28.3,63.1-63.1c0-13.1-4-25.3-10.9-35.3c8.4,10.6,13.4,23.9,13.4,38.4C128.7,100.4,100.8,128.2,66.6,128.2z"/></g></svg>