<?xml version="1.0" encoding="UTF-8" standalone="no"?><svg xmlns="http://www.w3.org/2000/svg" xmlns:xlink="http://www.w3.org/1999/xlink" contentScriptType="text/ecmascript" fill="#000000" width="240.4" zoomAndPan="magnify" contentStyleType="text/css" viewBox="7.8 16.1 240.4 223.9" height="223.9" preserveAspectRatio="xMidYMid meet" version="1"><g><g><path fill="#5b5b5b" d="M134.246,105.494l-10.233-19.221H82.552H41.092l-10.233,19.221c-9.012,16.928-0.499,37.885,17.764,43.735 l33.929,10.866l33.929-10.866C134.745,143.379,143.258,122.422,134.246,105.494z"/></g><g><path fill="#63bce7" d="M142.953,227.458H22.152v-36.461c0-27.454,22.256-49.71,49.71-49.71h21.381 c27.454,0,49.71,22.256,49.71,49.71V227.458z"/></g><g><path fill="#f8af23" d="M82.552,152.453L82.552,152.453c-6.837,0-12.379-5.542-12.379-12.379V123.82 c0-6.837,5.542-12.379,12.379-12.379h0c6.837,0,12.379,5.542,12.379,12.379v16.254C94.931,146.91,89.389,152.453,82.552,152.453z"/></g><g><path fill="#f8af23" d="M82.552,111.441c-1.36,0-2.665,0.227-3.888,0.632v39.747c1.224,0.405,2.529,0.632,3.888,0.632 c6.837,0,12.379-5.542,12.379-12.379V123.82C94.931,116.983,89.389,111.441,82.552,111.441z"/></g><g><path fill="#f87023" d="M70.173,123.82v16.254c0,5.477,3.561,10.115,8.491,11.747v-39.747 C73.734,113.704,70.173,118.343,70.173,123.82z"/></g><g><g><circle fill="#f87023" r="8.337" cx="41.092" cy="77.936"/></g><g><circle fill="#f8d323" r="8.337" cx="124.013" cy="77.936"/></g></g><g><path fill="#f8af23" d="M82.552,128.351L82.552,128.351c-22.898,0-41.461-18.563-41.461-41.461V71.603 c0-22.898,18.563-41.461,41.461-41.461h0c22.898,0,41.461,18.563,41.461,41.461V86.89 C124.013,109.788,105.45,128.351,82.552,128.351z"/></g><g><path fill="#f87023" d="M82.552,30.143L82.552,30.143c2.562,0,5.066,0.245,7.5,0.69c-19.316,3.531-33.961,20.435-33.961,40.771 V86.89c0,20.336,14.645,37.24,33.961,40.771c-2.434,0.445-4.938,0.69-7.5,0.69h0c-22.898,0-41.461-18.563-41.461-41.461V71.603 C41.092,48.705,59.654,30.143,82.552,30.143z"/></g><g><path fill="#707070" d="M41.092,77.936h5.235l6.316-18.472c0,0,24.004,17.113,71.37,10.135V59.029 c0-22.898-18.563-41.461-41.461-41.461h0c-22.898,0-41.461,18.563-41.461,41.461V77.936z"/></g><g><path fill="#5b5b5b" d="M90.052,18.258c-2.434-0.445-4.938-0.69-7.5-0.69h0c-22.898,0-41.461,18.563-41.461,41.461v18.907h5.235 l6.316-18.472c0,0,1.152,0.821,3.449,2.03v-2.465C56.092,38.694,70.737,21.79,90.052,18.258z"/></g><g><path fill="#f46275" d="M82.552,197.124v30.335h-60.4V180.52c0-21.667,17.565-39.232,39.232-39.232h0.854 C62.238,141.287,58.579,179.298,82.552,197.124z"/></g><g><path fill="#f43075" d="M61.384,141.287h0.854c0,0-0.094,0.986-0.153,2.7c-14.593,5.717-24.933,19.912-24.933,36.532v46.939h-15 V180.52C22.152,158.852,39.717,141.287,61.384,141.287z"/></g><g><path fill="#f46275" d="M82.554,197.124v30.335h60.4V180.52c0-21.667-17.565-39.232-39.232-39.232h-0.854 C102.868,141.287,106.527,179.298,82.554,197.124z"/></g><g><path fill="#f46275" d="M70.173,141.287c0,0-13.342,22.982,12.379,55.836c0,0-14.268-6.091-26.356-27.918l5.068-10.179 l-8.738-1.573l5.243-19.922h12.404V141.287z"/></g><g><path fill="#f46275" d="M94.931,141.287c0,0,13.342,22.982-12.379,55.836c0,0,14.268-6.091,26.356-27.918l-5.068-10.179 l8.738-1.573l-5.243-19.922H94.931V141.287z"/></g><g><g><path fill="#cecece" d="M133.148 108.148H226.005V227.458H133.148z"/></g><g><path fill="#e2e2e2" d="M211.005 108.148H226.005V227.458H211.005z"/></g><g><g><path fill="#63e2e7" d="M218.162 149.862H233.848V214.747H218.162z"/></g><g><path fill="#f8d323" d="M218.162 214.747L226.005 227.458 233.848 214.747z"/></g><g><path fill="#f8d323" d="M218.162 139.427H233.848V149.862H218.162z"/></g><g><path fill="#f48875" d="M226.005,127.933L226.005,127.933c-2.614,0-4.733,2.119-4.733,4.733v6.761h9.466v-6.761 C230.738,130.052,228.619,127.933,226.005,127.933z"/></g><g fill="#3f3679"><path d="M27.323,236.931H9.32c-0.829,0-1.5,0.671-1.5,1.5s0.671,1.5,1.5,1.5h18.003c0.829,0,1.5-0.671,1.5-1.5 S28.152,236.931,27.323,236.931z"/><path d="M246.68,236.931h-18.003c-0.829,0-1.5,0.671-1.5,1.5s0.671,1.5,1.5,1.5h18.003 c0.829,0,1.5-0.671,1.5-1.5S247.509,236.931,246.68,236.931z"/><path d="M218.479,236.931H37.521c-0.829,0-1.5,0.671-1.5,1.5s0.671,1.5,1.5,1.5h180.959 c0.829,0,1.5-0.671,1.5-1.5S219.308,236.931,218.479,236.931z"/><path d="M248.18,227.458c0-0.829-0.671-1.5-1.5-1.5h-17.987l6.431-10.424h-0.005 c0.142-0.229,0.228-0.498,0.228-0.788v-64.885v-10.435c0-0.829-0.671-1.5-1.5-1.5h-1.61v-5.261c0-2.919-2.019-5.368-4.733-6.042 v-18.476c0-0.829-0.671-1.5-1.5-1.5h-89.532c-0.283-0.623-0.578-1.248-0.903-1.859l-9.215-17.31 c4.295-1.055,7.495-4.927,7.495-9.543c0-4.913-3.624-8.984-8.337-9.711v-9.196c0-23.688-19.272-42.96-42.961-42.96 c-23.688,0-42.96,19.272-42.96,42.96v9.196c-4.713,0.726-8.337,4.798-8.337,9.711c0,4.616,3.2,8.489,7.495,9.543l-9.215,17.31 c-7.634,14.34-3.284,32.228,9.828,41.489c-11.31,7.315-18.71,20.052-18.71,34.242v45.439H9.32c-0.829,0-1.5,0.671-1.5,1.5 s0.671,1.5,1.5,1.5h123.828h92.857h20.675C247.509,228.958,248.18,228.287,248.18,227.458z M226.005,224.602l-5.155-8.355h10.31 L226.005,224.602z M232.348,213.247h-12.686v-61.885h12.686V213.247z M232.348,148.362h-12.686v-7.435h1.61h9.466h1.61V148.362z M229.238,132.666v5.261h-6.466v-5.261c0-1.782,1.45-3.232,3.233-3.232S229.238,130.884,229.238,132.666z M117.538,178.583 c-0.829,0-1.5,0.671-1.5,1.5v45.876H84.054v-27.893c3.405-1.743,15.57-8.997,26.167-28.133c0.239-0.432,0.25-0.953,0.031-1.395 l-4.176-8.388l6.769-1.219c0.412-0.074,0.774-0.317,0.999-0.669c0.225-0.353,0.292-0.784,0.186-1.188l-3.601-13.684 c8.135,1.463,15.609,5.586,21.22,11.758v70.812h-12.61v-45.876C119.038,179.254,118.366,178.583,117.538,178.583z M62.604,158.354c-0.212-0.422-0.61-0.719-1.075-0.803l-7.14-1.286l4.535-17.233h9.748v1.042v0.832 c-1.578,3.017-10.529,22.735,8.108,50.798c-5.03-3.85-12.28-10.834-18.89-22.539l4.715-9.47 C62.817,159.273,62.816,158.776,62.604,158.354z M69.952,145.857c2.198,4.77,7.013,8.096,12.6,8.096 c5.596,0,10.417-3.336,12.611-8.117c2.361,7.48,4.927,25.468-12.611,48.796C65.085,171.391,67.611,153.368,69.952,145.857z M42.592,79.436h3.735c0.642,0,1.212-0.408,1.419-1.015l5.698-16.668c6.175,3.672,29.133,15.028,69.062,9.564 c0.001,0.096,0.006,0.191,0.006,0.287V86.89c0,22.035-17.926,39.961-39.961,39.961c-22.034,0-39.96-17.926-39.96-39.961V79.436z M110.715,156.265l-7.14,1.286c-0.465,0.083-0.863,0.381-1.075,0.803c-0.212,0.422-0.213,0.919-0.002,1.342l4.715,9.47 c-6.609,11.705-13.861,18.689-18.89,22.54c18.637-28.063,9.687-47.782,8.109-50.799v-0.832v-1.042h9.748L110.715,156.265z M82.552,129.851c3.758,0,7.403-0.488,10.879-1.399v9.08v2.542c0,5.999-4.88,10.879-10.879,10.879 c-5.999,0-10.879-4.88-10.879-10.879v-2.542v-9.08C75.149,129.363,78.795,129.851,82.552,129.851z M131.648,150.878 c-1.827-1.721-3.797-3.265-5.888-4.612c2.189-1.546,4.157-3.351,5.888-5.39V150.878z M133.14,106.649 c-0.825,0.005-1.492,0.673-1.492,1.499v27.872c-0.124,0.096-0.239,0.206-0.332,0.343c-2.241,3.316-5.078,6.077-8.431,8.218 c-4.123-2.201-8.616-3.686-13.291-4.363l-0.807-3.068c-0.173-0.659-0.769-1.118-1.451-1.118H96.432v-8.494 c15.421-5.281,26.909-19.094,28.799-35.785l7.691,14.447C133,106.347,133.064,106.5,133.14,106.649z M130.85,77.936 c0,3.254-2.287,5.98-5.337,6.666V71.604c0-0.112-0.006-0.223-0.007-0.336C128.56,71.952,130.85,74.679,130.85,77.936z M42.592,59.029c0-22.034,17.926-39.96,39.96-39.96c22.035,0,39.961,17.926,39.961,39.96v9.269 c-45.289,6.307-68.767-9.892-69-10.056c-0.386-0.275-0.878-0.351-1.33-0.207c-0.451,0.145-0.807,0.495-0.96,0.943l-5.968,17.458 h-2.663v-4.833c0-0.531,0.01-1.059,0.031-1.585c0.005-0.12-0.009-0.237-0.031-0.35V59.029z M34.255,77.936 c0-3.254,2.287-5.98,5.337-6.666v0.334v6.333v6.666C36.542,83.916,34.255,81.19,34.255,77.936z M32.184,106.199l7.691-14.447 c1.889,16.691,13.378,30.505,28.799,35.785v8.494H57.769c-0.682,0-1.277,0.459-1.451,1.118l-0.807,3.066 c-4.758,0.688-9.232,2.195-13.287,4.37C29.458,136.44,25.044,119.609,32.184,106.199z M23.652,180.52 c0-18.264,13.225-33.941,31.026-37.136l-3.602,13.688c-0.106,0.405-0.039,0.835,0.186,1.188 c0.225,0.353,0.587,0.596,0.999,0.669l6.769,1.219l-4.176,8.388c-0.22,0.442-0.208,0.963,0.031,1.395 c10.6,19.141,22.768,26.394,26.169,28.135v27.892H49.067v-45.876c0-0.829-0.671-1.5-1.5-1.5s-1.5,0.671-1.5,1.5v45.876H23.652 V180.52z M134.648,109.648h89.857v16.976c-2.713,0.674-4.733,3.124-4.733,6.042v5.261h-1.61c-0.829,0-1.5,0.671-1.5,1.5v10.435 v64.885c0,0.29,0.086,0.558,0.228,0.788h-0.005l6.431,10.424h-88.669V109.648z"/><path d="M66.253,88.978c-2.217,0-4.015,1.797-4.015,4.015c0,2.217,1.797,4.015,4.015,4.015 c2.217,0,4.015-1.797,4.015-4.015C70.267,90.776,68.47,88.978,66.253,88.978z"/><path d="M99.224,88.978c-2.217,0-4.015,1.797-4.015,4.015c0,2.217,1.797,4.015,4.015,4.015 c2.217,0,4.015-1.797,4.015-4.015C103.239,90.776,101.442,88.978,99.224,88.978z"/><path d="M82.552,104.305c0.829,0,1.5-0.671,1.5-1.5v-6.721c0-0.829-0.671-1.5-1.5-1.5s-1.5,0.671-1.5,1.5v6.721 C81.052,103.634,81.724,104.305,82.552,104.305z"/><path d="M82.552,117.64c2.782,0,5.434-1.205,7.276-3.307c0.546-0.623,0.484-1.571-0.139-2.117 c-0.623-0.546-1.57-0.484-2.117,0.139c-1.272,1.452-3.103,2.284-5.02,2.284s-3.747-0.833-5.02-2.284 c-0.546-0.624-1.494-0.685-2.117-0.139c-0.623,0.546-0.685,1.494-0.139,2.117C77.119,116.435,79.771,117.64,82.552,117.64z"/><path d="M60.781,84.421h10.571c0.829,0,1.5-0.671,1.5-1.5s-0.671-1.5-1.5-1.5H60.781c-0.829,0-1.5,0.671-1.5,1.5 S59.953,84.421,60.781,84.421z"/><path d="M93.753,84.421h10.571c0.829,0,1.5-0.671,1.5-1.5s-0.671-1.5-1.5-1.5H93.753c-0.829,0-1.5,0.671-1.5,1.5 S92.924,84.421,93.753,84.421z"/><path d="M213.112,121.761h-67.071c-0.829,0-1.5,0.671-1.5,1.5s0.671,1.5,1.5,1.5h67.071 c0.829,0,1.5-0.671,1.5-1.5S213.94,121.761,213.112,121.761z"/><path d="M213.112,138.258h-67.071c-0.829,0-1.5,0.671-1.5,1.5s0.671,1.5,1.5,1.5h67.071 c0.829,0,1.5-0.671,1.5-1.5S213.94,138.258,213.112,138.258z"/><path d="M213.112,154.755h-67.071c-0.829,0-1.5,0.671-1.5,1.5s0.671,1.5,1.5,1.5h67.071 c0.829,0,1.5-0.671,1.5-1.5S213.94,154.755,213.112,154.755z"/><path d="M213.112,171.253h-67.071c-0.829,0-1.5,0.671-1.5,1.5s0.671,1.5,1.5,1.5h67.071 c0.829,0,1.5-0.671,1.5-1.5S213.94,171.253,213.112,171.253z"/><path d="M213.112,187.75h-67.071c-0.829,0-1.5,0.671-1.5,1.5s0.671,1.5,1.5,1.5h67.071 c0.829,0,1.5-0.671,1.5-1.5S213.94,187.75,213.112,187.75z"/><path d="M213.112,204.248h-67.071c-0.829,0-1.5,0.671-1.5,1.5s0.671,1.5,1.5,1.5h67.071 c0.829,0,1.5-0.671,1.5-1.5S213.94,204.248,213.112,204.248z"/></g></g></g></g></svg>